SplineFontDB: 3.2
FontName: RallyDisplay-Light
FullName: Rally Display Light
FamilyName: Rally Display
Weight: Light
Copyright: Copyright (c) 2023-2024, Zamero Type Foundry
UComments: "2023-12-31: Created with FontForge (http://fontforge.org)+AAoACgAK-Magical cartoon rabbit. :)"
Version: 001.000
ItalicAngle: 0
UnderlinePosition: -100
UnderlineWidth: 50
Ascent: 800
Descent: 200
InvalidEm: 0
LayerCount: 2
Layer: 0 0 "Back" 1
Layer: 1 0 "Fore" 0
XUID: [1021 474 1118879153 10182]
StyleMap: 0x0000
FSType: 0
OS2Version: 0
OS2_WeightWidthSlopeOnly: 0
OS2_UseTypoMetrics: 1
CreationTime: 1704051534
ModificationTime: 1732987589
PfmFamily: 81
TTFWeight: 300
TTFWidth: 5
LineGap: 90
VLineGap: 90
OS2TypoAscent: 0
OS2TypoAOffset: 1
OS2TypoDescent: 0
OS2TypoDOffset: 1
OS2TypoLinegap: 90
OS2WinAscent: 0
OS2WinAOffset: 1
OS2WinDescent: 0
OS2WinDOffset: 1
HheadAscent: 0
HheadAOffset: 1
HheadDescent: 0
HheadDOffset: 1
OS2Vendor: 'ZAM '
Lookup: 1 0 0 "'case' Case-Sensitive Forms lookup 31" { "'case' Case-Sensitive Forms lookup 31-1" ("case") } ['case' ('DFLT' <'dflt' > 'grek' <'dflt' > 'latn' <'AZE ' 'CAT ' 'CRT ' 'KAZ ' 'MOL ' 'NLD ' 'ROM ' 'TAT ' 'TRK ' 'dflt' > ) ]
Lookup: 1 0 0 "'subs' Subscript lookup 0" { "'subs' Subscript lookup 0 subtable" ("inferior") } ['subs' ('DFLT' <'dflt' > ) ]
Lookup: 1 0 0 "'onum' Oldstyle Figures lookup 27" { "'onum' Oldstyle Figures lookup 27-1" ("osf") } ['onum' ('DFLT' <'dflt' > 'grek' <'dflt' > 'latn' <'AZE ' 'CAT ' 'CRT ' 'KAZ ' 'MOL ' 'NLD ' 'ROM ' 'TAT ' 'TRK ' 'dflt' > ) ]
Lookup: 1 0 0 "'ss16' Style Set 16 lookup 26" { "'ss16' Style Set 16 lookup 26-1" ("ss16") } ['ss16' ('DFLT' <'dflt' > 'grek' <'dflt' > 'latn' <'AZE ' 'CAT ' 'CRT ' 'KAZ ' 'MOL ' 'NLD ' 'ROM ' 'TAT ' 'TRK ' 'dflt' > ) ]
Lookup: 1 0 0 "'init' Initial Forms lookup 24" { "'init' Initial Forms lookup 24-1" ("init") } ['init' ('DFLT' <'dflt' > 'grek' <'dflt' > 'latn' <'AZE ' 'CAT ' 'CRT ' 'KAZ ' 'MOL ' 'NLD ' 'ROM ' 'TAT ' 'TRK ' 'dflt' > ) ]

StartChar: dotlessi
Encoding: 239 305 1
Width: 310
Flags: W
HStem: 0 21G<142.205 232.809> 425.561 71.4493<20.9701 145.424>
VStem: 142.205 90.6041<0 425.561>
LayerCount: 2
Back
SplineSet
274.729492188 496.93359375 m 5
 280.159179688 0 l 5
 83.830078125 0 l 5
 90 496.93359375 l 5
 274.729492188 496.93359375 l 5
EndSplineSet
Fore
SplineSet
227.379492188 497.010742188 m 1
 232.809179688 0 l 1
 142.205078125 0 l 1
 145.423867188 425.561484375 l 1
 17.35 423.557578125 l 1
 20.9701171875 497.010742188 l 1
 227.379492188 497.010742188 l 1
EndSplineSet
EndChar

StartChar: period
Encoding: 14 46 2
Width: 270
Flags: W
HStem: -10 121<91.3051 188.695>
VStem: 79.5 121<1.80514 99.1949>
LayerCount: 2
Fore
SplineSet
79.5 50.5 m 0
 79.5 87.4724609379 103.027539063 111 140 111 c 0
 176.972460937 111 200.5 87.4724609379 200.5 50.5 c 0
 200.5 13.5275390625 176.972460937 -10 140 -10 c 0
 103.027539063 -10 79.5 13.5275390625 79.5 50.5 c 0
EndSplineSet
EndChar

StartChar: o
Encoding: 79 111 3
Width: 565
Flags: W
HStem: -10.0664 80.1748<195.99 368.258> 426.759 80.1748<195.99 368.258>
VStem: 31.875 85.75<153.183 345.282> 446.375 87.125<153.183 345.282>
LayerCount: 2
Fore
SplineSet
117.625 249.858398438 m 0
 117.625 140.010970908 181.558053579 70.1083984375 282.025390625 70.1083984375 c 0
 382.461689651 70.1083984375 446.375 140.010970908 446.375 249.858398438 c 0
 446.375 357.964817607 382.461689651 426.758789062 282.025390625 426.758789062 c 0
 181.558053579 426.758789062 117.625 357.964817607 117.625 249.858398438 c 0
31.875 249.93359375 m 0
 31.875 406.989257812 129.145727729 506.93359375 282 506.93359375 c 0
 435.694761765 506.93359375 533.5 406.989257812 533.5 249.93359375 c 0
 533.5 91.0439453125 435.694761765 -10.06640625 282 -10.06640625 c 0
 129.145727729 -10.06640625 31.875 91.0439453125 31.875 249.93359375 c 0
EndSplineSet
EndChar

StartChar: slash
Encoding: 15 47 4
Width: 497
Flags: W
LayerCount: 2
Back
SplineSet
1 -123.994140625 m 1
 198.637695312 379 l 1
 317 815.001953125 l 1
 506 763.001953125 l 1
 328.983398438 331 l 1
 190 -175.994140625 l 1
 1 -123.994140625 l 1
EndSplineSet
Fore
SplineSet
52.25 -141.494140625 m 1
 368.25 805.001953125 l 1
 444.75 780.501953125 l 1
 128.75 -165.994140625 l 1
 52.25 -141.494140625 l 1
EndSplineSet
Substitution2: "'frac' Diagonal Fractions in Latin lookup 25 subtable" fraction
EndChar

StartChar: d
Encoding: 68 100 5
Width: 672
Flags: W
HStem: -10.0664 79<196.906 372.417> 0 72.1768<549.349 658.38> 428.684 78.25<196.906 370.268> 735.002 20G<463.75 546.748>
VStem: 30 85.875<153.096 342.304> 459.146 50.3545<113.535 409.518> 463.875 82.7949<256.434 755.002>
LayerCount: 2
Back
SplineSet
387.270507812 755.001953125 m 5
 381.840820312 0 l 5
 578.169921875 0 l 5
 573.848632812 604.075195312 l 5
 672 602.071289062 l 5
 668.379882812 755.001953125 l 5
 387.270507812 755.001953125 l 5
EndSplineSet
Fore
SplineSet
453 246.93359375 m 0xb8
 453 358.003432617 387.278410112 428.68359375 284 428.68359375 c 0
 181.255907927 428.68359375 115.875 358.003432617 115.875 246.93359375 c 0
 115.875 138.154820394 181.255907927 68.93359375 284 68.93359375 c 0
 387.278410112 68.93359375 453 138.154820394 453 246.93359375 c 0xb8
509.5 256.43359375 m 0xbc
 509.5 113.534724436 425.773738643 -10.06640625 268 -10.06640625 c 0
 122.554875959 -10.06640625 30 89.8779296875 30 246.93359375 c 0
 30 405.823242188 122.554875959 506.93359375 268 506.93359375 c 0
 415.583795085 506.93359375 509.5 409.517536522 509.5 256.43359375 c 0xbc
459.145507812 0 m 1x7c
 463.875 755.001953125 l 1
 546.669921875 755.001953125 l 1x7a
 549.348632812 72.1767578125 l 1
 662 74.1806640625 l 1
 658.379882812 0 l 1
 459.145507812 0 l 1x7c
EndSplineSet
EndChar

StartChar: p
Encoding: 80 112 6
Width: 662
Flags: W
HStem: -10.0664 79<294.969 465.318> 425.959 71.0518<21.1201 125.776> 428.684 78.25<295.644 465.318>
VStem: 125.776 81.4531<-174 425.959> 158.875 48.3545<93.183 390.289> 546.125 85.875<152.88 345.823>
LayerCount: 2
Fore
SplineSet
215.375 249.93359375 m 0xa4
 215.375 139.321727264 279.200275844 68.93359375 379.5 68.93359375 c 0
 481.327760473 68.93359375 546.125 139.321727264 546.125 249.93359375 c 0
 546.125 359.17084578 481.327760473 428.68359375 379.5 428.68359375 c 0
 279.200275844 428.68359375 215.375 359.17084578 215.375 249.93359375 c 0xa4
158.875 255.43359375 m 0xac
 158.875 390.28911453 240.260958515 506.93359375 393.625 506.93359375 c 0
 539.299480534 506.93359375 632 406.989257812 632 249.93359375 c 0
 632 91.0439453125 539.299480534 -10.06640625 393.625 -10.06640625 c 0
 250.166021806 -10.06640625 158.875 93.1829605941 158.875 255.43359375 c 0xac
207.229492188 497.010742188 m 1xcc
 212.659179688 -174 l 1
 121.455078125 -174 l 1
 125.776367188 425.958984375 l 1xd4
 17.5 423.955078125 l 1
 21.1201171875 497.010742188 l 1
 207.229492188 497.010742188 l 1xcc
EndSplineSet
EndChar

StartChar: t
Encoding: 84 116 7
Width: 426
Flags: W
HStem: 413.75 86.25<208.976 376.875> 422.375 74.625<20.5 337.899>
VStem: 130.83 88.2988<126.298 460.27>
LayerCount: 2
Fore
SplineSet
20.5 497 m 1x60
 173 494.125 l 1
 378.5 500 l 1
 376.875 413.75 l 1xa0
 170 422.375 l 1
 17.5 422.375 l 1
 20.5 497 l 1x60
219.12890625 252 m 0
 219.12890625 134.003420973 237.20943117 86.0563519111 342.284179688 69.8056640625 c 1
 323.1640625 -16 l 1
 165.481897011 25.578125 130.830078125 72 130.830078125 262 c 0
 130.830078125 362.482421875 145.151367188 650.046875 145.151367188 650.046875 c 1
 230.729492188 647.75 l 1
 230.729492188 647.75 219.12890625 385.006560359 219.12890625 252 c 0
EndSplineSet
EndChar

StartChar: l
Encoding: 76 108 8
Width: 387
Flags: W
HStem: 0 73.0225<246.634 366.189> 682.45 72.5518<40.9701 160.646>
VStem: 156.325 90.3088<73.0225 682.45>
LayerCount: 2
Back
SplineSet
105.334960938 140.244140625 m 5
 109.862304688 751.69921875 l 5
 349.01953125 797.84375 l 5
 404.7265625 645.374023438 l 5
 295.80859375 623.6875 l 5
 300.63671875 14.7734375 l 5
 48.3994140625 -44.3125 l 5
 -7.3076171875 108.157226562 l 5
 105.334960938 140.244140625 l 5
EndSplineSet
Fore
SplineSet
246.63390625 73.0224609375 m 1
 369.809179688 74.5556640625 l 1
 366.1890625 0 l 1
 156.325078125 0 l 1
 160.646367188 682.450195312 l 1
 37.35 680.446289062 l 1
 40.9701171875 755.001953125 l 1
 242.234492188 755.001953125 l 1
 246.63390625 73.0224609375 l 1
EndSplineSet
EndChar

StartChar: e
Encoding: 69 101 9
Width: 541
Flags: W
HStem: -23.9004 76.0508<267.23 428.069> 205.5 68.75<103.375 426.625> 429.934 77<190.497 360.291>
VStem: 427 87.3691<238.902 365.119>
LayerCount: 2
Back
SplineSet
145 251.93359375 m 0
 145 118.399011671 234.924400059 91.0845098901 427.2890625 79.900390625 c 1
 411.819335938 -23.900390625 l 1
 195.319904327 -22.2919921875 30 49 30 259 c 0
 30 399.989257812 114.333684792 506.93359375 271 506.93359375 c 0
 466.952995619 506.93359375 517.619140625 377.117081999 517.619140625 261.659179688 c 0
 517.619140625 223.858398438 512 196 512 196 c 1
 130 193 l 1
 115 279 l 1
 404 283 l 1
 404 283 404.043226139 284.065301324 404.043226139 285.999999724 c 0
 404.043226139 306 397.916066056 408.93359375 277 408.93359375 c 0
 172.754005142 408.93359375 145 332.861387567 145 251.93359375 c 0
EndSplineSet
Fore
SplineSet
120.125 251.93359375 m 0
 120.125 101.225126755 229.886852109 59.7628333934 434.6640625 52.150390625 c 1
 428.069335938 -23.900390625 l 1
 193.558971387 -22.2919921875 31.875 49 31.875 259 c 0
 31.875 399.989257812 115.552561726 506.93359375 271 506.93359375 c 0
 464.370684959 506.93359375 514.369140625 381.15276956 514.369140625 269.284179688 c 0
 514.369140625 234.289994705 508.75 208.5 508.75 208.5 c 1
 103.375 205.5 l 1
 88.75 274.25 l 1
 426.625 278.25 l 1
 426.625 278.25 427 283.134179781 427 290.625 c 0
 427 349.863934307 389.545483352 429.93359375 278.375 429.93359375 c 0
 153.398267528 429.93359375 120.125 343.68612432 120.125 251.93359375 c 0
EndSplineSet
Substitution2: "'ss17' Style Set 17 lookup 29-1" e.ss17
Substitution2: "'ss15' Style Set 15 lookup 23-1" e.ss15
Substitution2: "'ss04' Style Set 4 lookup 12-1" e.ss04
EndChar

StartChar: s
Encoding: 83 115 10
Width: 388
Flags: W
HStem: 495.9 20G<280.303 283.315>
VStem: 43.75 86.5566<322.781 401.849> 256.562 87.9766<105.112 189.57>
LayerCount: 2
Fore
SplineSet
280.302734375 515.900390625 m 1
 290.857421875 445.825195312 l 1
 290.857421875 445.825195312 130.306640625 435.452379875 130.306640625 362.625 c 0
 130.306640625 335.713230817 144.021970077 317.499533128 217.298828125 288.736328125 c 0
 306.176093514 253.85692652 344.5390625 214.717417498 344.5390625 149.5 c 0
 344.5390625 -20.3598077793 72.2890625 -23.900390625 72.2890625 -23.900390625 c 1
 62.4443359375 55.525390625 l 1
 62.4443359375 55.525390625 256.5625 60.9955280672 256.5625 147.625 c 0
 256.5625 181.164233824 232.632213428 200.845239027 160.036132812 229.200195312 c 0
 72.4413844385 263.407440172 43.75 298.736979766 43.75 355.75 c 0
 43.75 511.827510338 280.302734375 515.900390625 280.302734375 515.900390625 c 1
EndSplineSet
EndChar

StartChar: b
Encoding: 66 98 11
Width: 662
Flags: W
HStem: -10.0664 79.375<292.986 465.451> 0 21G<120.33 211.159> 428.684 78.25<295.079 465.451> 682.825 72.1768<21.1201 124.651>
VStem: 124.651 81.0781<260.184 682.825> 158.875 52.2842<115.273 410.976> 546.125 85.875<151.35 344.192>
LayerCount: 2
Fore
SplineSet
215.375 246.93359375 m 0xb2
 215.375 138.383848901 279.200275844 69.30859375 379.5 69.30859375 c 0
 481.327760473 69.30859375 546.125 138.383848901 546.125 246.93359375 c 0
 546.125 358.0037967 481.327760473 428.68359375 379.5 428.68359375 c 0
 279.200275844 428.68359375 215.375 358.0037967 215.375 246.93359375 c 0xb2
158.875 260.18359375 m 0xb6
 158.875 410.976252049 250.311854109 506.93359375 394 506.93359375 c 0
 539.4453125 506.93359375 632 405.823242188 632 246.93359375 c 0
 632 89.8779296875 539.4453125 -10.06640625 394 -10.06640625 c 0
 240.390968033 -10.06640625 158.875 115.273474032 158.875 260.18359375 c 0xb6
205.729492188 755.001953125 m 1x7a
 211.159179688 0 l 1x76
 120.330078125 0 l 1
 124.651367188 682.825195312 l 1
 17.5 680.821289062 l 1
 21.1201171875 755.001953125 l 1
 205.729492188 755.001953125 l 1x7a
EndSplineSet
EndChar

StartChar: grave
Encoding: 64 96 12
Width: 230
Flags: W
HStem: 526.72 213.784
VStem: 11 208.518
LayerCount: 2
Fore
SplineSet
65.4267578125 740.50390625 m 1
 219.517578125 564.965820312 l 1
 183.580078125 526.719726562 l 1
 11 685.43359375 l 1
 65.4267578125 740.50390625 l 1
EndSplineSet
EndChar

StartChar: q
Encoding: 81 113 13
Width: 682
Flags: W
HStem: -173.994 72.1768<549.349 658.38> -10.0664 79<196.906 372.417> 428.684 78.25<196.906 370.268> 476.934 20G<463.734 546.759>
VStem: 30 85.875<153.096 342.304> 463.875 82.7949<-101.817 496.934> 463.875 45.625<110.16 409.518>
LayerCount: 2
Fore
SplineSet
453 246.93359375 m 0xe8
 453 358.003432617 387.278410112 428.68359375 284 428.68359375 c 0
 181.255907927 428.68359375 115.875 358.003432617 115.875 246.93359375 c 0
 115.875 138.154820394 181.255907927 68.93359375 284 68.93359375 c 0
 387.278410112 68.93359375 453 138.154820394 453 246.93359375 c 0xe8
509.5 256.43359375 m 0xea
 509.5 110.159724436 425.773738643 -10.06640625 268 -10.06640625 c 0
 122.554875959 -10.06640625 30 89.8779296875 30 246.93359375 c 0
 30 405.823242188 122.554875959 506.93359375 268 506.93359375 c 0
 415.583795085 506.93359375 509.5 409.517536522 509.5 256.43359375 c 0xea
459.145507812 -173.994140625 m 1
 463.875 496.93359375 l 1
 546.669921875 496.93359375 l 1xdc
 549.348632812 -101.817382812 l 1
 662 -99.8134765623 l 1
 658.379882812 -173.994140625 l 1
 459.145507812 -173.994140625 l 1
EndSplineSet
EndChar

StartChar: a
Encoding: 65 97 14
Width: 672
Flags: W
HStem: -10.0664 79<196.906 372.417> 0 72.1768<549.349 658.38> 428.684 78.25<196.906 370.268> 477.002 20G<463.685 546.796>
VStem: 30 85.875<153.096 342.304> 463.875 82.7949<256.434 497.002> 463.875 45.625<113.535 409.518>
LayerCount: 2
Back
SplineSet
434 246.93359375 m 0xac
 434 342.267265625 377.222768499 402.93359375 288 402.93359375 c 0
 200.610229493 402.93359375 145 342.267265625 145 246.93359375 c 0
 145 153.432738 200.610229493 93.93359375 288 93.93359375 c 0
 377.222768499 93.93359375 434 153.432738 434 246.93359375 c 0xac
505 263.93359375 m 0xa9
 505 117.013180272 422.833855314 -10.06640625 268 -10.06640625 c 0
 122.554875959 -10.06640625 30 89.8779296875 30 246.93359375 c 0
 30 405.823242188 122.554875959 506.93359375 268 506.93359375 c 0
 412.833786481 506.93359375 505 412.434184942 505 263.93359375 c 0xa9
442.270507812 0 m 1x5c
 447 497.001953125 l 1
 554.169921875 497.001953125 l 1x5a
 556.848632812 90.9267578125 l 1
 662 92.9306640625 l 1
 658.379882812 0 l 1
 442.270507812 0 l 1x5c
EndSplineSet
Fore
SplineSet
453 246.93359375 m 0xa8
 453 358.003432617 387.278410112 428.68359375 284 428.68359375 c 0
 181.255907927 428.68359375 115.875 358.003432617 115.875 246.93359375 c 0
 115.875 138.154820394 181.255907927 68.93359375 284 68.93359375 c 0
 387.278410112 68.93359375 453 138.154820394 453 246.93359375 c 0xa8
509.5 256.43359375 m 0xaa
 509.5 113.534724436 425.773738643 -10.06640625 268 -10.06640625 c 0
 122.554875959 -10.06640625 30 89.8779296875 30 246.93359375 c 0
 30 405.823242188 122.554875959 506.93359375 268 506.93359375 c 0
 415.583795085 506.93359375 509.5 409.517536522 509.5 256.43359375 c 0xaa
459.145507812 0 m 1x5c
 463.875 497.001953125 l 1
 546.669921875 497.001953125 l 1
 549.348632812 72.1767578125 l 1
 662 74.1806640625 l 1
 658.379882812 0 l 1
 459.145507812 0 l 1x5c
EndSplineSet
Substitution2: "'ss03' Style Set 3 lookup 11-1" a.ss03
EndChar

StartChar: h
Encoding: 72 104 15
Width: 639
Flags: W
HStem: 0 21G<143.955 233.659> 428.934 78<301.185 450.773> 682.825 72.1768<21.1201 148.276>
VStem: 143.955 89.7041<0 682.825> 500.25 86.5<17.9944 372.804>
LayerCount: 2
Fore
SplineSet
174.25 272.68359375 m 1
 194.963378906 410.025646345 260.291666667 506.93359375 395.5 506.93359375 c 0
 521.510648287 506.93359375 586.75 429.158203125 586.75 278.93359375 c 0
 586.75 134.376953125 568.909179688 -15 568.909179688 -15 c 1
 480.080078125 -3.75 l 1
 480.080078125 -3.75 500.25 140.703086767 500.25 259.43359375 c 0
 500.25 367.022122897 468.315667109 428.93359375 377.75 428.93359375 c 0
 285.23662421 428.93359375 235.791935048 365.588947717 221 235.68359375 c 1
 174.25 272.68359375 l 1
228.229492188 755.001953125 m 1
 233.659179688 0 l 1
 143.955078125 0 l 1
 148.276367188 682.825195312 l 1
 17.5 680.821289062 l 1
 21.1201171875 755.001953125 l 1
 228.229492188 755.001953125 l 1
EndSplineSet
EndChar

StartChar: n
Encoding: 78 110 16
Width: 633
Flags: W
HStem: 0 21G<141.455 232.659> 425.95 71.0518<21.1201 145.776> 428.934 78<298.685 448.273>
VStem: 141.455 91.2041<0 272.684> 497.75 86.5<17.9944 372.804>
LayerCount: 2
Fore
SplineSet
171.75 272.68359375 m 1xb8
 192.463378906 409.998966503 257.791666666 506.93359375 393 506.93359375 c 0
 519.010648287 506.93359375 584.25 429.158203125 584.25 278.93359375 c 0
 584.25 134.376953125 566.409179688 -15 566.409179688 -15 c 1
 477.580078125 -3.75 l 1
 477.580078125 -3.75 497.75 140.703086767 497.75 259.43359375 c 0
 497.75 367.022122897 465.815667109 428.93359375 375.25 428.93359375 c 0
 282.73662421 428.93359375 233.291935048 365.616275651 218.5 235.68359375 c 1
 171.75 272.68359375 l 1xb8
227.229492188 497.001953125 m 1xd8
 232.659179688 0 l 1
 141.455078125 0 l 1
 145.776367188 425.950195312 l 1
 17.5 423.946289062 l 1
 21.1201171875 497.001953125 l 1
 227.229492188 497.001953125 l 1xd8
EndSplineSet
EndChar

StartChar: I
Encoding: 41 73 17
Width: 468
Flags: W
HStem: 0 81.5<41.458 178.084 282.21 427.787> 640.58 90.4307<46.248 181.279 279.135 418.357>
VStem: 178.084 104.126<81.5 641.5>
LayerCount: 2
Back
SplineSet
339.857421875 731.010742188 m 5
 345.287109375 0 l 5
 128.958007812 0 l 5
 133.279296875 560.083984375 l 5
 15.1279296875 558.080078125 l 5
 18.748046875 731.010742188 l 5
 339.857421875 731.010742188 l 5
EndSplineSet
Fore
SplineSet
418.357421875 731.010742188 m 1
 424.627929688 638.5 l 1
 279.134765625 641.5 l 1
 282.209960938 81.5 l 1
 430.76953125 85.5 l 1
 427.787109375 0 l 1
 41.4580078125 0 l 1
 37.5 83.5 l 1
 178.083984375 81.5 l 1
 181.279296875 642.583984375 l 1
 42.6279296875 640.580078125 l 1
 46.248046875 731.010742188 l 1
 418.357421875 731.010742188 l 1
EndSplineSet
EndChar

StartChar: c
Encoding: 67 99 18
Width: 471
Flags: W
HStem: -10.0664 81.25<203.648 411.311> 427.684 79.25<202.201 386.204>
VStem: 31.875 89<153.322 343.527>
LayerCount: 2
Back
SplineSet
20 249.93359375 m 0
 20 406.989257812 127.722105271 506.93359375 297 506.93359375 c 0
 415.535915516 506.93359375 465.916992188 450.782226562 465.916992188 450.782226562 c 1
 409.647460938 308.369140625 l 1
 409.647460938 308.369140625 373.776884975 346.93359375 318 346.93359375 c 4
 252.610710758 346.93359375 211 309.211914062 211 249.93359375 c 0
 211 180.822265625 247.426625003 154.52486356 323.040039062 139.244140625 c 0
 407.435563152 122.917258333 455.553710938 87 455.553710938 1.279296875 c 0
 455.553710938 -81.1748046875 404 -147 404 -147 c 1
 280 -97 l 1
 280 -97 295.76171875 -74 295.76171875 -54 c 0
 295.76171875 -29.5654296875 282.579369985 -17.3599949932 223.834960938 -5.6943359375 c 0
 112.853515625 16.3447265625 20 91.0439453125 20 249.93359375 c 0
EndSplineSet
Fore
SplineSet
31.875 249.93359375 m 0
 31.875 406.989257812 133.034612396 506.93359375 292 506.93359375 c 0
 400.009806154 506.93359375 445.916992188 460.782226562 445.916992188 460.782226562 c 1
 415.272460938 389.619140625 l 1
 415.272460938 389.619140625 366.534696155 427.68359375 290.75 427.68359375 c 0
 186.936864393 427.68359375 120.875 358.267925459 120.875 249.18359375 c 0
 120.875 140.405429688 181.182336425 71.18359375 299.125 71.18359375 c 0
 390.079421671 71.18359375 436.1484375 106.614257812 436.1484375 106.614257812 c 1
 455.146484375 29.31640625 l 1
 455.146484375 29.31640625 414.159810979 -10.06640625 287 -10.06640625 c 0
 131.090170063 -10.06640625 31.875 91.0439453125 31.875 249.93359375 c 0
EndSplineSet
EndChar

StartChar: equal
Encoding: 29 61 19
Width: 450
Flags: W
HStem: 206.375 78.25<146.2 411.5> 216.375 71.25<33.5 297.8> 382.375 71.25<35.5 415.5>
LayerCount: 2
Fore
SplineSet
33.5 287.625 m 1x60
 412.5 284.625 l 1
 411.5 206.375 l 1xa0
 32.5 216.375 l 1
 33.5 287.625 l 1x60
35.5 453.625 m 1
 416.5 458.625 l 1
 415.5 376.375 l 1
 34.5 382.375 l 1
 35.5 453.625 l 1
EndSplineSet
EndChar

StartChar: k
Encoding: 75 107 20
Width: 593
Flags: W
HStem: 0 21G<142.83 233.659> 494 20G<463.786 506.757> 682.825 72.1768<21.1201 147.151>
VStem: 142.83 90.8291<0 682.825>
LayerCount: 2
Fore
SplineSet
486.625 514 m 1
 544 457 l 1
 305.125 254.625 l 1
 563 50.875 l 1
 504.75 -17 l 1
 192 256 l 1
 486.625 514 l 1
228.229492188 755.001953125 m 1
 233.659179688 0 l 1
 142.830078125 0 l 1
 147.151367188 682.825195312 l 1
 17.5 680.821289062 l 1
 21.1201171875 755.001953125 l 1
 228.229492188 755.001953125 l 1
EndSplineSet
Substitution2: "'ss06' Style Set 6 lookup 14-1" k.ss06
EndChar

StartChar: m
Encoding: 77 109 21
Width: 938
Flags: W
HStem: 0 21G<141.455 232.659> 425.95 71.0518<21.1201 145.776> 428.934 78<300.025 438.058 627.082 762.677>
VStem: 141.455 91.2041<0 425.95> 477 87.25<47.5811 408.457> 802 87.25<46.6836 386.631>
LayerCount: 2
Fore
SplineSet
502.75 261.43359375 m 1xbc
 521.256455078 414.803813225 597.196542969 506.93359375 718 506.93359375 c 0
 830.832917132 506.93359375 889.25 439.391601562 889.25 308.93359375 c 0
 889.25 149.623046875 871.409179688 -15 871.409179688 -15 c 1
 781.455078125 -3 l 1
 781.455078125 -3 802 157.507247656 802 289.43359375 c 0
 802 377.979073661 773.649650805 428.93359375 693.25 428.93359375 c 0
 624.145321446 428.93359375 566.602531607 372.479841143 547.25 228.18359375 c 1
 502.75 261.43359375 l 1xbc
175.5 268.93359375 m 1
 193.340513717 417.618368638 266.546091478 506.93359375 383 506.93359375 c 0
 498.671782623 506.93359375 564.25 439.391601562 564.25 308.93359375 c 0
 564.25 154.541015625 551.409179688 -5 551.409179688 -5 c 1
 464.580078125 0 l 1
 464.580078125 0 477 158.1741744 477 288.18359375 c 0
 477 377.522115773 448.649650805 428.93359375 368.25 428.93359375 c 0
 297.370372511 428.93359375 238.349600056 373.53439443 218.5 231.93359375 c 1
 175.5 268.93359375 l 1
227.229492188 497.001953125 m 1xdc
 232.659179688 0 l 1
 141.455078125 0 l 1
 145.776367188 425.950195312 l 1
 17.5 423.946289062 l 1
 21.1201171875 497.001953125 l 1
 227.229492188 497.001953125 l 1xdc
EndSplineSet
EndChar

StartChar: hyphen
Encoding: 13 45 23
Width: 380
Flags: W
HStem: 216.25 89.5<70.5 347> 224.25 80.5<33 307.5>
VStem: 33 316
LayerCount: 2
Fore
SplineSet
33 304.75 m 1x60
 349 305.75 l 1
 347 216.25 l 1xa0
 31 224.25 l 1
 33 304.75 l 1x60
EndSplineSet
EndChar

StartChar: three
Encoding: 19 51 24
Width: 581
Flags: W
HStem: -10.0664 85.5<107.447 365.174> 344.867 70.1328<282.875 377.957> 642.508 88.5<57.5 377.098>
VStem: 437.542 94.875<140.181 289.299>
LayerCount: 2
Fore
SplineSet
282.875 415 m 1
 293.952038138 415 313.95662991 418.495322978 344.374998334 416.374668352 c 0
 449.362260325 406.023868395 532.416992188 339.996949619 532.416992188 216.4921875 c 0
 532.416992188 68.0613781121 429.16709051 -10.06640625 266.916992188 -10.06640625 c 0
 104.522516908 -10.06640625 35.5 34.0849609375 35.5 34.0849609375 c 1
 62.625 114 l 1
 62.625 114 139.223185923 75.43359375 245.916992188 75.43359375 c 0
 380.945028865 75.43359375 437.541992188 128.906556408 437.541992188 219.4921875 c 0
 437.541992188 293.752764423 382.872422927 344.8671875 282.541992188 344.8671875 c 0
 199.452841589 344.8671875 155.2578125 315.93359375 155.2578125 315.93359375 c 1
 129 368.25 l 1
 377.09765625 642.5078125 l 1
 50.5 640.5078125 l 1
 57.5 731.0078125 l 1
 501.516601562 731.0078125 l 1
 511.516601562 670.0078125 l 1
 282.875 415 l 1
EndSplineSet
Substitution2: "'onum' Oldstyle Figures lookup 27-1" three.osf
Substitution2: "'ss01' Style Set 1 lookup 9-1" three.ss01
Substitution2: "'frac' Diagonal Fractions in Latin lookup 26 subtable" three.numr
Substitution2: "'dnom' Denominators lookup 0 subtable" three.dnom
Substitution2: "'numr' Numerators lookup 0 subtable" three.numr
Substitution2: "'sinf' Scientific Inferiors lookup 0 subtable" three.inferior
Substitution2: "'sups' Superscript lookup 0 subtable" three.superior
EndChar

StartChar: eight
Encoding: 24 56 25
Width: 608
Flags: W
HStem: -10.0078 88.4893<204.556 402.144> 656.156 82.8359<218.851 395.933>
VStem: 47.5 91.6855<136.72 272.005> 77.9287 92.4961<485.89 610.816> 447.348 85.3096<476.277 606.507> 464.693 96.7354<131.011 260.981>
LayerCount: 2
Fore
SplineSet
300.250976562 78.4814453122 m 0xe4
 402.224282242 78.4814453122 464.693359375 122.493117305 464.693359375 194.336914062 c 0xe4
 464.693359375 259.744075043 421.539467348 305.549025688 285.001953125 345.728515625 c 0
 145.979989406 386.759039336 77.9287109375 448.388691888 77.9287109375 543.5 c 0
 77.9287109375 663.001098802 167.575373678 738.9921875 308.55078125 738.9921875 c 0
 445.886026303 738.9921875 532.657226562 670.248786094 532.657226562 546.236328125 c 0
 532.657226562 392.809454973 347.586547852 341.605712891 347.586547852 341.605712891 c 1
 304.736938476 385.115478516 l 1
 304.736938476 385.115478516 447.34765625 440.336831887 447.34765625 538.307617188 c 0
 447.34765625 611.592830542 394.6656169 656.15625 308.02734375 656.15625 c 0
 223.164238462 656.15625 170.424804688 614.177496113 170.424804688 546.629882812 c 0xd8
 170.424804688 490.203907153 202.991914216 458.459628344 325.745117188 419.83984375 c 0
 494.379365474 367.073273321 561.428710938 313.241047424 561.428710938 198.879882812 c 0
 561.428710938 68.669172502 465.077625271 -10.0078125 305.616210938 -10.0078125 c 0
 150.598669197 -10.0078125 47.5 72.989208191 47.5 197.782226562 c 0
 47.5 360.099740525 237.602416992 413.252807617 237.602416992 413.252807617 c 1
 283.512573243 365.052612305 l 1
 283.512573243 365.052612305 139.185546875 314.119846803 139.185546875 204.319335938 c 0
 139.185546875 128.117575061 202.717004103 78.4814453122 300.250976562 78.4814453122 c 0xe4
EndSplineSet
Substitution2: "'onum' Oldstyle Figures lookup 27-1" eight.osf
Substitution2: "'frac' Diagonal Fractions in Latin lookup 26 subtable" eight.numr
Substitution2: "'dnom' Denominators lookup 0 subtable" eight.dnom
Substitution2: "'numr' Numerators lookup 0 subtable" eight.numr
Substitution2: "'sinf' Scientific Inferiors lookup 0 subtable" eight.inferior
Substitution2: "'sups' Superscript lookup 0 subtable" eight.superior
EndChar

StartChar: g
Encoding: 71 103 26
Width: 603
Flags: W
HStem: -196.994 77.3057<167.641 299.738> 19.9336 74.625<192.775 361.602> 430.559 76.375<190.233 361.333>
VStem: 30 85.875<172.58 353.545> 449.672 86.3281<-11.8942 497.014>
LayerCount: 2
Back
SplineSet
382.270507812 -173.994140625 m 5
 387 496.93359375 l 5
 574.169921875 496.93359375 l 5xf8
 576.848632812 -23.0673828125 l 5
 672 -21.0634765625 l 5
 668.379882812 -173.994140625 l 5
 382.270507812 -173.994140625 l 5
EndSplineSet
Fore
SplineSet
434.5 262.93359375 m 0
 434.5 365.371457521 372.375597723 430.55859375 274.75 430.55859375 c 0
 177.658742732 430.55859375 115.875 366.149230958 115.875 264.93359375 c 0
 115.875 160.814585264 179.117052946 94.55859375 278.5 94.55859375 c 0
 373.833917026 94.55859375 434.5 160.036818671 434.5 262.93359375 c 0
491 272.93359375 m 0
 491 137.273503932 431.914010875 19.93359375 260 19.93359375 c 0
 119.443787692 19.93359375 30 114.044602687 30 261.93359375 c 0
 30 411.6565317 119.443787692 506.93359375 260 506.93359375 c 0
 401.167108342 506.93359375 491 415.934163046 491 272.93359375 c 0
536 83 m 0
 536 -46.75 495.693025063 -180.994140625 167.640625 -196.994140625 c 1
 157.770507812 -119.688476562 l 1
 403.74440662 -103.983337383 449.671875 -29.6065128269 449.671875 96.9326171875 c 0
 449.671875 281.69371959 444.350585938 496.43359375 444.350585938 496.43359375 c 1
 444.350585938 496.43359375 529.270507812 498.30859375 529.270507812 497.93359375 c 1
 529.270507812 497.93359375 536 247 536 83 c 0
EndSplineSet
Substitution2: "'ss05' Style Set 5 lookup 13-1" g.ss05
EndChar

StartChar: u
Encoding: 85 117 27
Width: 633
Flags: W
HStem: -9.93164 78<188.537 341.435> 0 71.0518<500.349 611.88> 477.002 20G<73.3408 159.17 416.56 497.796>
VStem: 52.5 86.5<123.207 485.009> 416.75 80.9199<198.068 497.002>
LayerCount: 2
Fore
SplineSet
412.020507812 0 m 1x78
 416.75 497.001953125 l 1
 497.669921875 497.001953125 l 1
 500.348632812 71.0517578125 l 1
 615.5 73.0556640625 l 1
 611.879882812 0 l 1
 412.020507812 0 l 1x78
468.75 198.068359375 m 1
 446.888130252 101.739463635 389.491397634 -9.931640625 241.875 -9.931640625 c 0
 121.473617554 -9.931640625 52.5 65.4719594537 52.5 228.5 c 0
 52.5 357.087716131 73.3408203125 509.001953125 73.3408203125 509.001953125 c 1
 159.169921875 501.876953125 l 1
 159.169921875 501.876953125 139 356.806793382 139 237.568359375 c 0
 139 129.979435411 170.933982961 68.068359375 261.5 68.068359375 c 0xb8
 357.945602248 68.068359375 405.615384614 125.888975293 425.75 235.068359375 c 1
 468.75 198.068359375 l 1
EndSplineSet
EndChar

StartChar: exclam
Encoding: 1 33 28
Width: 256
Flags: W
HStem: -10 121<79.3051 176.695> 711 20G<76 180>
VStem: 67.5 121<1.80514 99.1949> 76 104<482.443 731>
LayerCount: 2
Fore
SplineSet
76 731 m 1xd0
 180 731 l 1
 164.75 189.5 l 1
 164.75 189.5 154.27739726 194.009765625 130 194.009765625 c 0
 104.009615384 194.009765625 90.25 188.25 90.25 188.25 c 1
 76 731 l 1xd0
67.5 50.5 m 0xe0
 67.5 87.4724609379 91.0275390626 111 128 111 c 0
 164.972460937 111 188.5 87.4724609379 188.5 50.5 c 0
 188.5 13.5275390625 164.972460937 -10 128 -10 c 0
 91.0275390626 -10 67.5 13.5275390625 67.5 50.5 c 0xe0
EndSplineSet
Substitution2: "'ss16' Style Set 16 lookup 26-1" exclam.ss16
EndChar

StartChar: r
Encoding: 82 114 29
Width: 478
Flags: W
HStem: 0 21G<141.455 232.659> 425.95 71.0518<21.1201 145.776> 496.934 20G<386.57 429.494>
VStem: 141.455 91.2041<0 315.857 379.572 425.95>
LayerCount: 2
Fore
SplineSet
418.25 516.93359375 m 1xb0
 460.068359375 442.551757812 l 1
 216.462890625 315.857421875 l 1
 200.669921875 379.572265625 l 1
 418.25 516.93359375 l 1xb0
227.229492188 497.001953125 m 1xd0
 232.659179688 0 l 1
 141.455078125 0 l 1
 145.776367188 425.950195312 l 1
 17.5 423.946289062 l 1
 21.1201171875 497.001953125 l 1
 227.229492188 497.001953125 l 1xd0
EndSplineSet
Substitution2: "'ss07' Style Set 7 lookup 15-1" r.ss07
EndChar

StartChar: f
Encoding: 70 102 30
Width: 433
Flags: W
HStem: 0 21G<146.835 237.387> 416.5 83.5<231.111 385.5> 422.375 74.625<37.5 317.926> 718.499 79.3447<286.567 335.839>
VStem: 122.369 88.4082<497.191 657.264> 149.494 83.8936<0 543.51>
LayerCount: 2
Fore
SplineSet
37.5 497 m 1xb0
 190 494.125 l 1
 387.5 500 l 1
 385.5 416.5 l 1xd0
 187 425.5 l 1
 34.5 422.375 l 1
 37.5 497 l 1xb0
149.484375 412.096679688 m 2
 149.490869549 413.10685859 149.494140625 414.107770821 149.494140625 415.099609375 c 0x94
 149.494140625 502.910348249 122.369140625 525.527902678 122.369140625 595 c 0
 122.369140625 717.364313898 199.253240766 769.926056109 334.51953125 797.84375 c 1
 349.4765625 718.499023438 l 1
 248.559676577 696.006413454 210.77734375 657.505725437 210.77734375 585.125 c 0x98
 210.77734375 536.158258587 232.519622216 490.427968755 233.387695312 399.96484375 c 2x94
 237.38671875 0 l 1
 146.834960938 0 l 1
 149.484375 412.096679688 l 2
EndSplineSet
EndChar

StartChar: one
Encoding: 17 49 32
Width: 352
Flags: W
HStem: 0 21G<186.58 284.784> 648.584 82.4268<44.4951 190.901>
VStem: 186.58 98.2041<0 648.584>
LayerCount: 2
Fore
SplineSet
279.354492188 731.010742188 m 1
 284.784179688 0 l 1
 186.580078125 0 l 1
 190.901367188 648.583984375 l 1
 40.875 646.580078125 l 1
 44.4951171875 731.010742188 l 1
 279.354492188 731.010742188 l 1
EndSplineSet
Substitution2: "'onum' Oldstyle Figures lookup 27-1" one.osf
Substitution2: "'frac' Diagonal Fractions in Latin lookup 26 subtable" one.numr
Substitution2: "'dnom' Denominators lookup 0 subtable" one.dnom
Substitution2: "'numr' Numerators lookup 0 subtable" one.numr
Substitution2: "'sinf' Scientific Inferiors lookup 0 subtable" one.inferior
Substitution2: "'sups' Superscript lookup 0 subtable" one.superior
EndChar

StartChar: zero
Encoding: 16 48 33
Width: 675
Flags: W
HStem: -10.0664 90.7256<247.868 426.309> 648.208 90.7256<247.868 426.309>
VStem: 31.5 92.7373<225.87 499.999> 550.763 92.7373<225.87 499.999>
LayerCount: 2
Fore
SplineSet
124.237304688 361.704101562 m 0
 124.237304688 189.954106079 206.860064977 80.6591796878 336.697265625 80.6591796878 c 0
 467.515583898 80.6591796878 550.762695312 189.954106079 550.762695312 361.704101562 c 0
 550.762695312 536.790834123 467.515583898 648.208007812 336.697265625 648.208007812 c 0
 206.860064977 648.208007812 124.237304688 536.790834123 124.237304688 361.704101562 c 0
31.5 361.93359375 m 0
 31.5 592.322641811 150.305426571 738.93359375 337 738.93359375 c 0
 524.30594227 738.93359375 643.5 592.322641811 643.5 361.93359375 c 0
 643.5 134.599173678 524.30594227 -10.06640625 337 -10.06640625 c 0
 150.305426571 -10.06640625 31.5 134.599173678 31.5 361.93359375 c 0
EndSplineSet
Substitution2: "'onum' Oldstyle Figures lookup 27-1" zero.osf
Substitution2: "'frac' Diagonal Fractions in Latin lookup 26 subtable" zero.numr
Substitution2: "'dnom' Denominators lookup 0 subtable" zero.dnom
Substitution2: "'numr' Numerators lookup 0 subtable" zero.numr
Substitution2: "'sinf' Scientific Inferiors lookup 0 subtable" zero.inferior
Substitution2: "'sups' Superscript lookup 0 subtable" zero.superior
EndChar

StartChar: uni0237
Encoding: 424 567 35
Width: 310
Flags: W
HStem: 425.561 71.4493<20.9701 145.424>
VStem: 142.205 90.6041<16.325 425.561>
LayerCount: 2
Fore
SplineSet
227.379492188 497.010742188 m 1
 232.809179688 0 l 1
 101.65 -184 l 1
 25.7 -132.7 l 1
 142.205078125 16.325 l 1
 145.423867188 425.561484375 l 1
 17.35 423.557578125 l 1
 20.9701171875 497.010742188 l 1
 227.379492188 497.010742188 l 1
EndSplineSet
EndChar

StartChar: y
Encoding: 89 121 36
Width: 593
Flags: W
HStem: 491 20G<16.9149 193.949 473.705 543.453>
LayerCount: 2
Fore
SplineSet
335.139321438 76.4732925 m 1
 318.72872 13.08512 l 1
 271.004564688 13.08512 l 1
 124.991783188 430.090384 l 1
 22.5778024375 420.398896 l 1
 16.91488 497 l 1
 187.137323 511 l 1
 335.139321438 76.4732925 l 1
305.570970938 37.31856375 m 2
 481.117032875 511 l 1
 565.535315312 483.91488 l 1
 394.758387875 38.1619820468 l 2
 335.96201823 -116.212381306 248.62768 -218.08512 248.62768 -218.08512 c 1
 179.37232 -170.217532625 l 1
 179.37232 -170.217532625 261.987587151 -80.0437911967 305.570970938 37.31856375 c 2
EndSplineSet
Substitution2: "'ss08' Style Set 8 lookup 16-1" y.ss08
EndChar

StartChar: x
Encoding: 88 120 37
Width: 562
Flags: W
HStem: 494 20G<96.687 192.936 441.979 486.217>
LayerCount: 2
Fore
SplineSet
455.710010688 514 m 1
 532.236650688 463.82976 l 1
 368.284538688 251 l 1
 547.236650688 35.553216 l 1
 474.672778688 -17 l 1
 275.140874688 251 l 1
 455.710010688 514 l 1
137.490924812 428.037567875 m 1
 33.78963475 401.79708825 l 1
 16.91488 474.8359375 l 1
 179.938794688 514 l 1
 350.853674688 251 l 1
 148.901562688 -17 l 1
 75.3004586875 35.207472 l 1
 257.710010688 251 l 1
 137.490924812 428.037567875 l 1
EndSplineSet
EndChar

StartChar: S
Encoding: 51 83 38
Width: 487
Flags: W
HStem: 718.393 20G<364.69 367.003>
VStem: 43.75 101.144<476.084 580.939> 340.871 102.715<158.605 272.064>
LayerCount: 2
Fore
SplineSet
364.690429688 738.392578125 m 1
 374.541015625 653.217773438 l 1
 374.541015625 653.217773438 144.893554688 637.702359987 144.893554688 529.55859375 c 0
 144.893554688 482.268289127 173.981432931 453.926167279 301.284179688 395.275390625 c 0
 405.898395147 347.062300499 443.5859375 301.874436078 443.5859375 219.794921875 c 0
 443.5859375 -14.6863985093 86.4423828125 -19.8779296875 86.4423828125 -19.8779296875 c 1
 77.470703125 70.4326171875 l 1
 77.470703125 70.4326171875 340.87109375 84.8801694165 340.87109375 214.75 c 0
 340.87109375 260.376246647 321.941717283 290.720804372 206.401367188 338.280273438 c 0
 81.5664556866 389.646144596 43.75 447.083990269 43.75 517.30859375 c 0
 43.75 732.797675325 364.690429688 738.392578125 364.690429688 738.392578125 c 1
EndSplineSet
EndChar

StartChar: v
Encoding: 86 118 39
Width: 593
Flags: W
HStem: 0 21G<264.215 388.414> 491 20G<16.9149 193.747 473.855 543.453>
LayerCount: 2
Fore
SplineSet
380.777661875 0 m 1
 271.004564688 0 l 1
 124.991783188 430.090384 l 1
 22.5778024375 420.398896 l 1
 16.91488 497 l 1
 187.137323 511 l 1
 327.213785438 87.1647805 l 1
 481.117032875 511 l 1
 565.535315312 483.91488 l 1
 380.777661875 0 l 1
EndSplineSet
EndChar

StartChar: w
Encoding: 87 119 40
Width: 862
Flags: W
HStem: 0 21G<268.582 382.628 567.534 679.38> 491 20G<16.9149 193.935 468.564 540.459 754.089 820.353>
LayerCount: 2
Fore
SplineSet
374.889357875 0 m 1
 275.584356688 0 l 1
 124.991783188 430.090384 l 1
 22.5778024375 420.398896 l 1
 16.91488 497 l 1
 187.137323 511 l 1
 328.522297438 95.0158525 l 1
 475.462776875 521 l 1
 565.732131312 493.223392 l 1
 374.889357875 0 l 1
672.086173875 0 m 1
 575.398196688 0 l 1
 441.066247188 341.62768 l 1
 501.17024 430.180896 l 1
 625.719113438 98.9413885 l 1
 760.808520875 501 l 1
 844.535315312 472.877648 l 1
 672.086173875 0 l 1
EndSplineSet
EndChar

StartChar: six
Encoding: 22 54 41
Width: 619
Flags: W
HStem: -10 85.6084<229.07 403.37> 404.509 79.2178<226.439 403.857> 659.033 89.959<373.125 489.084>
VStem: 47.5 104<160.257 396.137> 478.5 92.3164<151.816 330.222>
LayerCount: 2
Back
SplineSet
498.310546875 748.9921875 m 1
 512 637.533203125 l 1
 175.065365254 610.146952891 170.458007812 416.932617188 170.458007812 416.932617188 c 1
 170.458007812 416.932617188 215.209080523 483.7265625 336.600585938 483.7265625 c 0
 472.674581172 483.7265625 572.31640625 388.819152798 572.31640625 245.249023438 c 0
 572.31640625 100.798835154 490.925518401 -10 316.310546875 -10 c 0
 170.896357089 -10 45 80.6409024463 45 300.348632812 c 4
 45 516.020480109 153.586977651 728.185507446 498.310546875 748.9921875 c 1
176.375 242.858398438 m 0
 176.375 154.857510653 229.905346038 98.8583984375 314.025390625 98.8583984375 c 0
 398.725511696 98.8583984375 452.625 154.857510653 452.625 242.858398438 c 0
 452.625 329.728081597 398.725511696 385.008789062 314.025390625 385.008789062 c 0
 229.905346038 385.008789062 176.375 329.728081597 176.375 242.858398438 c 0
EndSplineSet
Fore
SplineSet
488.310546875 748.9921875 m 1
 498.25 659.033203125 l 1
 156.583082494 641.385660362 147.958007812 401.932617188 147.958007812 401.932617188 c 1
 147.958007812 401.932617188 195.529209333 483.7265625 337.100585938 483.7265625 c 0
 472.147840254 483.7265625 570.81640625 387.923715548 570.81640625 242.999023438 c 0
 570.81640625 109.734002954 499.961694384 -10 316.310546875 -10 c 0
 155.332409186 -10 47.5 92.3932717407 47.5 306.348632812 c 0
 47.5 519.13616121 153.092700924 728.463768616 488.310546875 748.9921875 c 1
151.5 240.608398438 m 0
 151.5 139.774047851 215.481664361 75.6083984375 316.025390625 75.6083984375 c 0
 417.56585145 75.6083984375 478.5 139.774047851 478.5 240.608398438 c 0
 478.5 340.769748264 415.31585145 404.508789062 316.025390625 404.508789062 c 0
 215.481664361 404.508789062 151.5 340.769748264 151.5 240.608398438 c 0
EndSplineSet
Substitution2: "'onum' Oldstyle Figures lookup 27-1" six.osf
Substitution2: "'frac' Diagonal Fractions in Latin lookup 26 subtable" six.numr
Substitution2: "'dnom' Denominators lookup 0 subtable" six.dnom
Substitution2: "'numr' Numerators lookup 0 subtable" six.numr
Substitution2: "'sinf' Scientific Inferiors lookup 0 subtable" six.inferior
Substitution2: "'sups' Superscript lookup 0 subtable" six.superior
EndChar

StartChar: z
Encoding: 90 122 42
Width: 461
Flags: W
HStem: 0 79.625<154.794 415.017> 416.5 80.5<46 294.848>
LayerCount: 2
Fore
SplineSet
40 416.5 m 1
 46 497 l 1
 395.391601562 497 l 1
 411.016601562 439.625 l 1
 154.793945312 79.625 l 1
 421.016601562 82.25 l 1
 415.016601562 0 l 1
 47.25 0 l 1
 32 52.625 l 1
 294.84765625 418.75 l 1
 40 416.5 l 1
EndSplineSet
EndChar

StartChar: O
Encoding: 47 79 43
Width: 785
Flags: W
HStem: -10.0664 93.1006<282.753 495.136> 645.833 93.1006<285.57 492.187>
VStem: 42.25 94.9873<241.36 484.266> 647.763 94.9873<241.36 484.266>
LayerCount: 2
Back
SplineSet
295.487304688 361.704101562 m 0
 295.487304688 247.780273438 320.957605563 175.284179688 376.697265625 175.284179688 c 0
 439.529183996 175.284179688 469.512695312 247.780273438 469.512695312 361.704101562 c 0
 469.512695312 478.963867188 439.529183996 553.583007812 376.697265625 553.583007812 c 0
 320.957605563 553.583007812 295.487304688 478.963867188 295.487304688 361.704101562 c 0
90 361.93359375 m 0
 90 592.322265625 195.499874605 738.93359375 377 738.93359375 c 0
 565.222610829 738.93359375 675 592.322265625 675 361.93359375 c 0
 675 134.599609375 565.222610829 -10.06640625 377 -10.06640625 c 0
 195.499874605 -10.06640625 90 134.599609375 90 361.93359375 c 0
EndSplineSet
Fore
SplineSet
137.237304688 361.704101562 m 0
 137.237304688 190.376142392 239.668527609 83.0341796878 386.697265625 83.0341796878 c 0
 540.99216968 83.0341796878 647.762695312 190.376142392 647.762695312 361.704101562 c 0
 647.762695312 536.356181957 540.99216968 645.833007812 386.697265625 645.833007812 c 0
 239.668527609 645.833007812 137.237304688 536.356181957 137.237304688 361.704101562 c 0
42.25 361.93359375 m 0
 42.25 592.322641811 176.319298889 738.93359375 387 738.93359375 c 0
 604.403226631 738.93359375 742.75 592.322641811 742.75 361.93359375 c 0
 742.75 134.599173678 604.403226631 -10.06640625 387 -10.06640625 c 0
 176.319298889 -10.06640625 42.25 134.599173678 42.25 361.93359375 c 0
EndSplineSet
EndChar

StartChar: L
Encoding: 44 76 44
Width: 620
Flags: W
HStem: 0 88.793<256.564 589.039> 642.584 88.4258<34.8701 155.651>
VStem: 150.93 105.635<88.793 642.584>
LayerCount: 2
Fore
SplineSet
256.564453125 88.79296875 m 1
 592.659179688 90.4306640622 l 1
 589.0390625 0 l 1
 150.9296875 0 l 1
 155.651367188 642.583984375 l 1
 31.25 640.580078125 l 1
 34.8701171875 731.010742188 l 1
 252.229492188 731.009765625 l 1
 256.564453125 88.79296875 l 1
EndSplineSet
EndChar

StartChar: K
Encoding: 43 75 45
Width: 734
Flags: W
HStem: 0 21G<151.33 257.659> 642.584 88.4268<28.6201 155.651>
VStem: 151.33 106.329<0 642.584>
LayerCount: 2
Fore
SplineSet
252.229492188 731.010742188 m 1
 257.659179688 0 l 1
 151.330078125 0 l 1
 155.651367188 642.583984375 l 1
 25 640.580078125 l 1
 28.6201171875 731.010742188 l 1
 252.229492188 731.010742188 l 1
590.25 745.0078125 m 1
 669.5 677.1328125 l 1
 344.75 359.75 l 1
 694.5 49.25 l 1
 623 -27 l 1
 210.25 359 l 1
 590.25 745.0078125 l 1
EndSplineSet
EndChar

StartChar: J
Encoding: 42 74 46
Width: 370
Flags: W
HStem: 642.584 88.4268<41.1201 190.651>
VStem: 186.33 106.329<52.5 642.584>
LayerCount: 2
Fore
SplineSet
287.229492188 731.010742188 m 1
 292.659179688 30 l 1
 117.5 -187 l 1
 34.25 -126.125 l 1
 186.330078125 52.5 l 1
 190.651367188 642.583984375 l 1
 37.5 640.580078125 l 1
 41.1201171875 731.010742188 l 1
 287.229492188 731.010742188 l 1
EndSplineSet
Substitution2: "'ss12' Style Set 12 lookup 20-1" J.ss12
EndChar

StartChar: H
Encoding: 40 72 47
Width: 780
Flags: W
HStem: 0 21G<151.33 257.659 588.83 695.159> 296.25 89.5<309.551 615.25> 305.375 77.5<220.75 522.449> 642.584 88.4268<41.1201 155.651 478.62 593.151>
VStem: 151.33 106.329<0 305.375 382.875 642.584> 588.83 106.329<0 296.25 385.75 642.584>
LayerCount: 2
Back
SplineSet
252 393 m 1xb6
 608 397 l 1
 604 285 l 1xd6
 248 296 l 1
 252 393 l 1xb6
704.729492188 731.010742188 m 1
 710.159179688 0 l 1
 573.830078125 0 l 1
 578.151367188 620.083984375 l 1
 440 618.080078125 l 5
 443.620117188 731.010742188 l 5
 704.729492188 731.010742188 l 1
294.729492188 731.010742188 m 1
 300.159179688 0 l 1
 163.830078125 0 l 1x9a
 168.151367188 620.083984375 l 1
 30 618.080078125 l 5
 33.6201171875 731.010742188 l 5
 294.729492188 731.010742188 l 1
EndSplineSet
Fore
SplineSet
220.75 382.875 m 1xbc
 619.25 385.75 l 1
 615.25 296.25 l 1xdc
 216.75 305.375 l 1
 220.75 382.875 l 1xbc
689.729492188 731.010742188 m 1
 695.159179688 0 l 1
 588.830078125 0 l 1
 593.151367188 642.583984375 l 1
 475 640.580078125 l 1
 478.620117188 731.010742188 l 1
 689.729492188 731.010742188 l 1
252.229492188 731.010742188 m 1
 257.659179688 0 l 1
 151.330078125 0 l 1
 155.651367188 642.583984375 l 1
 37.5 640.580078125 l 1
 41.1201171875 731.010742188 l 1
 252.229492188 731.010742188 l 1
EndSplineSet
EndChar

StartChar: backslash
Encoding: 60 92 48
Width: 497
Flags: W
LayerCount: 2
Back
SplineSet
506 -123.994140625 m 1
 317 -175.994140625 l 1
 178.016601562 331 l 1
 1 763.001953125 l 1
 190 815.001953125 l 1
 308.362304688 379 l 1
 506 -123.994140625 l 1
EndSplineSet
Fore
SplineSet
444.75 -141.494140625 m 1
 368.25 -165.994140625 l 1
 52.25 780.501953125 l 1
 128.75 805.001953125 l 1
 444.75 -141.494140625 l 1
EndSplineSet
EndChar

StartChar: F
Encoding: 38 70 49
Width: 620
Flags: W
HStem: 0 21G<151.33 257.659> 276.25 89.5<190.315 535.125> 283.5 81.625<182 522.81> 640.58 90.4307<41.1201 155.651 253.604 578.729>
VStem: 178 79.6592<283.5 365.125>
LayerCount: 2
Fore
SplineSet
182 365.125 m 1xb8
 538 365.75 l 1
 535.125 276.25 l 1xd8
 178 283.5 l 1
 182 365.125 l 1xb8
578.729492188 731.010742188 m 1
 584.61328125 636.5 l 1
 253.603515625 640.5 l 1
 257.659179688 0 l 1
 151.330078125 0 l 1
 155.651367188 642.583984375 l 1
 37.5 640.580078125 l 1
 41.1201171875 731.010742188 l 1
 578.729492188 731.010742188 l 1
EndSplineSet
EndChar

StartChar: E
Encoding: 37 69 50
Width: 620
Flags: W
HStem: 0 88.9805<256.518 586.539> 319.25 89.5<190.302 534.75> 326.5 81.625<182 522.448> 640.58 90.4307<41.1201 155.651 253.604 578.729>
VStem: 178 78.5176<326.5 408.125>
LayerCount: 2
Fore
SplineSet
182 408.125 m 1xb8
 538 408.75 l 1
 534.75 319.25 l 1xd8
 178 326.5 l 1
 182 408.125 l 1xb8
578.729492188 731.010742188 m 1
 584.61328125 636.5 l 1
 253.603515625 640.5 l 1
 256.517578125 88.98046875 l 1
 319.064453125 88.79296875 l 1
 590.159179688 90.4306640622 l 1
 586.5390625 0 l 1
 150.9296875 0 l 1
 155.651367188 642.583984375 l 1
 37.5 640.580078125 l 1
 41.1201171875 731.010742188 l 1
 578.729492188 731.010742188 l 1
EndSplineSet
Substitution2: "'ss15' Style Set 15 lookup 23-1" E.ss15
EndChar

StartChar: N
Encoding: 46 78 51
Width: 790
Flags: W
HStem: -10 21G<602.916 713.039> 0 21G<162.71 260.164> 711.011 20G<619.49 707.758>
VStem: 162.71 97.4541<0 560.668> 615.776 97.2627<162.514 731.011>
LayerCount: 2
Fore
SplineSet
707.609375 731.010742188 m 1x78
 713.0390625 0 l 1x78
 615.459960938 -10 l 1xb8
 257.55078125 560.66796875 l 1
 260.1640625 0 l 1
 162.709960938 0 l 1
 167.03125 647.708984375 l 1
 41.8798828125 640.580078125 l 1
 37.5 731.010742188 l 1
 269.859375 741.010742188 l 1
 615.776367188 162.513671875 l 1
 619.625 731.010742188 l 1
 707.609375 731.010742188 l 1x78
EndSplineSet
EndChar

StartChar: bar
Encoding: 92 124 52
Width: 246
Flags: W
VStem: 81.25 83.8291<-170 788.992>
LayerCount: 2
Back
SplineSet
220.899414062 788.9921875 m 1
 193.418945312 334 l 1
 226.329101562 -170 l 1
 30 -170 l 1
 63.3330078125 338 l 1
 36.169921875 788.9921875 l 1
 220.899414062 788.9921875 l 1
EndSplineSet
Fore
SplineSet
160.399414062 788.9921875 m 1
 165.079101562 -170 l 1
 81.25 -170 l 1
 86.669921875 788.9921875 l 1
 160.399414062 788.9921875 l 1
EndSplineSet
EndChar

StartChar: U
Encoding: 53 85 53
Width: 767
Flags: W
HStem: -10 95.75<334.762 523.364> 642.584 88.4268<41.1201 162.651 472.37 593.526>
VStem: 151.017 99.7676<171.224 554.359> 602.205 97.9365<173.942 540.85>
LayerCount: 2
Fore
SplineSet
700.141601562 270.946289062 m 0
 700.141601562 85.0810974477 598.663731147 -10 428.830078125 -10 c 0
 247.772697956 -10 151.016601562 84.5172625506 151.016601562 290.099609375 c 0
 151.016601562 427.696526007 162.651367188 642.583984375 162.651367188 642.583984375 c 1
 37.5 640.580078125 l 1
 41.1201171875 731.010742188 l 1
 259.354492188 731.010742188 l 1
 259.354492188 731.010742188 250.784179688 403.488572129 250.784179688 289 c 0
 250.784179688 167.940516545 297.306043519 85.75 430 85.75 c 0
 550.068429484 85.75 602.205078125 159.646078258 602.205078125 289 c 0
 602.205078125 425.680539697 593.526367188 642.583984375 593.526367188 642.583984375 c 1
 468.75 640.580078125 l 1
 472.370117188 731.010742188 l 1
 687.229492188 731.010742188 l 1
 687.229492188 731.010742188 700.141601562 450.456085293 700.141601562 270.946289062 c 0
EndSplineSet
EndChar

StartChar: A
Encoding: 33 65 54
Width: 670
Flags: W
HStem: 181.125 90.625<190.156 511.5> 189.125 88.625<148.25 465.594> 627.194 93.8057<79.3193 251.133> 633.362 97.6377<168.947 251.133>
LayerCount: 2
Fore
SplineSet
148.25 277.75 m 1x40
 511.75 271.75 l 1
 511.5 181.125 l 1x80
 144.25 189.125 l 1
 148.25 277.75 l 1x40
251.1328125 633.362304688 m 1x10
 79.3193359377 627.194335938 l 1
 76.439453125 721 l 1x20
 384.798828125 731 l 1
 650.950195312 7.7861328125 l 1
 555.551757812 -15 l 1
 335.318359375 610.6171875 l 1
 111.444335938 -15 l 1
 17.7734375 11.125 l 1
 251.1328125 633.362304688 l 1x10
EndSplineSet
Substitution2: "'fina' Terminal Forms lookup 25-1" A.fina
Substitution2: "'init' Initial Forms lookup 24-1" A.init
Substitution2: "'ss14' Style Set 14 lookup 22-1" A.ss14
EndChar

StartChar: B
Encoding: 34 66 55
Width: 739
Flags: W
HStem: -10.0664 86<264.123 531.059> 329.367 75.4414<231.792 502.478> 653.117 85.875<191.916 495.694>
VStem: 161 101.214<91.4961 325.309 411.252 661.75> 565.042 97.375<457.378 593.725> 603.042 99.375<134.411 268.786>
LayerCount: 2
Fore
SplineSet
231.696289062 411.251953125 m 1xf4
 231.696289062 411.251953125 275.225800737 404.80859375 384.166992188 404.80859375 c 0
 511.388885496 404.80859375 565.041992188 453.092130548 565.041992188 520.708496094 c 0
 565.041992188 605.833354017 505.269727098 653.1171875 378.291992188 653.1171875 c 0
 193.578524616 653.1171875 58.89453125 571.927734375 58.89453125 571.927734375 c 1
 25.5 664.840820312 l 1
 25.5 664.840820312 133.295920577 738.9921875 386.916992188 738.9921875 c 0
 555.278205324 738.9921875 662.416992188 655.456049064 662.416992188 524.18359375 c 0xf8
 662.416992188 405.216205056 550.900390625 373.96875 550.900390625 373.96875 c 1
 550.900390625 373.96875 702.416992188 344.853755007 702.416992188 194.3671875 c 0
 702.416992188 69.435225481 595.278205324 -10.06640625 426.916992188 -10.06640625 c 0
 240.312499551 -10.06640625 161 24.0849609375 161 24.0849609375 c 1
 166.940429688 661.75 l 1
 260.169921875 661.75 l 1
 262.213867188 91.49609375 l 1
 262.213867188 91.49609375 296.629325847 75.93359375 409.916992188 75.93359375 c 0
 536.400529214 75.93359375 603.041992188 121.741441527 603.041992188 202.4921875 c 0
 603.041992188 272.2734375 552.241976925 329.3671875 404.25 329.3671875 c 0
 278.65697574 329.3671875 231.7578125 325.30859375 231.7578125 325.30859375 c 1
 231.696289062 411.251953125 l 1xf4
EndSplineSet
EndChar

StartChar: C
Encoding: 35 67 56
Width: 651
Flags: W
HStem: -10.0664 93.75<287.949 544.079> 651.117 87.875<299.653 528.503>
VStem: 42.25 100.625<234.16 485.275>
LayerCount: 2
Fore
SplineSet
42.25 361.93359375 m 0
 42.25 592.358449127 180.208183556 738.9921875 397 738.9921875 c 0
 571.675165443 738.9921875 645.916992188 662.840820312 645.916992188 662.840820312 c 1
 604.772460938 591.052734375 l 1
 604.772460938 591.052734375 527.560536863 651.1171875 407.5 651.1171875 c 0
 245.783732097 651.1171875 142.875 538.658518488 142.875 361.93359375 c 0
 142.875 191.89132324 231.306024169 83.68359375 404.25 83.68359375 c 0
 549.552009282 83.68359375 623.1484375 144.114257812 623.1484375 144.114257812 c 1
 661.146484375 62.31640625 l 1
 661.146484375 62.31640625 594.321700857 -10.06640625 387 -10.06640625 c 0
 176.319298889 -10.06640625 42.25 134.599173678 42.25 361.93359375 c 0
EndSplineSet
EndChar

StartChar: D
Encoding: 36 68 57
Width: 783
Flags: W
HStem: -10.0664 94.875<265.873 503.232> 643.867 95.125<182.899 494.435>
VStem: 160.771 102.732<98.5967 656.125> 647.917 98.5<234.418 491.422>
LayerCount: 2
Fore
SplineSet
746.416992188 361.93359375 m 0
 746.416992188 134.599609375 610.500644203 -10.06640625 396.916992188 -10.06640625 c 0
 218.332896624 -10.06640625 160.770507812 35.44140625 160.770507812 35.44140625 c 1
 166.940429688 656.125 l 1
 260.169921875 656.125 l 1
 263.502929688 98.5966796878 l 1
 263.502929688 98.5966796878 317.096113147 84.80859375 386.916992188 84.80859375 c 0
 559.613003114 84.80859375 647.916992188 192.578052455 647.916992188 361.93359375 c 0
 647.916992188 534.227719944 558.953415007 643.8671875 376.916992188 643.8671875 c 0
 183.368002197 643.8671875 58.89453125 571.927734375 58.89453125 571.927734375 c 1
 25.5 664.840820312 l 1
 25.5 664.840820312 133.295920577 738.9921875 386.916992188 738.9921875 c 0
 606.61196808 738.9921875 746.416992188 592.358398438 746.416992188 361.93359375 c 0
EndSplineSet
EndChar

StartChar: P
Encoding: 48 80 58
Width: 721
Flags: W
HStem: 0 21G<161.521 262.753> 211.184 90.625<276.788 507.814> 646.492 92.5<187.203 498.408>
VStem: 161.521 101.232<0 259.059 341.377 661.75> 592.042 96.125<380.491 560.177>
LayerCount: 2
Fore
SplineSet
262.752929688 0 m 1
 161.520507812 0 l 1
 167.690429688 661.75 l 1
 259.419921875 661.75 l 1
 262.752929688 0 l 1
241.696289062 341.376953125 m 1
 241.696289062 341.376953125 286.703795241 301.80859375 403.166992188 301.80859375 c 0
 526.961344016 301.80859375 592.041992188 364.185400132 592.041992188 464.93359375 c 0
 592.041992188 586.502978153 522.816631533 646.4921875 369.916992188 646.4921875 c 0
 205.712524698 646.4921875 59.51953125 573.427734375 59.51953125 573.427734375 c 1
 26.125 664.840820312 l 1
 26.125 664.840820312 133.734508616 738.9921875 386.916992188 738.9921875 c 0
 572.767209976 738.9921875 688.166992188 637.951636206 688.166992188 461.43359375 c 0
 688.166992188 309.660471598 585.444557882 211.18359375 419.416992188 211.18359375 c 0
 292.764835917 211.18359375 216.5078125 259.05859375 216.5078125 259.05859375 c 1
 241.696289062 341.376953125 l 1
EndSplineSet
EndChar

StartChar: M
Encoding: 45 77 59
Width: 877
VWidth: 1111
Flags: W
HStem: 643.455 87.5557<39.375 176.317> 649.588 91.4229<113.928 176.317> 719.625 20G<654.36 766.5>
VStem: 722.75 102.75<0.551703 87.9195>
LayerCount: 2
Back
SplineSet
198.817382812 545.212890625 m 1
 93 539.080078125 l 1
 88.6201171875 731.010742188 l 1
 430.729492188 741.010742188 l 1
 483 547 l 1
 552 740 l 1
 766 731 l 1
 825 5 l 1
 613 -9 l 1
 584 361 l 5
 486 160 l 5
 390 352 l 5
 356 -6 l 1
 155 9 l 1
 198.817382812 545.212890625 l 1
EndSplineSet
Fore
SplineSet
176.317382812 649.587890625 m 1x50
 39.375 643.455078125 l 1
 36.1201171875 731.010742188 l 1x90
 295.479492188 741.010742188 l 1x50
 474.75 373.875 l 1
 664.75 739.625 l 1x30
 766.5 731.75 l 1
 825.5 1.25 l 1
 722.75 -9 l 1
 686.625 580.375 l 1
 470 166.875 l 1
 263.875 571.375 l 1
 218.375 -6 l 1
 122.5 5.25 l 1
 176.317382812 649.587890625 l 1x50
EndSplineSet
Substitution2: "'fina' Terminal Forms lookup 25-1" M.fina
Substitution2: "'init' Initial Forms lookup 24-1" M.init
EndChar

StartChar: G
Encoding: 39 71 60
Width: 794
Flags: W
HStem: -10.0664 95.625<286.437 512.967> 293.819 88.5557<657.815 760.097> 647.992 91<299.595 536.635>
VStem: 42.25 100.625<235.097 489.698> 559.808 102.329<-87.7607 295.823>
LayerCount: 2
Fore
SplineSet
565.237304688 382.375 m 1
 760.096679688 382.375 l 1
 763.716796875 293.819335938 l 1
 657.815429688 295.823242188 l 1
 662.13671875 -87.7607421875 l 1
 559.807617188 -87.7607421875 l 1
 565.237304688 382.375 l 1
42.25 361.93359375 m 0
 42.25 592.358449127 180.208183556 738.9921875 397 738.9921875 c 0
 571.675165443 738.9921875 645.916992188 662.840820312 645.916992188 662.840820312 c 1
 612.147460938 588.677734375 l 1
 612.147460938 588.677734375 533.027474645 647.9921875 410 647.9921875 c 0
 243.005944965 647.9921875 142.875 537.477934966 142.875 363.80859375 c 0
 142.875 193.76632324 230.883111572 85.55859375 394.375 85.55859375 c 0
 533.769029062 85.55859375 599.1484375 161.364257812 599.1484375 161.364257812 c 1
 638.646484375 99.81640625 l 1
 638.646484375 99.81640625 574.868647805 -10.06640625 377 -10.06640625 c 0
 172.430414222 -10.06640625 42.25 134.599173678 42.25 361.93359375 c 0
EndSplineSet
Substitution2: "'ss11' Style Set 11 lookup 19-1" G.ss11
EndChar

StartChar: T
Encoding: 52 84 61
Width: 590
Flags: W
HStem: 0 21G<236.83 343.159> 640.5 30<241.151 339.104> 640.58 90.4307<31.1201 241.151 339.104 551.229>
VStem: 236.83 106.329<0 670.5>
LayerCount: 2
Fore
SplineSet
339.103515625 670.5 m 1xd0
 343.159179688 0 l 1
 236.830078125 0 l 1
 241.151367188 672.583984375 l 1
 339.103515625 670.5 l 1xd0
292.103515625 640.5 m 1
 27.5 640.580078125 l 1
 31.1201171875 731.010742188 l 1
 551.229492188 731.010742188 l 1xb0
 557.11328125 636.5 l 1
 292.103515625 640.5 l 1
EndSplineSet
EndChar

StartChar: V
Encoding: 54 86 62
Width: 774
Flags: W
HStem: 0 21G<360.426 489.8>
LayerCount: 2
Fore
SplineSet
482.357421875 0 m 1
 366.674804688 0 l 1
 162.776367188 652.625 l 1
 36.2958984375 642.375 l 1
 30 732 l 1
 237.171875 746 l 1
 431.155273438 109.2578125 l 1
 648.904296875 746 l 1
 749.950195312 719.125 l 1
 482.357421875 0 l 1
EndSplineSet
Substitution2: "'fina' Terminal Forms lookup 25-1" V.fina
Substitution2: "'init' Initial Forms lookup 24-1" V.init
EndChar

StartChar: W
Encoding: 55 87 63
Width: 1134
Flags: W
HStem: 0 21G<360.426 489.726 730.473 860.634> 716 20G<1004.7 1082.51>
LayerCount: 2
Fore
SplineSet
482.357421875 0 m 1
 366.674804688 0 l 1
 162.776367188 652.625 l 1
 36.2958984375 642.375 l 1
 30 732 l 1
 236.046875 746 l 1
 431.530273438 109.2578125 l 1
 643.904296875 759 l 1
 751.950195312 731.75 l 1
 482.357421875 0 l 1
853.357421875 0 m 1
 737.674804688 0 l 1
 581.75 433 l 1
 639.895507812 574.25 l 1
 801.405273438 109.2578125 l 1
 1011.40429688 736 l 1
 1110.95019531 708 l 1
 853.357421875 0 l 1
EndSplineSet
Substitution2: "'fina' Terminal Forms lookup 25-1" W.fina
Substitution2: "'init' Initial Forms lookup 24-1" W.init
EndChar

StartChar: Q
Encoding: 49 81 64
Width: 785
Flags: W
HStem: -10.0664 93.1006<282.753 495.136> 645.833 93.1006<285.57 492.187>
VStem: 42.25 94.9873<241.36 484.266> 647.763 94.9873<241.36 484.266>
LayerCount: 2
Fore
SplineSet
126.25 106 m 1
 797.75 -42 l 1
 773.375 -140.5 l 1
 106.5 37.125 l 1
 126.25 106 l 1
EndSplineSet
Refer: 43 79 N 1 0 0 1 0 0 2
Substitution2: "'ss10' Style Set 10 lookup 18-1" Q.ss10
EndChar

StartChar: underscore
Encoding: 63 95 65
Width: 580
Flags: W
HStem: -74.5 74.5<33 547>
LayerCount: 2
Fore
SplineSet
33 0 m 1
 549 4 l 1
 547 -79.5 l 1
 31 -74.5 l 1
 33 0 l 1
EndSplineSet
EndChar

StartChar: R
Encoding: 50 82 66
Width: 717
Flags: W
HStem: 0 21G<155.271 256.503> 646.492 92.5<256.087 479.54>
VStem: 155.271 101.232<0 285.434 348.002 680.5> 574.417 97<405.384 565.775>
LayerCount: 2
Back
SplineSet
289.002929688 0 m 5xb8
 157.770507812 0 l 5
 163.940429688 669.25 l 1
 285.669921875 669.25 l 1
 289.002929688 0 l 5xb8
274.196289062 355.876953125 m 1
 274.196289062 355.876953125 298.311785784 334.93359375 373.916992188 334.93359375 c 0
 487.119605202 334.93359375 551.916992188 395.921142577 551.916992188 475.93359375 c 0
 551.916992188 563.722489841 489.063645233 617.9921875 353 617.9921875 c 0
 219.214256452 617.9921875 49.26953125 556.427734375 49.26953125 556.427734375 c 1
 18 674.840820312 l 1
 18 674.840820312 122.067681352 738.9921875 366.916992188 738.9921875 c 0xd8
 557.583984375 738.9921875 678.916992188 638.247073955 678.916992188 479.93359375 c 0
 678.916992188 277.943443494 474.740234375 245.040039062 474.740234375 245.040039062 c 1
 701.770507812 69 l 1
 625.770507812 -37 l 1
 235.2578125 285.43359375 l 1
 274.196289062 355.876953125 l 1
EndSplineSet
Fore
SplineSet
256.502929688 0 m 1
 155.270507812 0 l 1
 161.440429688 680.5 l 1
 253.169921875 680.5 l 1
 256.502929688 0 l 1
241.696289062 348.001953125 m 1
 241.696289062 348.001953125 274.850196684 324.43359375 378.791992188 324.43359375 c 0
 503.203571798 324.43359375 574.416992188 392.720184325 574.416992188 482.30859375 c 0
 574.416992188 583.770223567 504.098670494 646.4921875 351.875 646.4921875 c 0
 206.033764755 646.4921875 52.64453125 579.677734375 52.64453125 579.677734375 c 1
 25.5 671.090820312 l 1
 25.5 671.090820312 127.330737816 738.9921875 366.916992188 738.9921875 c 0
 553.000643217 738.9921875 671.416992188 640.288742747 671.416992188 485.18359375 c 0
 671.416992188 358.702543067 588.181777286 283.472099274 484.00000092 265.387289562 c 0
 434.681757398 253.188612143 394.240234375 254.040039062 394.240234375 254.040039062 c 1
 690.520507812 50.25 l 1
 631.770507812 -33.25 l 1
 206.5078125 285.43359375 l 1
 241.696289062 348.001953125 l 1
EndSplineSet
EndChar

StartChar: five
Encoding: 21 53 67
Width: 581
Flags: W
HStem: -10.0664 86.25<117.314 358.052> 385.117 83.1328<186.26 374.71> 641.5 89.5078<177.75 491.517>
VStem: 439.667 92.75<150.131 319.739>
LayerCount: 2
Back
SplineSet
529.016601562 549.0078125 m 5
 239 550 l 29
 224 471 l 21
 224 471 248.642857143 479 316 479 c 4
 492.46964774 479 559.916992188 386.635747331 559.916992188 246.9921875 c 4
 559.916992188 68.1744133844 445.97265625 -10.06640625 266.916992188 -10.06640625 c 4
 85.2246769868 -10.06640625 8 44.0849609375 8 44.0849609375 c 5
 50 207 l 5
 50 207 126.85984585 163.93359375 233.916992188 163.93359375 c 4
 305.791015625 163.93359375 340.916992188 195.456256431 340.916992188 244.9921875 c 4
 340.916992188 289.603298611 303.700683594 317.9921875 230.916992188 317.9921875 c 4
 164.966339317 317.9921875 125.2578125 288.43359375 125.2578125 288.43359375 c 5
 19 392 l 5
 80 731.0078125 l 5
 365 731.0078125 l 5
 362 798.0078125 l 5
 515.016601562 800.0078125 l 5
 529.016601562 549.0078125 l 5
EndSplineSet
Fore
SplineSet
491.516601562 640.5078125 m 1
 177.75 641.5 l 1
 142.5 421.75 l 1
 142.5 421.75 185.022321429 468.25 301.25 468.25 c 0
 458.65487816 468.25 532.416992188 372.593897773 532.416992188 236.9921875 c 0
 532.416992188 68.8807174514 428.146258149 -10.06640625 264.291992188 -10.06640625 c 0
 98.4765361944 -10.06640625 28 44.0849609375 28 44.0849609375 c 1
 55.625 123.625 l 1
 55.625 123.625 138.126564468 76.18359375 253.041992188 76.18359375 c 0
 378.401708299 76.18359375 439.666992188 137.942248817 439.666992188 234.9921875 c 0
 439.666992188 326.735243056 386.126257323 385.1171875 281.416992188 385.1171875 c 0
 179.373588292 385.1171875 124.0078125 319.68359375 124.0078125 319.68359375 c 1
 46.5 368.25 l 1
 107.5 731.0078125 l 1
 491.516601562 731.0078125 l 1
 491.516601562 640.5078125 l 1
EndSplineSet
Substitution2: "'onum' Oldstyle Figures lookup 27-1" five.osf
Substitution2: "'ss02' Style Set 2 lookup 10-1" five.ss02
Substitution2: "'frac' Diagonal Fractions in Latin lookup 26 subtable" five.numr
Substitution2: "'dnom' Denominators lookup 0 subtable" five.dnom
Substitution2: "'numr' Numerators lookup 0 subtable" five.numr
Substitution2: "'sinf' Scientific Inferiors lookup 0 subtable" five.inferior
Substitution2: "'sups' Superscript lookup 0 subtable" five.superior
EndChar

StartChar: Z
Encoding: 58 90 68
Width: 601
Flags: W
HStem: 0 90.75<174.044 545.517> 635.008 96<55.5 433.973>
LayerCount: 2
Fore
SplineSet
49.5 635.0078125 m 1
 55.5 731.0078125 l 1
 544.891601562 731.0078125 l 1
 561.516601562 664.0078125 l 1
 174.043945312 90.75 l 1
 551.516601562 97 l 1
 545.516601562 0 l 1
 57.25 0 l 1
 39.5 65.5 l 1
 433.97265625 641.2578125 l 1
 49.5 635.0078125 l 1
EndSplineSet
EndChar

StartChar: Y
Encoding: 57 89 69
Width: 729
Flags: W
HStem: 0 21G<351.205 459.784>
VStem: 351.205 108.579<0 276.53>
LayerCount: 2
Fore
SplineSet
354.998046875 276.530273438 m 1
 154.276367188 651.75 l 1
 43.2958984375 633.75 l 1
 30 722 l 1
 216.421875 746 l 1
 409.405273438 376.5078125 l 1
 618.404296875 746 l 1
 708.700195312 700.375 l 1
 456.359375 283.025390625 l 1
 459.784179688 0 l 1
 351.205078125 0 l 1
 354.998046875 276.530273438 l 1
EndSplineSet
Substitution2: "'ss13' Style Set 13 lookup 21-1" Y.ss13
EndChar

StartChar: X
Encoding: 56 88 70
Width: 768
Flags: W
LayerCount: 2
Fore
SplineSet
232 745.0078125 m 1
 472.25 364 l 1
 182.5 -27 l 1
 95.5 38.5 l 1
 356.625 364 l 1
 178.75 637.3828125 l 1
 51.75 601.30859375 l 1
 25.5 691 l 1
 232 745.0078125 l 1
636.25 745.0078125 m 1
 731 682.0078125 l 1
 484.875 364 l 1
 746 38.5 l 1
 659.75 -27 l 1
 369.25 364 l 1
 636.25 745.0078125 l 1
EndSplineSet
EndChar

StartChar: comma
Encoding: 12 44 71
Width: 270
Flags: W
HStem: -103.5 247.25
VStem: 33.875 180.125
LayerCount: 2
Fore
SplineSet
131.75 143.75 m 25
 214 98.5 l 25
 85.875 -103.5 l 25
 33.875 -72.5 l 25
 131.75 143.75 l 25
EndSplineSet
EndChar

StartChar: nine
Encoding: 25 57 73
Width: 619
Flags: W
HStem: -20 89.959<136.732 250.133> 245.266 79.2178<214.617 392.02> 653.384 85.6084<215.921 389.731>
VStem: 47.5 92.3164<398.77 577.176> 466.816 104<332.855 568.736>
LayerCount: 2
Fore
SplineSet
137.505859375 -20 m 1
 127.56640625 69.958984375 l 1
 461.801786605 87.5634622817 470.358398438 327.059570312 470.358398438 327.059570312 c 1
 470.358398438 327.059570312 422.787089487 245.265625 281.215820312 245.265625 c 0
 146.252676021 245.265625 47.5 341.068471952 47.5 485.993164062 c 0
 47.5 619.258184546 118.63304003 738.9921875 303.005859375 738.9921875 c 0
 463.384854372 738.9921875 570.81640625 636.598632812 570.81640625 422.643554688 c 0
 570.81640625 209.85546875 467.019690878 0.528320312468 137.505859375 -20 c 1
466.81640625 488.383789062 m 0
 466.81640625 589.218139649 403.077795803 653.383789062 302.916015625 653.383789062 c 0
 203.243608733 653.383789062 139.81640625 589.218139649 139.81640625 488.383789062 c 0
 139.81640625 388.222439236 203.243608733 324.483398438 302.916015625 324.483398438 c 0
 403.077795803 324.483398438 466.81640625 388.222439236 466.81640625 488.383789062 c 0
EndSplineSet
Substitution2: "'onum' Oldstyle Figures lookup 27-1" nine.osf
Substitution2: "'frac' Diagonal Fractions in Latin lookup 26 subtable" nine.numr
Substitution2: "'dnom' Denominators lookup 0 subtable" nine.dnom
Substitution2: "'numr' Numerators lookup 0 subtable" nine.numr
Substitution2: "'sinf' Scientific Inferiors lookup 0 subtable" nine.inferior
Substitution2: "'sups' Superscript lookup 0 subtable" nine.superior
EndChar

StartChar: at
Encoding: 32 64 74
Width: 925
Flags: W
HStem: -159.727 74.377<336.863 666.361> 48.4209 77.8857<367.159 519.743 683.406 782.804> 417.235 76.2705<370.045 522.429> 635.933 71.7939<329.937 601.993>
VStem: 37.5 79.25<130.919 412.519> 225.029 84.3447<188.566 355.418> 580.106 85.5361<183.282 333.528> 587.485 52.6836<128.674 375.167> 815.654 72.1328<164.171 422.965>
LayerCount: 2
Back
SplineSet
365.124023438 363.1875 m 4
 365.124023438 312.997070312 392.912109375 281.056640625 436.578125 281.056640625 c 4
 480.749023438 281.056640625 508.856445312 312.997070312 508.856445312 363.1875 c 4
 508.856445312 411.876953125 480.749023438 442.860351562 436.578125 442.860351562 c 4
 392.912109375 442.860351562 365.124023438 411.876953125 365.124023438 363.1875 c 4
207.529296875 362.254882812 m 4
 207.529296875 497.463867188 289.260742188 583.505859375 417.694335938 583.505859375 c 4
 542.1171875 583.505859375 621.293945312 489.212890625 621.293945312 341.037109375 c 4
 621.293945312 217.215820312 542.1171875 138.420898438 417.694335938 138.420898438 c 4
 289.260742188 138.420898438 207.529296875 225.466796875 207.529296875 362.254882812 c 4
482.713867188 -69.7265625 m 4
 196.205078125 -69.7265625 20 94.120869497 20 358.08984375 c 4
 20 614.04161915 179.602962903 797.7265625 458.420898438 797.7265625 c 4
 719.309753403 797.7265625 905.287109375 654.481445312 905.287109375 383.712890625 c 4
 905.287109375 234.838867187 845.620117188 138.420898438 718.064453125 138.420898438 c 4
 609.642578125 138.420898438 536.985351562 205.224609375 536.985351562 370.025390625 c 4xbec0
 536.985351562 473.729492188 566.369140625 581.030273438 566.369140625 581.030273438 c 5
 721.677734375 569.944335938 l 5
 721.677734375 569.944335938 689.767578125 428.384765625 689.767578125 333.604492188 c 4
 689.767578125 282.138671875 704.185546875 254.978515625 740.811523438 254.978515625 c 4xbf40
 782.825195312 254.978515625 804.404296875 305.185546875 804.404296875 383.712890625 c 4
 804.404296875 614.064453125 662.40625 699.432617188 459.420898438 699.432617188 c 4
 248.553710938 699.432617188 128 560.595703125 128 361.93359375 c 4
 128 157.513671875 252.708984375 31.150390625 483.713867188 31.150390625 c 4
 665.813476562 31.150390625 793 94 793 94 c 5
 818.250976562 5.7744140625 l 5
 818.250976562 5.7744140625 708.095703125 -69.7265625 482.713867188 -69.7265625 c 4
EndSplineSet
Fore
SplineSet
309.374023438 272.8125 m 0xfe80
 309.374023438 183.282302827 361.711055992 126.306640625 443.953125 126.306640625 c 0
 527.159464849 126.306640625 580.106445312 183.282302827 580.106445312 272.8125 c 0
 580.106445312 361.071794395 527.742781293 417.235351562 445.453125 417.235351562 c 0
 362.294397297 417.235351562 309.374023438 361.071794395 309.374023438 272.8125 c 0xfe80
225.029296875 272.254882812 m 0
 225.029296875 407.463867188 305.788512867 493.505859375 432.694335938 493.505859375 c 0
 559.485259576 493.505859375 640.168945312 400.671217246 640.168945312 254.787109375 c 0xfd80
 640.168945312 128.674148625 559.485259576 48.4208984375 432.694335938 48.4208984375 c 0
 305.788512867 48.4208984375 225.029296875 135.466796875 225.029296875 272.254882812 c 0
482.713867188 -159.7265625 m 0
 207.040940553 -159.7265625 37.5 4.12109375 37.5 268.08984375 c 0
 37.5 524.041992188 190.731847237 707.7265625 458.420898438 707.7265625 c 0
 709.092750051 707.7265625 887.787109375 564.481445312 887.787109375 293.712890625 c 0
 887.787109375 144.838867188 834.055818303 48.4208984375 719.189453125 48.4208984375 c 0
 640.331067407 48.4208984375 587.485351562 110.681699014 587.485351562 264.275390625 c 0xfd80
 587.485351562 375.167347109 612.619140625 489.905273438 612.619140625 489.905273438 c 1
 693.302734375 482.319335938 l 1
 693.302734375 482.319335938 665.642578125 333.527960974 665.642578125 234.604492188 c 0xfe80
 665.642578125 161.405334555 683.698420555 121.353515625 730.811523438 121.353515625 c 0
 786.864377424 121.353515625 815.654296875 180.774411574 815.654296875 273.712890625 c 0
 815.654296875 537.991213967 668.408243557 635.932617188 457.920898438 635.932617188 c 0
 240.850254584 635.932617188 116.75 486.194402773 116.75 271.93359375 c 0
 116.75 51.1370001502 245.403098461 -85.349609375 483.713867188 -85.349609375 c 0
 671.550588548 -85.349609375 796.375 -19.875 796.375 -19.875 c 1
 818.250976562 -84.2255859375 l 1
 818.250976562 -84.2255859375 708.095703125 -159.7265625 482.713867188 -159.7265625 c 0
EndSplineSet
Substitution2: "'case' Case-Sensitive Forms lookup 31-1" at.case
EndChar

StartChar: percent
Encoding: 5 37 75
Width: 889
Flags: W
HStem: -10 76.8076<610.311 738> 283.975 76.9043<608.151 740.167> 368.113 76.8076<150.311 278> 662.088 76.9043<148.151 280.167>
VStem: 33.2705 79.0537<481.861 623.905> 316.284 79.0859<481.861 623.905> 493.271 79.0537<103.748 245.792> 776.284 79.0859<103.748 245.792>
LayerCount: 2
Fore
SplineSet
572.32421875 176.256835938 m 0
 572.32421875 109.371358518 611.870125768 66.8076171875 674.015625 66.8076171875 c 0
 736.513158048 66.8076171875 776.284179688 109.371358518 776.284179688 176.256835938 c 0
 776.284179688 242.08468124 736.513158048 283.974609375 674.015625 283.974609375 c 0
 611.870125768 283.974609375 572.32421875 242.08468124 572.32421875 176.256835938 c 0
493.270507812 176.399414062 m 0
 493.270507812 289.137173592 563.553913074 360.87890625 674 360.87890625 c 0
 784.837484532 360.87890625 855.370117188 289.137173592 855.370117188 176.399414062 c 0
 855.370117188 62.4884665476 784.837484532 -10 674 -10 c 0
 563.553913074 -10 493.270507812 62.4884665476 493.270507812 176.399414062 c 0
112.32421875 554.370117188 m 0
 112.32421875 487.484639768 151.870125768 444.920898438 214.015625 444.920898438 c 0
 276.513158049 444.920898438 316.284179688 487.484639768 316.284179688 554.370117188 c 0
 316.284179688 620.19796249 276.513158049 662.087890625 214.015625 662.087890625 c 0
 151.870125768 662.087890625 112.32421875 620.19796249 112.32421875 554.370117188 c 0
33.2705078125 554.512695312 m 0
 33.2705078125 667.250454842 103.553913074 738.9921875 214 738.9921875 c 0
 324.837484532 738.9921875 395.370117188 667.250454842 395.370117188 554.512695312 c 0
 395.370117188 440.601747797 324.837484532 368.11328125 214 368.11328125 c 0
 103.553913074 368.11328125 33.2705078125 440.601747797 33.2705078125 554.512695312 c 0
EndSplineSet
Refer: 168 8260 N 1 0 0 1 304 0 2
EndChar

StartChar: ampersand
Encoding: 6 38 76
Width: 715
Flags: W
HStem: -9.99805 86.373<208.932 454.95> 300.25 85.5<507.75 666.5> 324.25 82.5<248.708 355> 660.625 84.375<270.055 375.643>
VStem: 47.5 101.5<128.503 264.387> 65.5 97.125<471.436 586.154> 460.25 101.5<100.75 300.25 385.75 552> 464.25 90.5<100.75 552>
LayerCount: 2
Fore
SplineSet
667.5 385.75 m 1xd0
 666.5 296.25 l 1
 502.75 300.25 l 1
 507.75 385.75 l 1
 667.5 385.75 l 1xd0
375 745 m 1
 382.75 660.625 l 1
 284.472628297 650.724627504 162.625 620.690152582 162.625 529.80859375 c 0xb4
 162.625 465.393266076 219.05590278 417.207318606 357 406.75 c 1
 355 324.25 l 1
 222.948717949 315.165492959 149 288.545774649 149 195.25 c 0
 149 123.145491803 200.8625 76.375 321.875 76.375 c 0
 419.825842697 76.375 460.25 100.75 460.25 100.75 c 1xba
 464.25 555 l 1
 554.75 552 l 1xb1
 561.75 37 l 1
 561.75 37 474.771745165 -9.998046875 320 -9.998046875 c 0
 161.118644068 -9.998046875 47.5 48.1277378007 47.5 198 c 0xba
 47.5 346.633989905 212.75 370.5 212.75 370.5 c 1
 212.75 370.5 65.5 400.806248858 65.5 531.875 c 0xb4
 65.5 638.533653846 146.897553517 728.605769232 375 745 c 1
EndSplineSet
Substitution2: "'ss18' Style Set 18 lookup 30-1" ampersand.ss18
Substitution2: "'ss09' Style Set 9 lookup 17-1" ampersand.ss09
EndChar

StartChar: two
Encoding: 18 50 77
Width: 595
Flags: W
HStem: 0 89.75<230.902 543.5> 645.75 93.25<160.292 364.239>
VStem: 429.239 98.2246<390.248 579.829>
LayerCount: 2
Fore
SplineSet
230.90234375 89.75 m 1
 547.5 95.75 l 1
 543.5 0 l 1
 55.9833984375 0 l 1
 47.4833984375 65 l 1
 47.4833984375 65 429.239257812 253.267891859 429.239257812 487.625 c 0
 429.239257812 594.046903722 370.475936134 645.75 271.455078125 645.75 c 0
 153.307375593 645.75 82.7138671875 576.75 82.7138671875 576.75 c 1
 44.0634765625 663 l 1
 44.0634765625 663 132.927954582 739 282.03125 739 c 0
 440.655837415 739 527.463867188 647.740480956 527.463867188 502.68359375 c 0
 527.463867188 242.038977075 230.90234375 89.75 230.90234375 89.75 c 1
EndSplineSet
Substitution2: "'onum' Oldstyle Figures lookup 27-1" two.osf
Substitution2: "'frac' Diagonal Fractions in Latin lookup 26 subtable" two.numr
Substitution2: "'dnom' Denominators lookup 0 subtable" two.dnom
Substitution2: "'numr' Numerators lookup 0 subtable" two.numr
Substitution2: "'sinf' Scientific Inferiors lookup 0 subtable" two.inferior
Substitution2: "'sups' Superscript lookup 0 subtable" two.superior
EndChar

StartChar: three.ss01
Encoding: 736 -1 78
Width: 579
Flags: W
HStem: -10.0664 83<112.027 363.602> 336.242 77.1914<160.273 356.774> 649.992 89<124.449 359.964>
VStem: 418.542 94.125<465.435 597.138> 439.292 92.375<135.933 275.652>
LayerCount: 2
Fore
SplineSet
62.625 114.625 m 1xe8
 62.625 114.625 137.969939925 72.93359375 242.916992188 72.93359375 c 0
 374.82597679 72.93359375 439.291992188 124.338122806 439.291992188 205.1171875 c 0xe8
 439.291992188 285.249131945 378.924743652 336.2421875 255.666992188 336.2421875 c 0
 180.521043388 336.2421875 160.2578125 329.68359375 160.2578125 329.68359375 c 1
 160.196289062 417.376953125 l 1
 160.196289062 417.376953125 179.285898691 413.43359375 241.666992188 413.43359375 c 0
 363.573152239 413.43359375 418.541992188 460.010027204 418.541992188 529.93359375 c 0
 418.541992188 604.48562006 366.110351562 649.9921875 247.916992188 649.9921875 c 0
 143.332694244 649.9921875 74.51953125 604.677734375 74.51953125 604.677734375 c 1
 48.875 691.840820312 l 1
 48.875 691.840820312 111.819860752 738.9921875 259.916992188 738.9921875 c 0
 416.574313452 738.9921875 512.666992188 663.358398438 512.666992188 542.93359375 c 0xf0
 512.666992188 412.619476562 387.775390625 377.34375 387.775390625 377.34375 c 1
 387.775390625 377.34375 531.666992188 348.107173402 531.666992188 196.9921875 c 0
 531.666992188 70.4560546875 428.708756899 -10.06640625 266.916992188 -10.06640625 c 0
 104.522516908 -10.06640625 35.5 34.0849609375 35.5 34.0849609375 c 1
 62.625 114.625 l 1xe8
EndSplineSet
Substitution2: "'dnom' Denominators lookup 0 subtable" three.ss01.dnom
Substitution2: "'numr' Numerators lookup 0 subtable" three.ss01.numr
Substitution2: "'subs' Subscript lookup 0 subtable" three.ss01.subscript
Substitution2: "'sinf' Scientific Inferiors lookup 0 subtable" three.ss01.inferior
Substitution2: "'sups' Superscript lookup 0 subtable" three.ss01.superior
EndChar

StartChar: four
Encoding: 20 52 79
Width: 679
Flags: W
HStem: 0 21G<405.75 501.329> 203.37 81.96<160.72 626.26>
VStem: 405.75 95.5791<0 629.934>
LayerCount: 2
Fore
SplineSet
495.899414062 629.93359375 m 1
 501.329101562 0 l 1
 405.75 0 l 1
 411.919921875 629.93359375 l 1
 495.899414062 629.93359375 l 1
376.059570312 752.280273438 m 1
 449.259765625 707.900390625 l 1
 160.719726562 285.330078125 l 1
 628.139648438 285.209960938 l 1
 626.259765625 200.9296875 l 1
 58.509765625 203.370117188 l 1
 41.0595703125 251.485351562 l 1
 376.059570312 752.280273438 l 1
EndSplineSet
Substitution2: "'onum' Oldstyle Figures lookup 27-1" four.osf
Substitution2: "'frac' Diagonal Fractions in Latin lookup 26 subtable" four.numr
Substitution2: "'dnom' Denominators lookup 0 subtable" four.dnom
Substitution2: "'numr' Numerators lookup 0 subtable" four.numr
Substitution2: "'sinf' Scientific Inferiors lookup 0 subtable" four.inferior
Substitution2: "'sups' Superscript lookup 0 subtable" four.superior
EndChar

StartChar: seven
Encoding: 23 55 80
Width: 568
Flags: W
HStem: 635.713 95.2949<145.375 440.473>
LayerCount: 2
Fore
SplineSet
34.5 463.6328125 m 1
 59.5 731.0078125 l 1
 513.266601562 731.0078125 l 1
 549.516601562 670.5078125 l 1
 281 -16 l 1
 187.625 15.375 l 1
 440.47265625 637.0078125 l 1
 145.375 635.712890625 l 1
 127.625 456.75 l 1
 34.5 463.6328125 l 1
EndSplineSet
Substitution2: "'onum' Oldstyle Figures lookup 27-1" seven.osf
Substitution2: "'frac' Diagonal Fractions in Latin lookup 26 subtable" seven.numr
Substitution2: "'dnom' Denominators lookup 0 subtable" seven.dnom
Substitution2: "'numr' Numerators lookup 0 subtable" seven.numr
Substitution2: "'sinf' Scientific Inferiors lookup 0 subtable" seven.inferior
Substitution2: "'sups' Superscript lookup 0 subtable" seven.superior
EndChar

StartChar: dollar
Encoding: 4 36 81
Width: 408
Flags: W
HStem: 0 21G<175.5 257.5> 719 20G<140.5 222.5>
VStem: 43.75 88.1816<447.462 521.402> 149.5 66<585.25 704.833> 182.5 66<34.1667 153.75> 274.938 89.6016<223.284 306.971>
LayerCount: 2
Fore
SplineSet
257.5 0 m 1xec
 175.5 0 l 1
 182.5 153.75 l 1
 248.5 153.75 l 1
 257.5 0 l 1xec
140.5 739 m 1
 222.5 739 l 1
 215.5 585.25 l 1
 149.5 585.25 l 1xf4
 140.5 739 l 1
283.552734375 645.848632812 m 1
 294.857421875 572.205078125 l 1
 294.857421875 572.205078125 131.931640625 555.41952934 131.931640625 481.967773438 c 0
 131.931640625 450.634916977 169.593472791 433.0266252 258.982421875 393.209960938 c 0
 333.498802286 360.03026482 364.5390625 328.930646475 364.5390625 272.293945312 c 0
 364.5390625 104.769162601 96.7890625 87.0791015625 96.7890625 87.0791015625 c 1
 87.1943359375 173.046875 l 1
 87.1943359375 173.046875 274.9375 182.389589712 274.9375 266.673828125 c 0
 274.9375 304.690499499 243.379885658 318.474320476 153.286132812 355.647460938 c 0
 72.4137253147 388.279395131 43.75 420.48468504 43.75 473.64453125 c 0
 43.75 631.079061904 283.552734375 645.848632812 283.552734375 645.848632812 c 1
EndSplineSet
EndChar

StartChar: quotesingle
Encoding: 7 39 82
Width: 256
Flags: W
HStem: 465 300<94.5 155.5>
VStem: 94.5 61<465 548.168>
LayerCount: 2
Fore
SplineSet
75.25 765 m 25
 180.75 765 l 25
 155.5 465 l 25
 94.5 465 l 25
 75.25 765 l 25
EndSplineSet
EndChar

StartChar: quotedbl
Encoding: 2 34 83
Width: 462
VWidth: 1111
Flags: W
HStem: 455.75 310.25
VStem: 98.5 60<460 499.563> 285.25 63.25<458.75 493.064>
LayerCount: 2
Fore
SplineSet
50.25 757.75 m 1
 159.75 766 l 1
 158.5 460 l 1
 98.5 455.75 l 1
 50.25 757.75 l 1
296 765 m 1
 405.75 753.75 l 1
 348.5 456.75 l 1
 285.25 458.75 l 1
 296 765 l 1
EndSplineSet
EndChar

StartChar: plus
Encoding: 11 43 84
Width: 450
Flags: W
HStem: 333.5 73<21 278.467>
VStem: 194 66<281.951 569.5>
LayerCount: 2
Fore
SplineSet
266.25 569.5 m 1
 260 384 l 1
 265.25 158.5 l 1
 178.75 160.5 l 1
 194 385 l 1
 187.75 572.5 l 1
 266.25 569.5 l 1
21 406.5 m 1
 223 403.5 l 1
 432 408.75 l 1
 431 322.25 l 1
 223 337.5 l 1
 19 333.5 l 1
 21 406.5 l 1
EndSplineSet
EndChar

StartChar: minus
Encoding: 719 8722 85
Width: 450
Flags: W
HStem: 329.375 79.5<81.125 414.5> 337.375 70.5<35.5 366.875>
LayerCount: 2
Fore
SplineSet
35.5 407.875 m 1x40
 416.5 408.875 l 1
 414.5 329.375 l 1x80
 33.5 337.375 l 1
 35.5 407.875 l 1x40
EndSplineSet
EndChar

StartChar: question
Encoding: 31 63 86
Width: 437
Flags: W
HStem: -10 121<97.3051 194.695> 194.635 189.589<108.26 182.742> 661 84.3838<62.8205 160.017>
VStem: 85.5 121<1.80514 99.1949> 104.155 81.9219<194.635 309.75> 297.875 91.625<431.045 570.894>
LayerCount: 2
Fore
SplineSet
47.125 661 m 1xec
 64.240234375 745.383789062 l 1
 287.295707609 712.663157807 389.5 639.609266813 389.5 498.885742188 c 0
 389.5 384.675497054 306.900351702 324.135564412 218.875 312.5 c 0
 199.579985182 309.62037447 186.077148438 309.75 186.077148438 309.75 c 1
 182.75 190.125 l 1
 182.75 190.125 172.27739726 194.634765625 148 194.634765625 c 0
 122.009615384 194.634765625 108.25 188.875 108.25 188.875 c 1
 104.155273438 385.5 l 1
 104.155273438 385.5 123.533903533 384.223632812 162.125 384.223632812 c 0
 238.188186814 384.223632812 297.875 417.712864439 297.875 503.875 c 0
 297.875 595.08439854 209.970635597 642.088983922 47.125 661 c 1xec
85.5 50.5 m 0xf4
 85.5 87.4724609379 109.027539062 111 146 111 c 0
 182.972460937 111 206.5 87.4724609379 206.5 50.5 c 0
 206.5 13.5275390625 182.972460937 -10 146 -10 c 0
 109.027539062 -10 85.5 13.5275390625 85.5 50.5 c 0xf4
EndSplineSet
EndChar

StartChar: parenleft
Encoding: 8 40 87
Width: 361
Flags: W
VStem: 47.5 88.6367<127.425 473.879>
LayerCount: 2
Fore
SplineSet
136.13671875 300.836914062 m 0
 136.13671875 3.09641892394 300 -156.494140625 300 -156.494140625 c 1
 238.75 -198.994140625 l 1
 238.75 -198.994140625 47.5 -37 47.5 301.005859375 c 0
 47.5 613 238.75 791.001953125 238.75 791.001953125 c 1
 300 748.501953125 l 1
 300 748.501953125 136.13671875 595.075004242 136.13671875 300.836914062 c 0
EndSplineSet
EndChar

StartChar: parenright
Encoding: 9 41 88
Width: 361
Flags: W
VStem: 224.863 88.6367<118.129 464.583>
LayerCount: 2
Fore
SplineSet
224.86328125 291.170898438 m 0
 224.86328125 588.911393576 61 748.501953125 61 748.501953125 c 1
 122.25 791.001953125 l 1
 122.25 791.001953125 313.5 629.0078125 313.5 291.001953125 c 0
 313.5 -20.9921875 122.25 -198.994140625 122.25 -198.994140625 c 1
 61 -156.494140625 l 1
 61 -156.494140625 224.86328125 -3.06719174199 224.86328125 291.170898438 c 0
EndSplineSet
EndChar

StartChar: bracketleft
Encoding: 59 91 89
Width: 394
Flags: W
HStem: -190 71<148.747 354.324> 715 76.0107<145.672 344.895>
VStem: 57.5 91.2471<-119 715>
LayerCount: 2
Fore
SplineSet
344.89453125 791.010742188 m 1
 351.165039062 714 l 1
 145.671875 715 l 1
 148.747070312 -119 l 1
 357.306640625 -117 l 1
 354.32421875 -190 l 1
 57.5 -190 l 1
 60.19140625 791.010742188 l 1
 344.89453125 791.010742188 l 1
EndSplineSet
EndChar

StartChar: bracketright
Encoding: 61 93 90
Width: 394
Flags: W
HStem: -190 73<40.4824 246.06> 714 77.0107<49.9121 249.135>
VStem: 246.06 91.2471<-121 717>
LayerCount: 2
Fore
SplineSet
49.912109375 791.010742188 m 1
 334.615234375 791.010742188 l 1
 337.306640625 -190 l 1
 40.482421875 -190 l 1
 37.5 -117 l 1
 246.059570312 -121 l 1
 249.134765625 717 l 1
 43.6416015625 714 l 1
 49.912109375 791.010742188 l 1
EndSplineSet
EndChar

StartChar: less
Encoding: 28 60 91
Width: 450
Flags: W
LayerCount: 2
Fore
SplineSet
179.37109375 337.75 m 1
 415.349609375 198.5 l 1
 376.599609375 122 l 1
 42.150390625 332 l 1
 376.599609375 561 l 1
 415.349609375 484.5 l 1
 179.37109375 337.75 l 1
EndSplineSet
EndChar

StartChar: greater
Encoding: 30 62 92
Width: 450
Flags: W
LayerCount: 2
Fore
SplineSet
274.37890625 347.375 m 1
 34.650390625 484.5 l 1
 73.400390625 561 l 1
 407.849609375 351 l 1
 73.400390625 122 l 1
 34.650390625 198.5 l 1
 274.37890625 347.375 l 1
EndSplineSet
EndChar

StartChar: asciicircum
Encoding: 62 94 93
Width: 392
Flags: W
HStem: 423.5 324.5
LayerCount: 2
Fore
SplineSet
194 748 m 25
 379.5 466.75 l 25
 318.375 423.5 l 25
 195 628.5 l 25
 77.75 429.5 l 25
 12.5 464.5 l 25
 194 748 l 25
EndSplineSet
EndChar

StartChar: asterisk
Encoding: 10 42 94
Width: 401
Flags: W
VStem: 160.607 78.5<674.462 765>
LayerCount: 2
Fore
SplineSet
160.607421875 765 m 1
 239.107421875 765 l 1
 232.916992188 632.287109375 l 1
 350.080078125 678.139648438 l 1
 370.1640625 605.0546875 l 1
 245.99609375 570.955078125 l 1
 328.712890625 459.625 l 1
 269.510742188 419.704101562 l 1
 201.842773438 527.431640625 l 1
 133.2734375 419.704101562 l 1
 75.0712890625 459.625 l 1
 157.788085938 570.955078125 l 1
 31 613.504882812 l 1
 55.6181640625 679.264648438 l 1
 170.868164062 632.287109375 l 1
 160.607421875 765 l 1
EndSplineSet
EndChar

StartChar: sterling
Encoding: 97 163 95
Width: 576
Flags: W
HStem: 0 88.793<166.564 529.039> 286.25 89.5<151.058 416.375> 296.5 75.625<31.125 293.192>
VStem: 60.9297 105.635<88.793 227.921>
LayerCount: 2
Fore
SplineSet
31.125 372.125 m 1xb0
 419.625 375.75 l 1
 416.375 286.25 l 1xd0
 27.875 296.5 l 1
 31.125 372.125 l 1xb0
166.564453125 88.79296875 m 1
 532.659179688 90.4306640622 l 1
 529.0390625 0 l 1
 60.9296875 0 l 1
 81.9187518606 452.125433501 172.996678415 643.005046291 459.430664062 747.6640625 c 1
 488.798828125 661.854492188 l 1
 273.57540061 583.608341186 179.336139786 419.848715896 166.564453125 88.79296875 c 1
EndSplineSet
EndChar

StartChar: braceleft
Encoding: 91 123 96
Width: 474
Flags: W
HStem: -199.681 81.8701<230.508 421.073> 260.727 80.1504<37.5277 159.047> 719.177 81.8701<230.55 421.066>
VStem: 100.84 95.1016<-85.4956 61.1555 529.346 685.949> 169.796 85.3262<117.316 249.229 349.658 460.941>
LayerCount: 2
Fore
SplineSet
296.986328125 801.046875 m 0xf0
 388.712128346 801.046875 442.4609375 769.4765625 442.4609375 769.4765625 c 1
 423.530273438 697.516601562 l 1
 423.530273438 697.516601562 379.499617329 719.176757812 316.407226562 719.176757812 c 0
 235.74194723 719.176757812 194.06640625 688.634312039 194.06640625 612 c 0
 194.06640625 528.846571489 257.725585938 500.839026619 257.725585938 388.993164062 c 0
 257.725585938 320.486954306 198.280273438 296.681640625 198.280273438 296.681640625 c 1
 198.280273438 296.681640625 255.122070312 270.560162193 255.122070312 204.143554688 c 0xe8
 255.122070312 110.54770902 195.94140625 78.7632705984 195.94140625 -20.25 c 0
 195.94140625 -90.7827338487 238.840118039 -117.810546875 315.223266601 -117.810546875 c 0
 390.174018954 -117.810546875 423.530273438 -96.150390625 423.530273438 -96.150390625 c 1
 442.4609375 -168.110351562 l 1
 442.4609375 -168.110351562 388.712128346 -199.680664062 296.986328125 -199.680664062 c 0
 171.129649962 -199.680664062 100.83984375 -145.895507812 100.83984375 -39 c 0xf0
 100.83984375 68.4997648532 169.795898438 118.28413915 169.795898438 198.765625 c 0
 169.795898438 242.507096355 146.042196731 260.7265625 107.493164062 260.7265625 c 0
 72.0576938509 260.7265625 37.5 258.846679688 37.5 258.846679688 c 1
 37.5 344.875 l 1
 37.5 344.875 75.567356176 340.876953125 112.732421875 340.876953125 c 0
 146.246278322 340.876953125 169.795898438 354.750480769 169.795898438 393.12109375 c 0xe8
 169.795898438 463.240850967 100.83984375 493.804591507 100.83984375 622 c 0
 100.83984375 733.947265625 171.129649962 801.046875 296.986328125 801.046875 c 0xf0
EndSplineSet
EndChar

StartChar: braceright
Encoding: 93 125 97
Width: 474
Flags: W
HStem: -199.681 81.8701<52.904 246.735> 260.489 81.4004<314.614 436.47> 719.177 81.8701<52.9671 247.911>
VStem: 216.274 90.5547<142.79 254.383 349.789 482.033> 279.934 93.2266<-83.7205 69.8178 536.259 690.803>
LayerCount: 2
Fore
SplineSet
177.013671875 -199.680664062 m 0xe8
 85.2878716539 -199.680664062 31.5390625 -168.110351562 31.5390625 -168.110351562 c 1
 50.4697265625 -96.150390625 l 1
 50.4697265625 -96.150390625 92.9590247153 -117.810546875 159.526733398 -117.810546875 c 0
 236.803829903 -117.810546875 279.93359375 -89.049180227 279.93359375 -16.8837890625 c 0xe8
 279.93359375 68.6001013197 216.274414062 111.584694202 216.274414062 212.373046875 c 0xf0
 216.274414062 280.879256632 275.719726562 304.684570312 275.719726562 304.684570312 c 1
 275.719726562 304.684570312 218.877929688 330.806048745 218.877929688 397.22265625 c 0
 218.877929688 493.425412958 279.93359375 526.095138572 279.93359375 627.866210938 c 0
 279.93359375 693.880421668 238.15800184 719.176757812 158.717773438 719.176757812 c 0
 85.3990384861 719.176757812 50.4697265625 697.516601562 50.4697265625 697.516601562 c 1
 31.5390625 769.4765625 l 1
 31.5390625 769.4765625 85.2878716539 801.046875 177.013671875 801.046875 c 0
 302.870350038 801.046875 373.16015625 747.26171875 373.16015625 640.366210938 c 0xe8
 373.16015625 530.60582147 306.829101562 479.774525981 306.829101562 397.600585938 c 0
 306.829101562 358.271316964 327.199097805 341.889648438 360.256835938 341.889648438 c 0
 398.856496421 341.889648438 436.5 343.76953125 436.5 343.76953125 c 1
 436.5 256.491210938 l 1
 436.5 256.491210938 395.270164534 260.489257812 355.017578125 260.489257812 c 0
 326.716083313 260.489257812 306.829101562 248.275429166 306.829101562 214.495117188 c 0xf0
 306.829101562 142.460598624 373.16015625 111.062253526 373.16015625 -20.6337890625 c 0
 373.16015625 -132.581054688 302.870350038 -199.680664062 177.013671875 -199.680664062 c 0xe8
EndSplineSet
EndChar

StartChar: cent
Encoding: 96 162 98
Width: 391
Flags: W
HStem: 0 21G<205.5 287.5> 158.934 47.5664<212.5 278.5> 531.5 45.4336<210.5 276.5> 719 20G<201.5 283.5>
VStem: 47.5 86.5<281.692 451.161> 205.5 82<0 88.5 614.5 739> 212.5 66<91.7778 206.5 531.5 663.545>
LayerCount: 2
Fore
SplineSet
287.5 0 m 1xfc
 205.5 0 l 1xfc
 212.5 206.5 l 1
 278.5 206.5 l 1xfa
 287.5 0 l 1xfc
201.5 739 m 1
 283.5 739 l 1
 276.5 531.5 l 1
 210.5 531.5 l 1
 201.5 739 l 1
47.5 369.93359375 m 0
 47.5 496.433681147 122.652696186 576.93359375 240.75 576.93359375 c 0
 342.619575693 576.93359375 385.916992188 534.782226562 385.916992188 534.782226562 c 1
 359.397460938 473.369140625 l 1
 359.397460938 473.369140625 317.75377364 500.68359375 253 500.68359375 c 0
 180.277332525 500.68359375 134 449.837102832 134 369.93359375 c 0
 134 285.141625976 174.093200116 231.18359375 261.25 231.18359375 c 0
 339.414507593 231.18359375 382.8984375 258.489257812 382.8984375 258.489257812 c 1
 401.146484375 191.31640625 l 1
 401.146484375 191.31640625 343.572391561 158.93359375 247 158.93359375 c 0
 125.083249102 158.93359375 47.5 240.988532903 47.5 369.93359375 c 0
EndSplineSet
EndChar

StartChar: asciitilde
Encoding: 94 126 99
Width: 524
Flags: W
HStem: 238.46 223.54
LayerCount: 2
Fore
SplineSet
352.196289062 323.918945312 m 1
 477.48046875 417.905273438 l 1
 516.16015625 356.5 l 1
 346.155273438 238.459960938 l 1
 178.33984375 372.291015625 l 1
 50.9306640625 272.8046875 l 1
 8.5 329.959960938 l 1
 177.880859375 462 l 1
 352.196289062 323.918945312 l 1
EndSplineSet
EndChar

StartChar: numbersign
Encoding: 3 35 100
Width: 704
Flags: W
HStem: 204.875 78.25<206.343 640.875> 214.75 65.125<31.125 462.407> 456.875 78.25<246.85 672.875> 466.75 65.125<75.125 497.9> 718.008 20G<249.655 326.5 509.655 586.5>
LayerCount: 2
Fore
SplineSet
31.125 279.875 m 1x48
 644.125 283.125 l 1
 640.875 204.875 l 1x88
 27.875 214.75 l 1
 31.125 279.875 l 1x48
75.125 531.875 m 1x18
 676.125 535.125 l 1
 672.875 456.875 l 1x28
 71.875 466.75 l 1
 75.125 531.875 l 1x18
372.375 4 m 1
 513.5 738.0078125 l 1
 586.5 727.0078125 l 1
 451.25 -7 l 1
 372.375 4 l 1
112.375 4 m 1
 253.5 738.0078125 l 1
 326.5 727.0078125 l 1
 191.625 -7 l 1
 112.375 4 l 1
EndSplineSet
EndChar

StartChar: five.ss02
Encoding: 737 -1 101
Width: 581
Flags: W
HStem: -10.0664 86.25<117.314 358.052> 385.117 83.1328<186.269 374.71> 641.5 89.5078<177.75 410.25>
VStem: 417.25 74.2666<731.008 798.383> 439.667 92.75<150.131 319.707>
LayerCount: 2
Fore
SplineSet
491.516601562 640.5078125 m 1xf0
 177.75 641.5 l 1
 142.5 421.75 l 1
 142.5 421.75 185.022321429 468.25 301.25 468.25 c 0
 458.65487816 468.25 532.416992188 372.434328611 532.416992188 236.9921875 c 0
 532.416992188 68.8807174514 428.146258149 -10.06640625 264.291992188 -10.06640625 c 0
 98.4765361944 -10.06640625 28 44.0849609375 28 44.0849609375 c 1
 55.625 123.625 l 1
 55.625 123.625 138.126564468 76.18359375 253.041992188 76.18359375 c 0
 378.401708299 76.18359375 439.666992188 137.942248817 439.666992188 234.9921875 c 0xe8
 439.666992188 326.735243056 386.126257323 385.1171875 281.416992188 385.1171875 c 0
 179.414874398 385.1171875 124.0078125 319.68359375 124.0078125 319.68359375 c 1
 46.5 368.25 l 1
 107.5 731.0078125 l 1
 410.25 731.0078125 l 1
 417.25 798.3828125 l 1
 491.516601562 800.0078125 l 1
 491.516601562 640.5078125 l 1xf0
EndSplineSet
Substitution2: "'dnom' Denominators lookup 0 subtable" five.ss02.dnom
Substitution2: "'numr' Numerators lookup 0 subtable" five.ss02.numr
Substitution2: "'subs' Subscript lookup 0 subtable" five.ss02.subscript
Substitution2: "'sinf' Scientific Inferiors lookup 0 subtable" five.ss02.inferior
Substitution2: "'sups' Superscript lookup 0 subtable" five.ss02.superior
EndChar

StartChar: yen
Encoding: 99 165 102
Width: 729
Flags: W
HStem: 0 21G<351.205 459.784> 125.212 75<183 476.65> 255.712 84<406.101 627.25> 263.712 75<185 598.469>
VStem: 351.205 108.579<0 276.53>
LayerCount: 2
Fore
SplineSet
183 200.211914062 m 1xc8
 404 199.211914062 l 1
 626.25 201.211914062 l 1
 625.25 117.211914062 l 1
 395 129.375 l 1
 182 125.211914062 l 1
 183 200.211914062 l 1xc8
185 338.711914062 m 1xd8
 406 332.836914062 l 1
 628.25 339.711914062 l 1
 627.25 255.711914062 l 1xe8
 397 263 l 1
 184 263.711914062 l 1
 185 338.711914062 l 1xd8
EndSplineSet
Refer: 69 89 N 1 0 0 1 0 0 2
EndChar

StartChar: brokenbar
Encoding: 100 166 103
Width: 246
Flags: W
VStem: 83.1914 80.2246<-170 239.44 355.92 788.992>
LayerCount: 2
Back
SplineSet
188.022460938 355.919921875 m 5
 58.7568359375 355.919921875 l 5
 31.169921875 788.9921875 l 5
 215.899414062 788.9921875 l 5
 188.022460938 355.919921875 l 5
189.291015625 239.440429688 m 5
 221.329101562 -170 l 5
 25 -170 l 5
 57.31640625 239.440429688 l 5
 189.291015625 239.440429688 l 5
EndSplineSet
Fore
SplineSet
162.147460938 355.919921875 m 1
 84.6318359377 355.919921875 l 1
 86.669921875 788.9921875 l 1
 160.399414062 788.9921875 l 1
 162.147460938 355.919921875 l 1
163.416015625 239.440429688 m 1
 165.079101562 -170 l 1
 81.25 -170 l 1
 83.19140625 239.440429688 l 1
 163.416015625 239.440429688 l 1
EndSplineSet
EndChar

StartChar: section
Encoding: 101 167 104
Width: 609
Flags: W
VStem: 119.003 95.9736<522.229 632.154> 394.379 95.9736<38.543 147.813>
LayerCount: 2
Fore
SplineSet
69.890625 438.674804688 m 1
 104.677734375 352.695130739 202.060916271 319.721073427 326.131835938 278.893554688 c 0
 442.250206157 239.810405542 490.352539062 181.335397366 490.352539062 102.5 c 0
 490.352539062 -108.239257812 178.838867188 -114.163085938 178.838867188 -114.163085938 c 1
 165.177734375 -30.5234375 l 1
 165.177734375 -30.5234375 394.37890625 -29.9129158897 394.37890625 94.279296875 c 0
 394.37890625 138.710500157 363.734555938 180.982167656 221.08984375 224.623046875 c 0
 117.601707363 255.785651199 43.75 310.929431078 43.75 372.936523438 c 0
 43.75 409.482368815 69.890625 438.674804688 69.890625 438.674804688 c 1
541.33984375 231.575195312 m 1
 506.481118923 317.958450754 407.989768588 350.718190687 283.223632812 392.106445312 c 0
 166.678715484 430.868452353 119.002929688 489.664602634 119.002929688 568.5 c 0
 119.002929688 779.239257812 430.516601562 785.163085938 430.516601562 785.163085938 c 1
 444.177734375 701.5234375 l 1
 444.177734375 701.5234375 214.9765625 700.90741251 214.9765625 575.595703125 c 0
 214.9765625 525.149293855 246.752482011 489.646684015 410.765625 438.876953125 c 0
 502.667336977 410.32816491 565.60546875 356.934959107 565.60546875 298.063476562 c 0
 565.60546875 261.100684111 541.33984375 231.575195312 541.33984375 231.575195312 c 1
EndSplineSet
EndChar

StartChar: currency
Encoding: 98 164 105
Width: 465
Flags: W
HStem: 153.532 80.2158<173.862 301.778> 480.438 80.2168<172.654 301.778>
VStem: 39.0303 77.2393<279.446 432.454> 348.991 77.2383<279.446 432.454>
LayerCount: 2
Fore
SplineSet
302.489257812 213.436523438 m 1
 359.889648438 242.575195312 l 1
 454.259765625 107.265625 l 1
 374.330078125 66.1455078125 l 1
 302.489257812 213.436523438 l 1
172.770507812 213.436523438 m 1
 97.1796875 66.1455078125 l 1
 11 107.265625 l 1
 105.370117188 242.575195312 l 1
 172.770507812 213.436523438 l 1
302.489257812 497.74609375 m 1
 374.330078125 645.036132812 l 1
 454.259765625 600.916015625 l 1
 359.889648438 468.606445312 l 1
 302.489257812 497.74609375 l 1
172.770507812 497.74609375 m 1
 105.370117188 468.606445312 l 1
 11 600.916015625 l 1
 97.1796875 645.036132812 l 1
 172.770507812 497.74609375 l 1
116.26953125 355.671875 m 0
 116.26953125 277.129106576 166.396725496 233.748046875 232.629882812 233.748046875 c 0
 298.868097541 233.748046875 348.991210938 277.129106576 348.991210938 355.671875 c 0
 348.991210938 434.557898639 298.868097541 480.438476562 232.629882812 480.438476562 c 0
 166.396725496 480.438476562 116.26953125 434.557898639 116.26953125 355.671875 c 0
39.0302734375 355.590820312 m 0
 39.0302734375 485.24609375 122.556953243 560.655273438 232.629882812 560.655273438 c 0
 342.702812381 560.655273438 426.229492188 485.24609375 426.229492188 355.590820312 c 0
 426.229492188 225.424804688 342.702812381 153.532226562 232.629882812 153.532226562 c 0
 122.556953243 153.532226562 39.0302734375 225.424804688 39.0302734375 355.590820312 c 0
EndSplineSet
EndChar

StartChar: dieresis
Encoding: 102 168 106
Width: 450
Flags: W
HStem: 634.008 105<85.6518 174.348 275.652 364.348>
VStem: 77.5 105<642.16 730.856> 267.5 105<642.16 730.856>
LayerCount: 2
Fore
SplineSet
267.5 686.5078125 m 0
 267.5 718.591352983 287.916459517 739.0078125 320 739.0078125 c 0
 352.083540483 739.0078125 372.5 718.591352983 372.5 686.5078125 c 0
 372.5 654.424272017 352.083540483 634.0078125 320 634.0078125 c 0
 287.916459517 634.0078125 267.5 654.424272017 267.5 686.5078125 c 0
77.5 686.5078125 m 0
 77.5 718.591352983 97.916459517 739.0078125 130 739.0078125 c 0
 162.083540484 739.0078125 182.5 718.591352983 182.5 686.5078125 c 0
 182.5 654.424272017 162.083540484 634.0078125 130 634.0078125 c 0
 97.916459517 634.0078125 77.5 654.424272017 77.5 686.5078125 c 0
EndSplineSet
EndChar

StartChar: guillemotleft
Encoding: 105 171 107
Width: 632
Flags: W
HStem: 491 20G<293.211 331.559>
LayerCount: 2
Fore
SplineSet
429.845703125 263.875 m 1
 604.19921875 114.375 l 1
 558.19921875 57 l 1
 318.5 260 l 1
 563.57421875 469 l 1
 604.19921875 415 l 1
 429.845703125 263.875 l 1
139.470703125 258.125 m 1
 364.19921875 66 l 1
 316.94921875 2 l 1
 18.5 252 l 1
 316.19921875 511 l 1
 364.19921875 448.5 l 1
 139.470703125 258.125 l 1
EndSplineSet
EndChar

StartChar: guillemotright
Encoding: 121 187 108
Width: 632
Flags: W
HStem: 491 20G<299.984 338.626>
LayerCount: 2
Fore
SplineSet
201.853515625 249.125 m 1
 27.5 398.625 l 1
 73.5 456 l 1
 313.19921875 253 l 1
 68.125 44 l 1
 27.5 98 l 1
 201.853515625 249.125 l 1
492.228515625 254.875 m 1
 267.5 447 l 1
 314.75 511 l 1
 613.19921875 261 l 1
 315.5 2 l 1
 267.5 64.5 l 1
 492.228515625 254.875 l 1
EndSplineSet
EndChar

StartChar: logicalnot
Encoding: 106 172 109
Width: 497
Flags: W
HStem: 300.25 68.5<55.5 370>
VStem: 366 79.5<158.824 295.216>
LayerCount: 2
Fore
SplineSet
55.5 368.75 m 1
 443.5 369.75 l 1
 445.5 156 l 1
 366 158.82421875 l 1
 370 295.215820312 l 1
 53.5 300.25 l 1
 55.5 368.75 l 1
EndSplineSet
EndChar

StartChar: macron
Encoding: 109 175 111
Width: 330
Flags: W
HStem: 656.633 74.375<87.9777 307.375> 665.758 62<23 240.772>
VStem: 23 286
LayerCount: 2
Fore
SplineSet
23 727.7578125 m 1x60
 309 731.0078125 l 1
 307.375 656.6328125 l 1xa0
 21.375 665.7578125 l 1
 23 727.7578125 l 1x60
EndSplineSet
EndChar

StartChar: mu
Encoding: 115 181 112
Width: 633
Flags: W
HStem: -9.93164 77.375<195.557 348.344> 0 71.0518<500.349 611.88> 489.002 8G<70.3408 157.67 416.56 497.796>
VStem: 52.5 84.625<-20.8458 469.603> 416.75 80.9199<190.568 497.002>
LayerCount: 2
Fore
SplineSet
137.125 231.318359375 m 0x38
 137.125 0.105134097785 166.5 -172.625 166.5 -172.625 c 1
 79.5 -187 l 1
 79.5 -187 52.5 -6.66644428042 52.5 208.068359375 c 0
 52.5 356.067568079 70.3408203125 509.001953125 70.3408203125 509.001953125 c 1
 157.669921875 501.126953125 l 1
 157.669921875 501.126953125 137.125 356.927987125 137.125 231.318359375 c 0x38
262.25 -9.931640625 m 0xb8
 150.56097789 -9.931640625 89.3027544349 83.133859269 77 159.318359375 c 1
 126.25 260.068359375 l 1
 129.621900826 129.361464699 186.348834829 67.443359375 262.25 67.443359375 c 0
 341.660232447 67.443359375 412.01923077 104.736622019 424.5 260.068359375 c 1
 456.25 190.568359375 l 1
 426.966981132 79.9172111477 394.74892932 -9.931640625 262.25 -9.931640625 c 0xb8
412.020507812 0 m 1x78
 416.75 497.001953125 l 1
 497.669921875 497.001953125 l 1
 500.348632812 71.0517578125 l 1
 615.5 73.0556640625 l 1
 611.879882812 0 l 1
 412.020507812 0 l 1x78
EndSplineSet
EndChar

StartChar: acute
Encoding: 114 180 113
Width: 230
Flags: W
HStem: 526.72 213.784
VStem: 11 208.518
LayerCount: 2
Fore
SplineSet
165.090820312 740.50390625 m 1
 219.517578125 685.43359375 l 1
 46.9375 526.719726562 l 1
 11 564.965820312 l 1
 165.090820312 740.50390625 l 1
EndSplineSet
EndChar

StartChar: plusminus
Encoding: 111 177 114
Width: 450
Flags: W
HStem: 114 77.625<173.644 430> 125.25 66<21 274.356> 159.25 27.625<178.75 223> 373.5 73<21 278.467>
VStem: 194.625 64.75<307.819 609.5>
LayerCount: 2
Fore
SplineSet
21 446.5 m 1x18
 223 443.5 l 1
 432 448.75 l 1
 431 362.25 l 1
 223 377.5 l 1
 19 373.5 l 1
 21 446.5 l 1x18
266.25 609.5 m 1
 259.375 424 l 1
 265.25 157.25 l 1
 178.75 159.25 l 1x38
 194.625 425 l 1
 187.75 612.5 l 1
 266.25 609.5 l 1
21 191.25 m 1x58
 223 186.875 l 1x38
 432 191.625 l 1
 430 114 l 1x98
 18 125.25 l 1
 21 191.25 l 1x58
EndSplineSet
EndChar

StartChar: copyright
Encoding: 103 169 116
Width: 795
Flags: W
HStem: -10.0664 59.627<275.779 524.337> 139.745 68.2201<333.882 520.934> 523.991 65.19<340.661 509.829> 681.89 57.0439<279.309 520.781>
VStem: 30 63<233.373 492.923> 195.819 75.1498<271.407 452.662> 705.367 59.6328<233.373 492.923>
LayerCount: 2
Fore
SplineSet
195.819433594 362.9453125 m 0
 195.819433594 501.200345084 279.516016989 589.180664062 411.039453125 589.180664062 c 0
 515.844346802 589.180664062 560.389355469 543.489257812 560.389355469 543.489257812 c 1
 533.437695312 488.177026367 l 1
 533.437695312 488.177026367 489.171378022 523.990625 420.339550782 523.990625 c 0
 329.057149176 523.990625 270.969262695 461.362793111 270.969262695 362.9453125 c 0
 270.969262695 268.234898588 320.693665664 207.965185547 417.939355469 207.965185547 c 0
 502.711155642 207.965185547 545.648632812 244.013940429 545.648632812 244.013940429 c 1
 569.527050782 182.124804688 l 1
 569.527050782 182.124804688 529.432252083 139.745117188 405.039453125 139.745117188 c 0
 277.182686189 139.745117188 195.819433594 226.544541099 195.819433594 362.9453125 c 0
30 361.93359375 m 0
 30 592.322641811 172.722067272 738.93359375 397 738.93359375 c 0
 621.889353198 738.93359375 765 592.322641811 765 361.93359375 c 0
 765 134.599173678 621.889353198 -10.06640625 397 -10.06640625 c 0
 172.722067272 -10.06640625 30 134.599173678 30 361.93359375 c 0
93 361.93359375 m 0
 93 171.038543369 211.610052083 49.560546875 398 49.560546875 c 0
 585.835999059 49.560546875 705.3671875 171.038543369 705.3671875 361.93359375 c 0
 705.3671875 557.463841324 585.835999059 681.889648438 398 681.889648438 c 0
 211.610052083 681.889648438 93 557.463841324 93 361.93359375 c 0
EndSplineSet
EndChar

StartChar: registered
Encoding: 108 174 117
Width: 795
Flags: W
HStem: -10.0664 59.627<275.779 524.337> 518.663 65.7305<262.191 477.948> 518.663 21.9348<301.718 335.656> 681.89 57.0439<279.309 520.781>
VStem: 30 63<233.373 492.923> 264.916 72.7393<140.998 309.003 354.405 540.598> 511.259 70.3953<374.336 485.848> 705.367 59.6328<233.373 492.923>
LayerCount: 2
Fore
SplineSet
337.65546875 140.9984375 m 1xbf
 264.916210938 140.9984375 l 1
 268.618359375 540.598242188 l 1
 335.656445312 540.598242188 l 1
 337.65546875 140.9984375 l 1xbf
325.621679688 354.404687501 m 1
 325.621679688 354.404687501 344.411415533 341.913574219 403.319671631 341.913574219 c 0
 471.966071816 341.913574219 511.259399414 379.745451658 511.259399414 429.378881836 c 0
 511.259399414 484.554677977 472.679956671 518.663476563 389.163964844 518.663476563 c 0
 301.718419101 518.663476563 205.935742188 477.629882812 205.935742188 477.629882812 c 1
 188.10390625 543.052734375 l 1
 188.10390625 543.052734375 250.723587052 584.393945312 398.054492188 584.393945312 c 0xdf
 510.254803102 584.393945312 581.6546875 525.346726733 581.6546875 432.558398438 c 0
 581.6546875 356.004974588 530.923069313 310.787278115 472.452453613 300.41696167 c 0
 448.734591206 293.984598269 429.207910156 294.022607421 429.207910156 294.022607421 c 1
 591.816601562 182.078759766 l 1
 549.246191406 122.348242188 l 1
 303.008398438 309.003271484 l 1
 325.621679688 354.404687501 l 1
30 361.93359375 m 0
 30 592.322641811 172.722067272 738.93359375 397 738.93359375 c 0
 621.889353198 738.93359375 765 592.322641811 765 361.93359375 c 0
 765 134.599173678 621.889353198 -10.06640625 397 -10.06640625 c 0
 172.722067272 -10.06640625 30 134.599173678 30 361.93359375 c 0
93 361.93359375 m 0
 93 171.038543369 211.610052083 49.560546875 398 49.560546875 c 0
 585.835999059 49.560546875 705.3671875 171.038543369 705.3671875 361.93359375 c 0
 705.3671875 557.463841324 585.835999059 681.889648438 398 681.889648438 c 0
 211.610052083 681.889648438 93 557.463841324 93 361.93359375 c 0
EndSplineSet
EndChar

StartChar: degree
Encoding: 110 176 118
Width: 429
Flags: W
HStem: 373.613 71.0527<147.243 282.029> 667.843 71.1494<147.243 282.029>
VStem: 33.5 75.1338<485.191 628.278> 320.934 75.166<485.191 628.278>
LayerCount: 2
Fore
SplineSet
108.633789062 557.166015625 m 0
 108.633789062 488.417105538 149.794335381 444.666015625 214.479492188 444.666015625 c 0
 279.534895057 444.666015625 320.93359375 488.417105538 320.93359375 557.166015625 c 0
 320.93359375 624.802587898 279.534895057 667.842773438 214.479492188 667.842773438 c 0
 149.794335381 667.842773438 108.633789062 624.802587898 108.633789062 557.166015625 c 0
33.5 557.262695312 m 0
 33.5 668.31955517 103.880863141 738.9921875 214.479492188 738.9921875 c 0
 325.469715301 738.9921875 396.099609375 668.31955517 396.099609375 557.262695312 c 0
 396.099609375 445.03202932 325.469715301 373.61328125 214.479492188 373.61328125 c 0
 103.880863141 373.61328125 33.5 445.03202932 33.5 557.262695312 c 0
EndSplineSet
EndChar

StartChar: AE
Encoding: 132 198 119
Width: 960
Flags: W
HStem: 0 88.9805<596.518 926.539> 194.25 89.5<252 562.75> 319.25 89.5<530.302 874.75> 326.5 81.625<522 862.448> 635.58 95.4277<226.5 495.496 593.604 918.729>
VStem: 518 78.5176<326.5 408.125>
LayerCount: 2
Fore
SplineSet
252 282.75 m 1xcc
 566.75 283.75 l 1
 562.75 194.25 l 1
 218 201.125 l 1
 252 282.75 l 1xcc
918.729492188 731.010742188 m 1
 924.61328125 636.5 l 1
 593.603515625 640.5 l 1
 596.517578125 88.98046875 l 1
 659.064453125 88.79296875 l 1
 930.159179688 90.4306640622 l 1
 926.5390625 0 l 1
 490.9296875 0 l 1
 495.651367188 642.583984375 l 1
 217.5 635.580078125 l 1
 226.5 731.0078125 l 1
 918.729492188 731.010742188 l 1
522 408.125 m 1xdc
 878 408.75 l 1
 874.75 319.25 l 1xec
 518 326.5 l 1
 522 408.125 l 1xdc
546 662.25 m 1
 105.819335938 -15 l 1
 17.7734375 46.25 l 1
 478.25 706.75 l 1
 546 662.25 l 1
EndSplineSet
EndChar

StartChar: ae
Encoding: 164 230 120
Width: 883
Flags: W
HStem: -23.9004 76.0508<620.98 781.819> -10.0664 73.875<161.999 325.812> 205.5 68.75<457.125 780.375> 269.309 67.625<158.02 326.45> 429.934 77<544.247 714.041> 501 20G<162.161 165.5>
VStem: 33.75 81.5<105.983 229.783> 370.25 89.7236<162.236 366.347> 370.25 75<104.679 170.943> 780.75 87.3691<238.902 365.119>
LayerCount: 2
Fore
SplineSet
370.25 170.93359375 m 0x5340
 370.25 227.855581607 320.277569673 269.30859375 241.75 269.30859375 c 0
 160.69424259 269.30859375 115.25 227.065498784 115.25 169.05859375 c 0
 115.25 105.646673793 165.02757353 63.80859375 243.25 63.80859375 c 0
 324.610905436 63.80859375 370.25 106.392007761 370.25 170.93359375 c 0x5340
445.25 152.80859375 m 0x52c0
 445.25 99.4061033464 392.305945461 -10.06640625 238 -10.06640625 c 0
 113.180342454 -10.06640625 33.75 58.7666015625 33.75 166.93359375 c 0
 33.75 270.823242188 109.62420005 336.93359375 228.75 336.93359375 c 0
 379.73170348 336.93359375 445.25 235.764668438 445.25 152.80859375 c 0x52c0
459.973632812 162.176757812 m 1x0740
 370.895507812 177.25 l 1
 370.895507812 177.25 374.5 251.74157964 374.5 294.625 c 0
 374.5 440.320411518 153.25 447.625 153.25 447.625 c 1
 165.5 521 l 1
 165.5 521 457.294921875 513.756376544 457.294921875 293.251953125 c 0
 457.294921875 243.767095931 459.973632812 162.176757812 459.973632812 162.176757812 c 1x0740
EndSplineSet
Refer: 9 101 N 1 0 0 1 353.75 0 2
EndChar

StartChar: cedilla
Encoding: 118 184 121
Width: 227
Flags: W
HStem: -248 53.75<14.625 112.055> -100.5 46<80.75 117.137>
VStem: 126.125 67.125<-177.681 -113.194>
LayerCount: 2
Fore
SplineSet
40.75 20 m 1
 98.75 17 l 1
 80.75 -54.5 l 1
 98.75 -54.5 193.25 -66.1266884864 193.25 -141.625 c 0
 193.25 -217.826358449 124.099365482 -243.687053572 14.625 -248 c 1
 9.75 -194.25 l 1
 84.7704545455 -193.59034091 126.125 -180.212095762 126.125 -145.875 c 0
 126.125 -114.980788457 100.807013151 -102.306283401 25.625 -100.5 c 1
 16.75 -70.75 l 1
 40.75 20 l 1
EndSplineSet
EndChar

StartChar: paragraph
Encoding: 116 182 124
Width: 823
Flags: W
HStem: 640.992 98<415.1 529.122>
VStem: 47.5 367.6<381.214 596.107> 309.5 105.6<-173.994 102.663> 320 95.0996<-35.6654 242.369> 535 104<-173.994 408.582> 535 94.2607<53.9809 636.557>
LayerCount: 2
Fore
SplineSet
775.5 713.859375 m 1xc0
 765.625 624.234375 l 1
 765.625 624.234375 679.945196544 635.745263371 629.260742188 636.556640625 c 1xc4
 639 -173.994140625 l 1
 535 -173.994140625 l 1x88
 535 639.8671875 l 1
 535 639.8671875 445.177876284 640.9921875 415.099609375 640.9921875 c 1x94
 415.099609375 -173.994140625 l 1
 309.5 -173.994140625 l 1xa0
 320 240.9921875 l 1x90
 160.373195747 253.871308694 47.5 324.077035731 47.5 485.9921875 c 0
 47.5 667.805875713 167.499936311 738.9921875 395.5 738.9921875 c 0
 635.719451122 738.9921875 775.5 713.859375 775.5 713.859375 c 1xc0
EndSplineSet
EndChar

StartChar: Eth
Encoding: 142 208 125
Width: 783
Flags: W
HStem: -10.0664 94.875<265.873 503.232> 307.375 88.375<137.455 464.25> 316.5 76<40.25 365.045> 643.867 95.125<182.899 494.435>
VStem: 160.771 102.732<98.5967 656.125> 647.917 98.5<234.418 491.422>
LayerCount: 2
Fore
SplineSet
40.25 392.5 m 1xbc
 466.25 395.75 l 1
 464.25 307.375 l 1xdc
 38.25 316.5 l 1
 40.25 392.5 l 1xbc
EndSplineSet
Refer: 57 68 N 1 0 0 1 0 0 2
EndChar

StartChar: eth
Encoding: 174 240 126
Width: 585
Flags: W
HStem: -10.0664 82.0498<199.313 373.376> 422.384 84.5498<198.58 376.209>
VStem: 31.875 87.625<154.376 344.774> 457 96.5<160.225 341.938>
LayerCount: 2
Fore
SplineSet
143.401367188 614.170898438 m 1
 331.190429688 695.650390625 l 1
 463.33984375 771.794921875 l 1
 504.955078125 685.14453125 l 1
 359.8671875 629.504882812 l 1
 181.368164062 534.965820312 l 1
 143.401367188 614.170898438 l 1
119.5 252.858398438 m 0
 119.5 142.323469623 184.648323151 71.9833984375 287.025390625 71.9833984375 c 0
 390.899204252 71.9833984375 457 142.323469623 457 252.858398438 c 0
 457 356.457847111 390.899204252 422.383789062 287.025390625 422.383789062 c 0
 184.648323151 422.383789062 119.5 356.457847111 119.5 252.858398438 c 0
31.875 249.93359375 m 0
 31.875 406.989257812 126.715174813 506.93359375 275.75 506.93359375 c 0
 406.351943678 506.93359375 444.40234375 437.057617188 444.40234375 437.057617188 c 1
 403.938974726 635.803083224 232.021484375 723.267578125 232.021484375 723.267578125 c 1
 311.770507812 782.510742188 l 1
 311.770507812 782.510742188 553.5 639.959487241 553.5 312 c 0
 553.5 76.5609773511 446.111447357 -10.06640625 287 -10.06640625 c 0
 131.090170063 -10.06640625 31.875 91.0439453125 31.875 249.93359375 c 0
EndSplineSet
EndChar

StartChar: multiply
Encoding: 149 215 127
Width: 450
Flags: W
LayerCount: 2
Fore
SplineSet
368.034179688 568.0859375 m 1
 429 511.36328125 l 1
 251.17578125 335.126953125 l 1
 86.4111328122 158.670898438 l 1
 23.12109375 221.7578125 l 1
 211.818359375 389.594726562 l 1
 368.034179688 568.0859375 l 1
84.0869140625 568.0859375 m 1
 250.302734375 389.594726562 l 1
 429 221.7578125 l 1
 365.709960938 158.670898438 l 1
 205.9453125 335.126953125 l 1
 23.12109375 511.36328125 l 1
 84.0869140625 568.0859375 l 1
EndSplineSet
EndChar

StartChar: divide
Encoding: 181 247 128
Width: 450
Flags: W
HStem: 165 116<177.52 272.48> 335.25 71.5<40 411> 458 116<177.52 272.48>
VStem: 167 116<175.519 270.481 468.519 563.481>
LayerCount: 2
Fore
SplineSet
167 516 m 0
 167 551.444893973 189.555555556 574 225 574 c 0
 260.444444444 574 283 551.444893973 283 516 c 0
 283 480.555106027 260.444444444 458 225 458 c 0
 189.555555556 458 167 480.555106027 167 516 c 0
39 406.75 m 1
 415 410.75 l 1
 411 331.25 l 1
 40 335.25 l 1
 39 406.75 l 1
167 223 m 0
 167 258.444893973 189.555555556 281 225 281 c 0
 260.444444444 281 283 258.444893973 283 223 c 0
 283 187.555106027 260.444444444 165 225 165 c 0
 189.555555556 165 167 187.555106027 167 223 c 0
EndSplineSet
EndChar

StartChar: Oslash
Encoding: 150 216 129
Width: 785
Flags: W
HStem: -10.0664 93.1006<282.753 495.136> 645.833 93.1006<285.57 492.187>
VStem: 42.25 94.9873<241.36 484.266> 647.763 94.9873<241.36 484.266>
LayerCount: 2
Fore
SplineSet
705.44921875 733.68359375 m 1
 438.080078125 352.799804688 l 1
 179.87890625 -75.375 l 1
 97.05078125 -24.5 l 1
 383.279296875 380.825195312 l 1
 627.720703125 783.80859375 l 1
 705.44921875 733.68359375 l 1
EndSplineSet
Refer: 43 79 N 1 0 0 1 0 0 2
EndChar

StartChar: oslash
Encoding: 182 248 130
Width: 565
Flags: W
HStem: -10.0664 80.1748<195.99 368.258> 426.759 80.1748<195.99 368.258>
VStem: 31.875 85.75<153.183 345.282> 446.375 87.125<153.183 345.282>
LayerCount: 2
Fore
SplineSet
502.7890625 500.138671875 m 1
 311.169921875 234.815429688 l 1
 135.060546875 -48.5302734375 l 1
 67.4609375 -3.900390625 l 1
 261.47265625 261.124023438 l 1
 439.28125 545.12890625 l 1
 502.7890625 500.138671875 l 1
EndSplineSet
Refer: 3 111 N 1 0 0 1 0 0 2
EndChar

StartChar: Thorn
Encoding: 156 222 131
Width: 714
Flags: W
HStem: 0 21G<151.458 257.787> 124.934 84.625<293.385 510.162> 524.367 85.625<292.962 504.795> 642.584 88.4268<41.248 155.779>
VStem: 151.458 106.329<0 186.934 259.877 473.428 548.341 642.584> 581.417 93<276.969 450.767>
LayerCount: 2
Fore
SplineSet
241.696289062 259.876953125 m 1
 241.696289062 259.876953125 289.421459665 209.55859375 412.916992188 209.55859375 c 0
 520.598028054 209.55859375 581.416992188 267.059971587 581.416992188 359.93359375 c 0
 581.416992188 470.036290375 517.701532758 524.3671875 402.166992188 524.3671875 c 0
 307.022523691 524.3671875 236.76953125 473.427734375 236.76953125 473.427734375 c 1
 209.25 548.340820312 l 1
 209.25 548.340820312 287.772515746 609.9921875 413.166992188 609.9921875 c 0
 574.340002634 609.9921875 674.416992188 517.142383873 674.416992188 354.93359375 c 0
 674.416992188 215.441813151 578.383460581 124.93359375 423.166992188 124.93359375 c 0
 291.833474661 124.93359375 212.7578125 186.93359375 212.7578125 186.93359375 c 1
 241.696289062 259.876953125 l 1
252.357421875 731.010742188 m 1
 257.787109375 0 l 1
 151.458007812 0 l 1
 155.779296875 642.583984375 l 1
 37.6279296875 640.580078125 l 1
 41.248046875 731.010742188 l 1
 252.357421875 731.010742188 l 1
EndSplineSet
EndChar

StartChar: thorn
Encoding: 188 254 132
Width: 662
Flags: W
HStem: -10.0664 79<294.969 465.318> 428.684 78.25<295.644 465.318> 682.834 72.1768<21.1201 124.651>
VStem: 124.651 81.0781<-174 682.834> 158.875 52.2842<93.6992 390.335> 546.125 85.875<152.88 345.823>
LayerCount: 2
Fore
SplineSet
215.375 249.93359375 m 0xe4
 215.375 139.322089844 279.200774795 68.93359375 379.5 68.93359375 c 0
 481.327416159 68.93359375 546.125 139.322089844 546.125 249.93359375 c 0
 546.125 359.170704634 481.327416159 428.68359375 379.5 428.68359375 c 0
 279.200774795 428.68359375 215.375 359.170704634 215.375 249.93359375 c 0xe4
158.875 255.43359375 m 0xec
 158.875 390.334516532 240.26108635 506.93359375 393.625 506.93359375 c 0
 539.299291778 506.93359375 632 406.989257812 632 249.93359375 c 0
 632 91.0439453125 539.299291778 -10.06640625 393.625 -10.06640625 c 0
 250.166217821 -10.06640625 158.875 93.6992278338 158.875 255.43359375 c 0xec
205.729492188 755.010742188 m 1xf4
 211.159179688 -174 l 1xec
 120.330078125 -174 l 1
 124.651367188 682.833984375 l 1
 17.5 680.830078125 l 1
 21.1201171875 755.010742188 l 1
 205.729492188 755.010742188 l 1xf4
EndSplineSet
EndChar

StartChar: kgreenlandic
Encoding: 246 312 133
Width: 593
Flags: W
HStem: 0 21G<142.83 233.659> 425.584 71.4268<21.1201 147.151> 494 20G<463.786 506.757>
VStem: 142.83 90.8291<0 425.584>
LayerCount: 2
Fore
SplineSet
486.625 514 m 1xb0
 544 457 l 1
 305.125 254.625 l 1
 563 50.875 l 1
 504.75 -17 l 1
 192 256 l 1
 486.625 514 l 1xb0
228.229492188 497.010742188 m 1xd0
 233.659179688 0 l 1
 142.830078125 0 l 1
 147.151367188 425.583984375 l 1
 17.5 423.580078125 l 1
 21.1201171875 497.010742188 l 1
 228.229492188 497.010742188 l 1xd0
EndSplineSet
EndChar

StartChar: Eng
Encoding: 264 330 134
Width: 830
Flags: W
HStem: 0 21G<151.33 257.659> 642.584 88.4268<41.1201 155.651> 644.742 94.25<365.458 570.167>
VStem: 151.33 106.329<0 642.584> 661.622 102<156.098 543.734>
LayerCount: 2
Back
SplineSet
242.872070312 445.9921875 m 1xb8
 269.833984375 629.037109375 354.87109375 738.9921875 530.872070312 738.9921875 c 0
 688.88671875 738.9921875 785.872070312 652.708007812 785.872070312 430.9921875 c 0
 785.872070312 211.653320312 768.03125 -15 768.03125 -15 c 1
 546.702148438 0 l 1
 546.702148438 0 566.872070312 216.249023438 566.872070312 393.9921875 c 0
 566.872070312 495.55078125 538.45703125 553.9921875 457.872070312 553.9921875 c 0
 375.891601562 553.9921875 326.822265625 510.404296875 300.872070312 398.9921875 c 1
 242.872070312 445.9921875 l 1xb8
334.729492188 731.010742188 m 1
 340.159179688 0 l 1
 123.830078125 0 l 1
 128.151367188 560.083984375 l 1
 10 558.080078125 l 1
 13.6201171875 731.010742188 l 1
 334.729492188 731.010742188 l 1
EndSplineSet
Fore
SplineSet
182.872070312 445.9921875 m 1xb8
 211.706721608 629.037109375 302.649032965 738.9921875 490.872070312 738.9921875 c 0
 649.967306878 738.9921875 763.622070312 652.708007812 763.622070312 430.9921875 c 0
 763.622070312 274.59375 749.051757812 29.9814453125 749.051757812 29.9814453125 c 1
 573.892578125 -187.018554688 l 1
 490.642578125 -126.143554688 l 1
 649.09765625 53.6064453125 l 1
 649.09765625 53.6064453125 661.622070312 271.916672541 661.622070312 411.4921875 c 0
 661.622070312 559.54557495 610.984125082 644.7421875 467.372070312 644.7421875 c 0
 341.268386144 644.7421875 265.788861735 575.634289945 225.872070312 398.9921875 c 1
 182.872070312 445.9921875 l 1xb8
252.229492188 731.010742188 m 1xd8
 257.659179688 0 l 1
 151.330078125 0 l 1
 155.651367188 642.583984375 l 1
 37.5 640.580078125 l 1
 41.1201171875 731.010742188 l 1
 252.229492188 731.010742188 l 1xd8
EndSplineSet
EndChar

StartChar: eng
Encoding: 265 331 135
Width: 633
Flags: W
HStem: 0 21G<141.455 232.659> 425.95 71.0518<21.1201 145.776> 428.934 78<299.362 448.273>
VStem: 141.455 91.2041<0 272.684> 497.75 86.5<21.7341 372.804>
LayerCount: 2
Back
SplineSet
188 253.93359375 m 5xb8
 210.000338808 411.989257812 279.388472577 506.93359375 423 506.93359375 c 4
 558.0703125 506.93359375 628 429.158131451 628 278.93359375 c 4
 628 134.376986611 610.159179688 -15 610.159179688 -15 c 5
 415.830078125 0 l 5
 415.830078125 0 436 138.277935542 436 251.93359375 c 4
 436 312.868913517 418.012695312 347.93359375 367 347.93359375 c 4
 307.390237894 347.93359375 282.693825662 311.094726562 266 216.93359375 c 5
 188 253.93359375 l 5xb8
EndSplineSet
Fore
SplineSet
497.75 259.43359375 m 0xb8
 497.75 367.022517714 465.816017039 428.93359375 375.25 428.93359375 c 0
 282.736829603 428.93359375 239.533486857 365.589234329 218.5 235.68359375 c 1
 171.75 272.68359375 l 1
 192.463084942 410.025646345 257.791274714 506.93359375 393 506.93359375 c 0
 519.010718368 506.93359375 584.25 429.158131451 584.25 278.93359375 c 0
 584.25 170.142989767 568.409179688 0 568.409179688 0 c 1
 437.25 -184 l 1
 361.299926758 -132.700073242 l 1
 479.054931641 15.0750732422 l 1
 479.054931641 15.0750732422 497.75 164.132656507 497.75 259.43359375 c 0xb8
227.229492188 497.001953125 m 1xd8
 232.659179688 0 l 1
 141.455078125 0 l 1
 145.776367188 425.950195312 l 1
 17.5 423.946289062 l 1
 21.1201171875 497.001953125 l 1
 227.229492188 497.001953125 l 1xd8
EndSplineSet
EndChar

StartChar: OE
Encoding: 272 338 136
Width: 1128
Flags: W
HStem: -10.0664 93.1006<282.753 495.136> 0 88.9805<764.643 1094.66> 319.25 89.5<698.427 1042.88> 326.5 81.625<690.125 1030.57> 640.5 90.5107<761.729 1086.85> 645.833 93.1006<285.57 492.187>
VStem: 42.25 94.9873<241.36 484.266> 647.763 94.9873<241.36 484.266> 686.125 78.5176<326.5 408.125>
LayerCount: 2
Fore
SplineSet
690.125 408.125 m 1x1280
 1046.125 408.75 l 1
 1042.875 319.25 l 1x2280
 686.125 326.5 l 1
 690.125 408.125 l 1x1280
1086.85449219 731.010742188 m 1x4a80
 1092.73828125 636.5 l 1
 761.728515625 640.5 l 1
 764.642578125 88.98046875 l 1
 787.189453125 88.79296875 l 1
 1098.28417969 90.4306640622 l 1
 1094.6640625 0 l 1
 659.0546875 0 l 1
 663.776367188 731.010742188 l 1
 1086.85449219 731.010742188 l 1x4a80
EndSplineSet
Refer: 43 79 N 1 0 0 1 0 0 2
EndChar

StartChar: longs
Encoding: 317 383 138
Width: 401
Flags: W
HStem: 0 21G<146.835 237.387> 425.5 68.625<37.5 187> 718.499 79.3447<286.567 335.839>
VStem: 122.369 88.4082<497.181 657.179> 149.494 83.8936<0 543.292> 149.494 37.5059<425.5 494.125>
LayerCount: 2
Fore
SplineSet
149.484375 412.096679688 m 2xe8
 149.49091194 413.106858318 149.494140625 414.107770821 149.494140625 415.099609375 c 0xe8
 149.494140625 502.910348249 122.369140625 525.527902678 122.369140625 595 c 0
 122.369140625 717.364313898 199.253240766 769.926056109 334.51953125 797.84375 c 1
 349.4765625 718.499023438 l 1
 248.559676577 695.943172288 210.77734375 657.334234122 210.77734375 584.75 c 0xf0
 210.77734375 535.882429642 232.32117917 490.67048674 233.387695312 399.96484375 c 2
 237.38671875 0 l 1
 146.834960938 0 l 1
 149.484375 412.096679688 l 2xe8
187 425.5 m 1xe4
 34.5 422.375 l 1
 37.5 497 l 1
 190 494.125 l 1
 187 425.5 l 1xe4
EndSplineSet
EndChar

StartChar: uni018F
Encoding: 318 399 139
Width: 761
Flags: W
HStem: -9.99805 92.75<262.652 481.002> 333.244 84.5<143.162 639.06> 658.88 95.7979<169.663 360.534>
VStem: 42.25 99<202.242 330.996>
LayerCount: 2
Back
SplineSet
20 361.93359375 m 0
 20 592.358449127 162.722067273 738.9921875 387 738.9921875 c 0
 692.703602516 738.9921875 740.809570312 528.036293548 740.809570312 395.250976562 c 0
 740.809570312 330.260178936 729.916992188 282.840820312 729.916992188 282.840820312 c 5
 148 284 l 5
 137 441 l 1
 505.647460938 445.427734375 l 1
 505.647460938 445.427734375 494.816386769 543.9921875 381 543.9921875 c 0
 300.33283944 543.9921875 249 476.30370791 249 369.93359375 c 0
 249 231.45533579 353.417075805 194.391339376 594.1484375 183.364257812 c 1
 571.146484375 -25.68359375 l 1
 248.292348682 -22.428262906 20 98.1280331654 20 361.93359375 c 0
EndSplineSet
Fore
SplineSet
718.559570312 357.060546875 m 0
 718.559570312 132.746806831 586.823602224 -9.998046875 379.809570312 -9.998046875 c 0
 88.1465250842 -9.998046875 42.25 194.820791431 42.25 319.714477539 c 0
 42.25 378.760741329 53.142578125 418.903320312 53.142578125 418.903320312 c 1
 639.059570312 417.744140625 l 1
 650.059570312 333.244140625 l 1
 143.162109375 331.44140625 l 1
 143.162109375 331.44140625 141.25 320.202449031 141.25 306.375 c 0
 141.25 200.234853634 197.766565513 82.751953125 378.005981445 82.751953125 c 0
 524.407675557 82.751953125 616.184570312 178.971433711 616.184570312 349.060546875 c 0
 616.184570312 579.01924672 477.840280422 648.216165093 161.911132812 658.879882812 c 1
 169.663085938 754.677734375 l 1
 511.11755416 751.338420391 718.559570312 627.671934681 718.559570312 357.060546875 c 0
EndSplineSet
EndChar

StartChar: ordfeminine
Encoding: 104 170 140
Width: 468
Flags: W
HStem: 289.5 59<63.75 417.25> 402 65<134.014 266.795> 410 58<382.375 445.25> 683.375 64.625<134.014 265.246>
VStem: 26.75 69.375<505.946 645.077> 303 79.375<508.154 640.84> 311 69.375<579 741> 311 38.5<483.761 682.215>
LayerCount: 2
Fore
SplineSet
62.75 348.5 m 1x98
 421.25 352.5 l 1
 417.25 285.5 l 1
 63.75 289.5 l 1
 62.75 348.5 l 1x98
303 574 m 0xdc
 303 640.840277777 263.931034483 683.375 200 683.375 c 0
 137.675 683.375 96.125 640.840277777 96.125 574 c 0
 96.125 508.153846155 137.675 467 200 467 c 0
 263.931034483 467 303 508.153846155 303 574 c 0xdc
349.5 579 m 0xd9
 349.5 483.76142132 292.239329269 402 184.75 402 c 0
 88.0348484848 402 26.75 469 26.75 574 c 0
 26.75 680 88.0348484848 748 184.75 748 c 0
 285.207317073 748 349.5 682.214765101 349.5 579 c 0xd9
308 410 m 1xbc
 311 741 l 1
 380.375 741 l 1xba
 382.375 468 l 1
 447.25 470 l 1
 445.25 410 l 1
 308 410 l 1xbc
EndSplineSet
EndChar

StartChar: ordmasculine
Encoding: 120 186 141
Width: 399
Flags: W
HStem: 289.5 59<33.75 361.25> 403 67.125<134.525 266.501> 680.875 67.125<134.525 266.501>
VStem: 26.75 69.375<507.567 644.512> 302.875 69.375<507.567 644.512>
LayerCount: 2
Fore
SplineSet
32.75 348.5 m 1
 365.25 352.5 l 1
 361.25 285.5 l 1
 33.75 289.5 l 1
 32.75 348.5 l 1
96.125 576 m 0
 96.125 511.178571429 136.933035715 470.125 200 470.125 c 0
 263.595454545 470.125 302.875 511.178571429 302.875 576 c 0
 302.875 639.361979167 263.595454545 680.875 200 680.875 c 0
 136.933035715 680.875 96.125 639.361979167 96.125 576 c 0
26.75 577 m 0
 26.75 682 93.4274193549 748 199 748 c 0
 304.617647059 748 372.25 682 372.25 577 c 0
 372.25 471 304.617647059 403 199 403 c 0
 93.4274193549 403 26.75 471 26.75 577 c 0
EndSplineSet
EndChar

StartChar: germandbls
Encoding: 157 223 142
Width: 688
Flags: W
HStem: 0 21G<146.835 237.387> 425.5 68.625<37.5 189> 696.874 77.9697<264.475 465.115>
VStem: 122.369 88.4082<496.446 648.408> 149.502 83.8857<0 543.583> 149.502 39.498<425.5 494.125> 343.75 86.5566<322.74 401.488> 530.509 82.7412<506.45 637.6> 556.562 87.9766<105.107 189.525>
LayerCount: 2
Fore
SplineSet
190 494.125 m 1xe6
 189 425.5 l 1
 34.5 422.375 l 1
 37.5 497 l 1
 190 494.125 l 1xe6
149.484375 412.096679688 m 2
 149.495907697 413.890505028 149.501953125 415.655786034 149.501953125 417.393554688 c 0xea
 149.501953125 503.28229773 122.369140625 526.127843378 122.369140625 595 c 0
 122.369140625 703.4896975 209.176578558 774.84375 362.01953125 774.84375 c 0
 513.056459171 774.84375 613.25 706.772991556 613.25 554.43359375 c 0xf3
 613.25 490.505232173 590.482421875 441.700195312 590.482421875 441.700195312 c 1
 590.482421875 441.700195312 430.306640625 433.504339115 430.306640625 362.625 c 0
 430.306640625 335.713230817 444.070372536 317.290688625 517.298828125 288.736328125 c 0
 607.572543492 253.526467685 644.5390625 214.717417498 644.5390625 149.5 c 0
 644.5390625 -20.3598077793 372.2890625 -23.900390625 372.2890625 -23.900390625 c 1
 362.444335938 55.525390625 l 1
 362.444335938 55.525390625 556.5625 60.9663619523 556.5625 147.625 c 0xe280
 556.5625 180.980650055 532.411915224 200.884804768 460.036132812 229.200195312 c 0
 372.467563812 263.454777908 343.75 298.736979766 343.75 355.75 c 0
 343.75 439.85595301 416.05112929 484.436282719 523.142578125 508.052734375 c 1
 523.142578125 508.052734375 530.508789062 528.557853062 530.508789062 562.166015625 c 0
 530.508789062 638.263501203 481.929537807 696.874023438 364 696.874023438 c 0
 251.678726951 696.874023438 210.77734375 645.754458441 210.77734375 585.125 c 0xf3
 210.77734375 536.158258585 232.252821958 490.855059633 233.387695312 399.96484375 c 2xea
 237.38671875 0 l 1
 146.834960938 0 l 1
 149.484375 412.096679688 l 2
EndSplineSet
EndChar

StartChar: florin
Encoding: 319 402 144
Width: 433
Flags: W
HStem: 416.5 83.5<231.111 385.5> 422.375 74.625<37.5 317.926> 718.499 79.3447<286.567 335.839>
VStem: 122.369 88.4082<496.821 657.264> 149.494 83.8936<16.25 543.569>
LayerCount: 2
Fore
SplineSet
37.5 497 m 1x60
 190 494.125 l 1
 387.5 500 l 1
 385.5 416.5 l 1xa0
 187 425.5 l 1
 34.5 422.375 l 1
 37.5 497 l 1x60
237.38671875 0 m 1
 106.227539062 -184 l 1
 29.2275390625 -131.875 l 1
 146.182617188 16.25 l 1
 149.484375 412.096679688 l 2
 149.494026862 413.125973227 149.494140625 414.120894614 149.494140625 415.099609375 c 0x28
 149.494140625 501.24850921 122.369140625 524.96013515 122.369140625 595 c 0
 122.369140625 717.364313898 199.253240766 769.926056109 334.51953125 797.84375 c 1
 349.4765625 718.499023438 l 1
 248.559676577 696.006413455 210.77734375 657.505725437 210.77734375 585.125 c 0x30
 210.77734375 536.158258585 232.253868909 490.771210974 233.387695312 399.96484375 c 2x28
 237.38671875 0 l 1
EndSplineSet
EndChar

StartChar: circumflex
Encoding: 427 710 145
Width: 332
Flags: W
HStem: 540 208
VStem: 15 302
LayerCount: 2
Fore
SplineSet
164 748 m 1
 317 588.875 l 1
 269.875 540 l 1
 165 665 l 1
 60.375 542 l 1
 15 584.75 l 1
 164 748 l 1
EndSplineSet
EndChar

StartChar: caron
Encoding: 428 711 146
Width: 332
Flags: W
HStem: 536 208
VStem: 15 302
LayerCount: 2
Fore
SplineSet
168 536 m 1
 15 695.125 l 1
 62.125 744 l 1
 167 619 l 1
 271.625 742 l 1
 317 699.25 l 1
 168 536 l 1
EndSplineSet
EndChar

StartChar: tilde
Encoding: 434 732 147
Width: 384
Flags: W
HStem: 558.187 189.475 712.956 20G<312.269 351.08>
LayerCount: 2
Fore
SplineSet
249.446289062 643.004882812 m 1x80
 330.23046875 732.956054688 l 1x40
 373.66015625 691.295898438 l 1
 246.280273438 558.186523438 l 1
 141.96484375 664.342773438 l 1
 52.3056640625 571.015625 l 1
 11 615.176757812 l 1
 143.380859375 747.661132812 l 1
 249.446289062 643.004882812 l 1x80
EndSplineSet
EndChar

StartChar: zero.superior
Encoding: 660 8304 148
Width: 449
Flags: W
HStem: 342 74.2425<157.709 291.495> 768.757 74.2425<157.709 291.495>
VStem: 19.7106 74.8006<486.756 696.948> 355.277 74.8006<488.463 695.213>
LayerCount: 2
Fore
SplineSet
94.51125 591 m 0
 94.51125 484.6225 145.064375 416.2425 224.480625 416.2425 c 0
 304.204375 416.2425 355.276875 484.6225 355.276875 591 c 0
 355.276875 699.858125 304.204375 768.7575 224.480625 768.7575 c 0
 145.064375 768.7575 94.51125 699.858125 94.51125 591 c 0
19.710625 591 m 0
 19.710625 745 99.095625 843 224.480625 843 c 0
 350.03875 843 430.0775 745 430.0775 591 c 0
 430.0775 439 350.03875 342 224.480625 342 c 0
 99.095625 342 19.710625 439 19.710625 591 c 0
EndSplineSet
EndChar

StartChar: one.superior
Encoding: 119 185 149
Width: 240
Flags: W
HStem: 770.683 66.3175<26.0725 123.763>
VStem: 123.763 72.4931<350 771.683>
LayerCount: 2
Fore
SplineSet
196.255625 837 m 1
 199.775 350 l 1
 120.7625 350 l 1
 123.7625 771.6825 l 1
 23.591875 770.6825 l 1
 26.0725 837 l 1
 196.255625 837 l 1
EndSplineSet
EndChar

StartChar: two.superior
Encoding: 112 178 150
Width: 396
Flags: W
HStem: 350 70.9919<166.689 364.734> 769.566 73.4337<89.159 243.898>
VStem: 274.375 80.3587<597.896 739.891>
LayerCount: 2
Fore
SplineSet
166.689375 420.991875 m 1
 367.73375 424.991875 l 1
 364.73375 350 l 1
 34.131875 350 l 1
 28.57375 403.141875 l 1
 28.57375 403.141875 274.375 523.258125 274.375 670.630625 c 0
 274.375 737.356875 238.165625 769.56625 175.80375 769.56625 c 0
 100.749375 769.56625 55.8475 724.605 55.8475 724.605 c 1
 26.054375 792.173125 l 1
 26.054375 792.173125 86.3825 843 186.788125 843 c 0
 295.27125 843 354.73375 781.9225 354.73375 685.1525 c 0
 354.73375 516.81375 166.689375 420.991875 166.689375 420.991875 c 1
EndSplineSet
EndChar

StartChar: three.superior
Encoding: 113 179 151
Width: 387
Flags: W
HStem: 343 67.3175<50.815 249.659> 573.763 52.855<202.302 255.07> 764.259 72.7413<35.0544 239.623>
VStem: 280.548 78.2244<439.46 549.137>
LayerCount: 2
Fore
SplineSet
202.301875 626.6175 m 1
 208.534375 626.6175 221.245 628.385 240.35625 626.480625 c 0
 303.906875 618.863125 358.7725 576.385 358.7725 493.904375 c 0
 358.7725 395.211875 287.925 343 178 343 c 0
 67.209375 343 20.57375 372 20.57375 372 c 1
 40.49875 436.395 l 1
 40.49875 436.395 91.403125 410.3175 162.615 410.3175 c 0
 245.589375 410.3175 280.548125 442.89125 280.548125 497.4625 c 0
 280.548125 542.535 246.858125 573.7625 183.995 573.7625 c 0
 131.940625 573.7625 104 556.746875 104 556.746875 c 1
 86.173125 598.6175 l 1
 239.623125 765.778125 l 1
 30.2275 764.25875 l 1
 35.054375 837 l 1
 337.945625 837 l 1
 344.7725 785.3 l 1
 202.301875 626.6175 l 1
EndSplineSet
EndChar

StartChar: four.superior
Encoding: 661 8308 152
Width: 455
Flags: W
HStem: 484.995 65.1056<117.876 423.369>
VStem: 266.765 76.6844<350 765.633>
LayerCount: 2
Fore
SplineSet
339.449375 765.633125 m 1
 343.449375 350 l 1
 266.765 350 l 1
 270.765 765.633125 l 1
 339.449375 765.633125 l 1
241.34125 853.6925 m 1
 301.96625 816.475625 l 1
 117.875625 550.100625 l 1
 425.19625 550.62 l 1
 423.369375 482.475625 l 1
 37.80625 484.995 l 1
 24.054375 526.250625 l 1
 241.34125 853.6925 l 1
EndSplineSet
EndChar

StartChar: five.superior
Encoding: 662 8309 153
Width: 403
Flags: W
HStem: 342.173 68.7594<58.5403 260.027> 600.049 65.6431<117.72 265.119> 766.336 70.6637<130.736 335.599>
VStem: 297.954 76.4544<446.257 568.714>
LayerCount: 2
Fore
SplineSet
335.599375 765.33625 m 1
 130.73625 766.33625 l 1
 107.73875 636.984375 l 1
 107.73875 636.984375 135.333125 665.6925 211.96375 665.6925 c 0
 323.85 665.6925 374.408125 601.54 374.408125 509.03875 c 0
 374.408125 395.49875 300.253125 342.173125 184.020625 342.173125 c 0
 66.3075 342.173125 16.57625 379 16.57625 379 c 1
 37.57875 441.58625 l 1
 37.57875 441.58625 95.366875 410.9325 175.77 410.9325 c 0
 257.821875 410.9325 297.95375 448.12125 297.95375 507.211875 c 0
 297.95375 563.821875 261.87875 600.049375 192.03625 600.049375 c 0
 124.73375 600.049375 87.676875 560.744375 87.676875 560.744375 c 1
 30.746875 598.385 l 1
 72.400625 837 l 1
 335.599375 837 l 1
 335.599375 765.33625 l 1
EndSplineSet
EndChar

StartChar: six.superior
Encoding: 663 8310 154
Width: 411
Flags: W
HStem: 342 68.6637<144.85 274.637> 610.742 62.4313<144.551 276.54> 777.336 71.6637<231.414 327.375>
VStem: 28.5738 82.2812<444.797 626.363> 309.664 74.1081<444.403 577.856>
LayerCount: 2
Fore
SplineSet
326.558125 849 m 1
 334.925 777.33625 l 1
 116.684375 765.124375 110.875625 625.064375 110.875625 625.064375 c 1
 110.875625 625.064375 140.625 673.173125 228.984375 673.173125 c 0
 319.50375 673.173125 383.7725 609.385 383.7725 512.981875 c 0
 383.7725 421.6925 335.483125 342 210.826875 342 c 0
 101.901875 342 28.57375 408.788125 28.57375 553 c 0
 28.57375 695 100.03625 835 326.558125 849 c 1
110.855 511.155 m 0
 110.855 449.89125 149.870625 410.66375 210.826875 410.66375 c 0
 271.436875 410.66375 309.664375 449.89125 309.664375 511.155 c 0
 309.664375 572.245625 271.436875 610.741875 210.826875 610.741875 c 0
 149.870625 610.741875 110.855 572.245625 110.855 511.155 c 0
EndSplineSet
EndChar

StartChar: seven.superior
Encoding: 664 8311 155
Width: 379
Flags: W
HStem: 762.605 74.395<105.527 284.181>
LayerCount: 2
Fore
SplineSet
19.7469482422 653.984985351 m 1
 39.863125 837 l 1
 345.751875 837 l 1
 371.291875 788.553125 l 1
 196.449375 338.480625 l 1
 119.821875 363.638125 l 1
 284.18125 763.605 l 1
 105.526875 762.605 l 1
 93.3925 648.628125 l 1
 19.7469482422 653.984985351 l 1
EndSplineSet
EndChar

StartChar: eight.superior
Encoding: 665 8312 156
Width: 410
Flags: W
HStem: 342 69.6637<129.8 281.198> 776.375 66.625<142.004 274.912>
VStem: 28.5738 73.7231<439.102 540.772> 48.5531 73.55<666.616 757.257> 296.434 68.7412<656.673 754.09> 305.644 78.0125<436.432 531.541>
LayerCount: 2
Fore
SplineSet
203.23 411.66375 m 0xe4
 266.935625 411.66375 305.64375 438.6225 305.64375 482.3875 c 0xe4
 305.64375 522.441875 277.72125 549.80375 191.95625 575.6875 c 0
 95.6875 604.284375 48.553125 646.669375 48.553125 711.9975 c 0
 48.553125 792.5375 111.093125 843 209.441875 843 c 0
 305.020625 843 365.175625 796.788125 365.175625 713.710625 c 0
 365.175625 613.23 245.173125 579.170625 245.173125 579.170625 c 1
 207.630625 610.020625 l 1
 207.630625 610.020625 296.434375 645.11875 296.434375 704.824375 c 0xd8
 296.434375 749.41625 263.129375 776.375 208.615 776.375 c 0
 154.88875 776.375 122.103125 750.72375 122.103125 709.746875 c 0
 122.103125 675.49875 143.02175524 656.182680203 221.80875 632.7725 c 0
 340.098125 598.05125 383.65625 560.73375 383.65625 483.214375 c 0
 383.65625 394.981875 316.8475 342 206.788125 342 c 0
 99.901875 342 28.57375 397 28.57375 481 c 0
 28.57375 586.633125 152.80125 621.3825 152.80125 621.3825 c 1
 194.49875 587.243125 l 1
 194.49875 587.243125 102.296875 555.591875 102.296875 488.155 c 0
 102.296875 441.8525 141.96625 411.66375 203.23 411.66375 c 0xe4
EndSplineSet
EndChar

StartChar: nine.superior
Encoding: 666 8313 157
Width: 412
Flags: W
HStem: 336 71.6637<89.0153 183.849> 512.654 61.6044<135.982 268.193> 774.336 68.6637<138.028 268.202>
VStem: 28.5738 74.1081<607.273 740.597> 302.011 82.2812<558.637 740.203>
LayerCount: 2
Fore
SplineSet
89.785625 336 m 1
 81.899375 407.66375 l 1
 296.354375 419.875625 301.64375 560.455 301.64375 560.455 c 1
 301.64375 560.455 271.894375 512.65375 183.535 512.65375 c 0
 93.015625 512.65375 28.57375 575.9225 28.57375 672.018125 c 0
 28.57375 763.3075 76.863125 843 202.34625 843 c 0
 311.27125 843 384.291875 776.211875 384.291875 632 c 0
 384.291875 490 313.751875 350 89.785625 336 c 1
302.010625 673.845 m 0
 302.010625 735.10875 263.168125 774.33625 202.211875 774.33625 c 0
 141.0825 774.33625 102.681875 735.10875 102.681875 673.845 c 0
 102.681875 612.754375 141.0825 574.258125 202.211875 574.258125 c 0
 263.168125 574.258125 302.010625 612.754375 302.010625 673.845 c 0
EndSplineSet
EndChar

StartChar: zero.inferior
Encoding: 667 8320 158
Width: 449
Flags: W
HStem: -358 74.2425<157.709 291.495> 68.7575 74.2425<157.709 291.495>
VStem: 19.7106 74.8006<-213.244 -3.0524> 355.277 74.8006<-211.537 -4.78731>
LayerCount: 2
Fore
SplineSet
94.51125 -109 m 0
 94.51125 -215.3775 145.064375 -283.7575 224.480625 -283.7575 c 0
 304.204375 -283.7575 355.276875 -215.3775 355.276875 -109 c 0
 355.276875 -0.141875 304.204375 68.7575 224.480625 68.7575 c 0
 145.064375 68.7575 94.51125 -0.141875 94.51125 -109 c 0
19.710625 -109 m 0
 19.710625 45 99.095625 143 224.480625 143 c 0
 350.03875 143 430.0775 45 430.0775 -109 c 0
 430.0775 -261 350.03875 -358 224.480625 -358 c 0
 99.095625 -358 19.710625 -261 19.710625 -109 c 0
EndSplineSet
EndChar

StartChar: one.inferior
Encoding: 668 8321 159
Width: 240
Flags: W
HStem: 70.6825 66.3175<26.0725 123.763>
VStem: 123.763 72.4931<-350 71.6825>
LayerCount: 2
Fore
SplineSet
196.255625 137 m 1
 199.775 -350 l 1
 120.7625 -350 l 1
 123.7625 71.6825 l 1
 23.591875 70.6825 l 1
 26.0725 137 l 1
 196.255625 137 l 1
EndSplineSet
EndChar

StartChar: two.inferior
Encoding: 669 8322 160
Width: 395
Flags: W
HStem: -350 70.9919<167.209 364.946> 69.5662 73.4338<89.0249 243.872>
VStem: 274.587 80.3588<-102.104 39.8905>
LayerCount: 2
Fore
SplineSet
167.20875 -279.008125 m 1
 367.945625 -275.008125 l 1
 364.945625 -350 l 1
 34.131875 -350 l 1
 28.57375 -296.858125 l 1
 28.57375 -296.858125 274.586875 -176.741875 274.586875 -29.369375 c 0
 274.586875 37.356875 237.858125 69.56625 175.49625 69.56625 c 0
 100.749375 69.56625 55.8475 24.778125 55.8475 24.778125 c 1
 26.054375 92 l 1
 26.054375 92 85.863125 143 186.788125 143 c 0
 295.27125 143 354.945625 81.9225 354.945625 -14.8475 c 0
 354.945625 -183.18625 167.20875 -279.008125 167.20875 -279.008125 c 1
EndSplineSet
EndChar

StartChar: three.inferior
Encoding: 670 8323 161
Width: 386
Flags: W
HStem: -357.827 68.1444<50.3209 249.304> -126.237 53.6819<201.782 254.243> 63.4319 73.5681<35.0544 239.316>
VStem: 279.721 78.2244<-260.685 -150.624>
LayerCount: 2
Fore
SplineSet
201.7825 -72.555625 m 1
 208.015 -72.555625 220.418125 -70.788125 239.529375 -72.6925 c 0
 303.08 -80.31 357.945625 -122.788125 357.945625 -206.095625 c 0
 357.945625 -305.3075 287.925 -357.826875 178 -357.826875 c 0
 67.516875 -357.826875 20.57375 -328 20.57375 -328 c 1
 40.49875 -263.9125 l 1
 40.49875 -263.9125 91.710625 -289.6825 162.615 -289.6825 c 0
 245.07 -289.6825 279.72125 -257.10875 279.72125 -202.5375 c 0
 279.72125 -157.465 245.72375 -126.2375 183.168125 -126.2375 c 0
 131.11375 -126.2375 103.173125 -143.253125 103.173125 -143.253125 c 1
 86.173125 -100.863125 l 1
 239.315625 64.95125 l 1
 30.2275 63.431875 l 1
 35.054375 137 l 1
 337.11875 137 l 1
 343.945625 84.473125 l 1
 201.7825 -72.555625 l 1
EndSplineSet
EndChar

StartChar: four.inferior
Encoding: 671 8324 162
Width: 455
Flags: W
HStem: -215.005 65.1056<117.876 423.369>
VStem: 266.765 76.6844<-350 68.075>
LayerCount: 2
Fore
SplineSet
339.449375 68.075 m 1
 343.449375 -350 l 1
 266.765 -350 l 1
 270.765 68.075 l 1
 339.449375 68.075 l 1
241.34125 155.826875 m 1
 301.96625 118.61 l 1
 117.875625 -149.899375 l 1
 425.19625 -149.38 l 1
 423.369375 -217.524375 l 1
 37.80625 -215.005 l 1
 24.054375 -173.749375 l 1
 241.34125 155.826875 l 1
EndSplineSet
EndChar

StartChar: five.inferior
Encoding: 672 8325 163
Width: 403
Flags: W
HStem: -357.827 68.7594<58.5403 260.027> -99.9506 65.6431<117.72 265.119> 66.3363 70.6637<130.736 335.599>
VStem: 297.954 76.4544<-253.743 -131.286>
LayerCount: 2
Fore
SplineSet
335.599375 65.33625 m 1
 130.73625 66.33625 l 1
 107.73875 -63.015625 l 1
 107.73875 -63.015625 135.333125 -34.3075 211.96375 -34.3075 c 0
 323.85 -34.3075 374.408125 -98.46 374.408125 -190.96125 c 0
 374.408125 -304.50125 300.253125 -357.826875 184.020625 -357.826875 c 0
 66.3075 -357.826875 16.57625 -321 16.57625 -321 c 1
 37.57875 -258.41375 l 1
 37.57875 -258.41375 95.366875 -289.0675 175.77 -289.0675 c 0
 257.821875 -289.0675 297.95375 -251.87875 297.95375 -192.788125 c 0
 297.95375 -136.178125 261.87875 -99.950625 192.03625 -99.950625 c 0
 124.73375 -99.950625 87.676875 -139.255625 87.676875 -139.255625 c 1
 30.746875 -101.615 l 1
 72.400625 137 l 1
 335.599375 137 l 1
 335.599375 65.33625 l 1
EndSplineSet
EndChar

StartChar: six.inferior
Encoding: 673 8326 164
Width: 412
Flags: W
HStem: -358 68.6637<144.746 274.767> -89.2581 62.4313<144.551 276.67> 77.3363 71.6637<232.013 328.172>
VStem: 28.5738 82.2812<-255.203 -73.6369> 310.184 74.1081<-255.597 -123.99>
LayerCount: 2
Fore
SplineSet
327.385 149 m 1
 335.444375 77.33625 l 1
 116.684375 65.124375 110.875625 -75.243125 110.875625 -75.243125 c 1
 110.875625 -75.243125 140.625 -26.826875 228.984375 -26.826875 c 0
 319.50375 -26.826875 384.291875 -90.615 384.291875 -187.018125 c 0
 384.291875 -278.3075 335.483125 -358 210.826875 -358 c 0
 101.3825 -358 28.57375 -291.211875 28.57375 -147 c 0
 28.57375 -5 100.34375 135 327.385 149 c 1
110.855 -188.845 m 0
 110.855 -250.10875 149.870625 -289.33625 210.826875 -289.33625 c 0
 271.436875 -289.33625 310.18375 -250.10875 310.18375 -188.845 c 0
 310.18375 -127.754375 271.436875 -89.258125 210.826875 -89.258125 c 0
 149.870625 -89.258125 110.855 -127.754375 110.855 -188.845 c 0
EndSplineSet
EndChar

StartChar: seven.inferior
Encoding: 674 8327 165
Width: 379
Flags: W
HStem: 62.2975 74.7025<105.527 284.181>
LayerCount: 2
Fore
SplineSet
19.7469482422 -46.0150146484 m 1
 39.863125 137 l 1
 345.444375 137 l 1
 370.984375 88.245625 l 1
 196.449375 -361.519375 l 1
 119.821875 -336.669375 l 1
 284.18125 63.2975 l 1
 105.526875 62.2975 l 1
 93.3925 -51.679375 l 1
 19.7469482422 -46.0150146484 l 1
EndSplineSet
EndChar

StartChar: eight.inferior
Encoding: 675 8328 166
Width: 409
Flags: W
HStem: -358 69.6637<128.7 280.473> 76.375 66.625<141.617 274.031>
VStem: 28.5738 73.7231<-262.508 -159.341> 48.5531 73.55<-33.5285 57.1195> 295.607 68.7413<-43.4405 54.0106> 304.817 78.0125<-263.659 -168.543>
LayerCount: 2
Fore
SplineSet
202.9225 -288.33625 m 0xe4
 265.80125 -288.33625 304.816875 -261.685 304.816875 -217.92 c 0xe4
 304.816875 -177.865625 277.72125 -150.19625 191.95625 -124.3125 c 0
 95.6875 -95.715625 48.553125 -53.638125 48.553125 11.69 c 0
 48.553125 92.23 110.26625 143 208.615 143 c 0
 304.19375 143 364.34875 96.615 364.34875 13.5375 c 0
 364.34875 -86.42375 243.826875 -120.31 243.826875 -120.31 c 1
 206.0725 -90.1525 l 1
 206.0725 -90.1525 295.6075 -55.57375 295.6075 4.824375 c 0xd8
 295.6075 49.41625 261.995 76.375 207.788125 76.375 c 0
 154.88875 76.375 122.103125 50.72375 122.103125 9.746875 c 0
 122.103125 -24.50125 143.001076065 -43.8917474 221.50125 -67.2275 c 0
 339.27125 -101.94875 382.829375 -139.26625 382.829375 -216.785625 c 0
 382.829375 -305.018125 316.328125 -358 206.26875 -358 c 0
 99.3825 -358 28.57375 -302 28.57375 -219 c 0
 28.57375 -113.366875 151.455 -78.925 151.455 -78.925 c 1
 192.633125 -112.545 l 1
 192.633125 -112.545 102.296875 -144.715625 102.296875 -212.1525 c 0
 102.296875 -258.455 141.65875 -288.33625 202.9225 -288.33625 c 0xe4
EndSplineSet
EndChar

StartChar: nine.inferior
Encoding: 676 8329 167
Width: 412
Flags: W
HStem: -364 71.6637<89.0153 183.849> -187.346 61.6044<135.982 268.193> 74.3363 68.6637<138.028 268.202>
VStem: 28.5738 74.1081<-92.7268 40.5969> 302.011 82.2812<-141.363 40.2031>
LayerCount: 2
Fore
SplineSet
89.785625 -364 m 1
 81.899375 -292.33625 l 1
 296.354375 -280.124375 301.64375 -139.2375 301.64375 -139.2375 c 1
 301.64375 -139.2375 271.894375 -187.34625 183.535 -187.34625 c 0
 93.015625 -187.34625 28.57375 -124.0775 28.57375 -27.981875 c 0
 28.57375 63.3075 76.863125 143 202.34625 143 c 0
 311.27125 143 384.291875 76.211875 384.291875 -68 c 0
 384.291875 -210 313.751875 -350 89.785625 -364 c 1
302.010625 -26.155 m 0
 302.010625 35.10875 263.168125 74.33625 202.211875 74.33625 c 0
 141.0825 74.33625 102.681875 35.10875 102.681875 -26.155 c 0
 102.681875 -87.245625 141.0825 -125.741875 202.211875 -125.741875 c 0
 263.168125 -125.741875 302.010625 -87.245625 302.010625 -26.155 c 0
EndSplineSet
EndChar

StartChar: fraction
Encoding: 655 8260 168
Width: 238
Flags: W
LayerCount: 2
Fore
SplineSet
411.329101562 694.18359375 m 1
 162.208984375 343.799804688 l 1
 -52.9912109375 -15 l 1
 -135.5703125 35.75 l 1
 117.408203125 380.450195312 l 1
 335.349609375 743.93359375 l 1
 411.329101562 694.18359375 l 1
EndSplineSet
EndChar

StartChar: perthousand
Encoding: 646 8240 169
Width: 1159
Flags: W
HStem: -10 76.8076<609.48 729.263 889.055 1008.82> 283.975 76.9043<609.48 731.264 889.055 1008.82> 368.113 76.8076<150.311 278> 662.088 76.9043<148.151 280.167>
VStem: 33.2705 79.0537<481.861 623.905> 316.284 79.0859<481.861 623.905> 493.271 81.5537<102.772 248.921> 765.034 88.54<109.372 242.085> 783.271 52.0996<64.4329 291.081> 1043.78 81.5859<102.773 248.921>
LayerCount: 2
Fore
SplineSet
112.32421875 554.370117188 m 0xfe40
 112.32421875 487.484639768 151.870125769 444.920898438 214.015625 444.920898438 c 0
 276.513158049 444.920898438 316.284179688 487.484639768 316.284179688 554.370117188 c 0
 316.284179688 620.19796249 276.513158049 662.087890625 214.015625 662.087890625 c 0
 151.870125769 662.087890625 112.32421875 620.19796249 112.32421875 554.370117188 c 0xfe40
33.2705078125 554.512695312 m 0
 33.2705078125 667.250454842 103.553913074 738.9921875 214 738.9921875 c 0
 324.837484532 738.9921875 395.370117188 667.250454842 395.370117188 554.512695312 c 0
 395.370117188 440.601747797 324.837484532 368.11328125 214 368.11328125 c 0
 103.553913074 368.11328125 33.2705078125 440.601747797 33.2705078125 554.512695312 c 0
853.57421875 176.256835938 m 0xff40
 853.57421875 109.372262615 890.591595654 66.8076171875 948.765625 66.8076171875 c 0
 1006.83262537 66.8076171875 1043.78417969 109.372262615 1043.78417969 176.256835938 c 0
 1043.78417969 242.08511924 1006.83262537 283.974609375 948.765625 283.974609375 c 0
 890.591595654 283.974609375 853.57421875 242.08511924 853.57421875 176.256835938 c 0xff40
783.270507812 181.399414062 m 0xfec0
 783.270507812 291.081274564 849.17915194 360.87890625 952.75 360.87890625 c 0
 1058.2402156 360.87890625 1125.37011719 289.136828688 1125.37011719 176.399414062 c 0
 1125.37011719 62.4881854989 1058.2402156 -10 952.75 -10 c 0
 849.17915194 -10 783.270507812 64.4326171877 783.270507812 181.399414062 c 0xfec0
574.82421875 176.256835938 m 0
 574.82421875 109.371358518 611.550734864 66.8076171875 669.265625 66.8076171875 c 0
 727.790930554 66.8076171875 765.034179688 109.371358518 765.034179688 176.256835938 c 0xff40
 765.034179688 242.08468124 727.790930554 283.974609375 669.265625 283.974609375 c 0
 611.550734864 283.974609375 574.82421875 242.08468124 574.82421875 176.256835938 c 0
493.270507812 176.399414062 m 0
 493.270507812 289.137173592 560.15114915 360.87890625 665.25 360.87890625 c 0
 769.212472704 360.87890625 835.370117188 291.08161012 835.370117188 181.399414062 c 0xfec0
 835.370117188 64.4329057754 769.212472704 -10 665.25 -10 c 0
 560.15114915 -10 493.270507812 62.4884665474 493.270507812 176.399414062 c 0
EndSplineSet
Refer: 168 8260 N 1 0 0 1 304 0 2
EndChar

StartChar: uni2031
Encoding: 647 8241 170
Width: 1439
Flags: W
HStem: -10 76.8076<609.48 729.263 887.397 1005.31 1169.06 1288.82> 283.975 76.9043<609.48 731.264 887.397 1005.31 1169.06 1288.82> 368.113 76.8076<150.311 278> 662.088 76.9043<148.151 280.167>
VStem: 33.2705 79.0537<481.861 623.905> 316.284 79.0859<481.861 623.905> 493.271 81.5537<102.772 248.921> 765.034 89.04<109.372 242.085> 777.021 58.3496<64.4329 291.081> 1040.28 93.29<109.372 242.085> 1063.27 52.0996<64.4326 291.081> 1323.78 81.5859<102.081 248.333>
LayerCount: 2
Fore
SplineSet
112.32421875 554.370117188 m 0xfe10
 112.32421875 487.484639768 151.870125769 444.920898438 214.015625 444.920898438 c 0
 276.513158049 444.920898438 316.284179688 487.484639768 316.284179688 554.370117188 c 0
 316.284179688 620.19796249 276.513158049 662.087890625 214.015625 662.087890625 c 0
 151.870125769 662.087890625 112.32421875 620.19796249 112.32421875 554.370117188 c 0xfe10
33.2705078125 554.512695312 m 0
 33.2705078125 667.250454842 103.553913074 738.9921875 214 738.9921875 c 0
 324.837484532 738.9921875 395.370117188 667.250454842 395.370117188 554.512695312 c 0
 395.370117188 440.601747797 324.837484532 368.11328125 214 368.11328125 c 0
 103.553913074 368.11328125 33.2705078125 440.601747797 33.2705078125 554.512695312 c 0
1133.57421875 176.256835938 m 0xfe50
 1133.57421875 109.372262615 1170.59159566 66.8076171875 1228.765625 66.8076171875 c 0
 1286.83262539 66.8076171875 1323.78417969 109.372262615 1323.78417969 176.256835938 c 0
 1323.78417969 242.08511924 1286.83262539 283.974609375 1228.765625 283.974609375 c 0
 1170.59159566 283.974609375 1133.57421875 242.08511924 1133.57421875 176.256835938 c 0xfe50
1063.27050781 181.399414062 m 0xfe30
 1063.27050781 291.081274564 1129.17915194 360.87890625 1232.75 360.87890625 c 0
 1338.2402156 360.87890625 1405.37011719 291.081274564 1405.37011719 181.399414062 c 0
 1405.37011719 64.4326171877 1338.2402156 -10 1232.75 -10 c 0
 1129.17915194 -10 1063.27050781 64.4326171876 1063.27050781 181.399414062 c 0xfe30
854.07421875 176.256835938 m 0xff50
 854.07421875 109.372262615 889.779148953 66.8076171875 945.890625 66.8076171875 c 0
 1003.57568024 66.8076171875 1040.28417969 109.372262615 1040.28417969 176.256835938 c 0
 1040.28417969 242.08511924 1003.57568024 283.974609375 945.890625 283.974609375 c 0
 889.779148953 283.974609375 854.07421875 242.08511924 854.07421875 176.256835938 c 0xff50
777.020507812 181.399414062 m 0xfeb0
 777.020507812 291.081274564 842.686096558 360.87890625 945.875 360.87890625 c 0
 1049.45549078 360.87890625 1115.37011719 291.081274564 1115.37011719 181.399414062 c 0
 1115.37011719 64.4326171876 1049.45549078 -10 945.875 -10 c 0
 842.686096558 -10 777.020507812 64.4326171876 777.020507812 181.399414062 c 0xfeb0
574.82421875 176.256835938 m 0
 574.82421875 109.371358518 611.550734864 66.8076171875 669.265625 66.8076171875 c 0
 727.790930554 66.8076171875 765.034179688 109.371358518 765.034179688 176.256835938 c 0xff10
 765.034179688 242.08468124 727.790930554 283.974609375 669.265625 283.974609375 c 0
 611.550734864 283.974609375 574.82421875 242.08468124 574.82421875 176.256835938 c 0
493.270507812 176.399414062 m 0
 493.270507812 289.137173592 560.15114915 360.87890625 665.25 360.87890625 c 0
 769.212472704 360.87890625 835.370117188 291.08161012 835.370117188 181.399414062 c 0xfe90
 835.370117188 64.4329057752 769.212472704 -10 665.25 -10 c 0
 560.15114915 -10 493.270507812 62.4884665474 493.270507812 176.399414062 c 0
EndSplineSet
Refer: 168 8260 N 1 0 0 1 304 0 2
EndChar

StartChar: Lslash
Encoding: 255 321 171
Width: 620
Flags: W
HStem: 0 88.793<256.564 589.039> 483.75 20G<403.87 449.523> 642.584 88.4258<34.8701 155.651>
VStem: 150.93 105.635<88.793 642.584>
LayerCount: 2
Fore
SplineSet
443 503.75 m 1
 473.25 411 l 1
 240.25 324.043945312 l 1
 41.5 222 l 1
 11 317.75 l 1
 218 388.75 l 1
 443 503.75 l 1
EndSplineSet
Refer: 44 76 N 1 0 0 1 0 0 2
EndChar

StartChar: lslash
Encoding: 256 322 172
Width: 387
Flags: W
HStem: 0 73.0225<246.634 366.189> 682.45 72.5518<40.9701 160.646>
VStem: 156.325 90.3088<73.0225 682.45>
LayerCount: 2
Fore
SplineSet
370.5 538.5 m 9
 397 447.25 l 17
 219 371.543945312 l 1
 41.5 273.5 l 9
 11 367.75 l 17
 193 432.5 l 1
 370.5 538.5 l 9
EndSplineSet
Refer: 8 108 N 1 0 0 1 0 0 2
EndChar

StartChar: quoteright
Encoding: 635 8217 173
Width: 229
Flags: W
HStem: 445 320
VStem: 32.25 154.5
LayerCount: 2
Fore
SplineSet
32.25 730.5 m 9
 117.75 765 l 1
 186.75 626 l 1
 92.5 445 l 1
 29.875 478 l 17
 98.375 612 l 1
 32.25 730.5 l 9
EndSplineSet
EndChar

StartChar: uni2120
Encoding: 702 8480 179
Width: 540
Flags: W
HStem: 711.585 50.8193<196 249.827>
VStem: 16.751 58.0322<650.165 702.005> 115.424 62.7607<532.238 595.646>
LayerCount: 2
Fore
SplineSet
150.276367188 765.357421875 m 1
 150.276367188 765.357421875 16.7509765625 762.898423454 16.7509765625 675.416015625 c 0
 16.7509765625 641.290822134 34.8763618273 622.544134024 78.877319336 603.257202149 c 0
 109.703828981 589.829626036 115.423828125 578.911253693 115.423828125 564.650390625 c 0
 115.423828125 516.817924485 22.638671875 513.923828125 22.638671875 513.923828125 c 1
 30.90234375 462.049804688 l 1
 30.90234375 462.049804688 178.184570312 464.315279995 178.184570312 566.668945312 c 0
 178.184570312 598.479196225 162.852377818 617.404575447 125.95324707 634.676757813 c 0
 81.8269625841 655.643268703 74.783203125 663.767261924 74.783203125 676.524414062 c 0
 74.783203125 711.556982888 158.8671875 719.087890625 158.8671875 719.087890625 c 1
 150.276367188 765.357421875 l 1
249.827148438 711.584960938 m 1
 196 709.131835938 l 1
 194.248046875 762.404296875 l 1
 312.841796875 766.404296875 l 1
 375.75 636.049804688 l 1
 442.974609375 766 l 1
 499.700195312 762.400390625 l 1
 530.799804688 472 l 1
 472 466.400390625 l 1
 452.150024414 680.025390625 l 1
 374.075195312 538.375 l 1
 298.174804688 676.799804688 l 1
 275.575195312 467.599609375 l 1
 224.049804688 472.474609375 l 1
 249.827148438 711.584960938 l 1
EndSplineSet
EndChar

StartChar: trademark
Encoding: 703 8482 180
Width: 608
Flags: W
HStem: 714.45 12.833<87.7109 144.392> 714.482 47.9219<10.4482 87.7109 144.392 222.492 263.2 317.027>
VStem: 85.9824 60.0312<470 726.45>
LayerCount: 2
Fore
SplineSet
144.391601562 726.450195312 m 1xa0
 146.013671875 470 l 1
 85.982421875 470 l 1
 87.7109375 727.283203125 l 1
 144.391601562 726.450195312 l 1xa0
116.841796875 714.450195312 m 1
 9 714.482421875 l 1
 10.4482421875 762.404296875 l 1
 222.4921875 762.404296875 l 1x60
 224.845703125 712.849609375 l 1
 116.841796875 714.450195312 l 1
317.02734375 711.584960938 m 1
 263.200195312 709.131835938 l 1
 261.448242188 762.404296875 l 1
 380.041992188 766.404296875 l 1
 442.950195312 636.049804688 l 1
 510.174804688 766 l 1
 566.900390625 762.400390625 l 1
 598 472 l 1
 539.200195312 466.400390625 l 1
 519.349609375 680.025390625 l 1
 441.275390625 538.375 l 1
 365.375 676.799804688 l 1
 342.775390625 467.599609375 l 1
 291.25 472.474609375 l 1
 317.02734375 711.584960938 l 1
EndSplineSet
EndChar

StartChar: uni2117
Encoding: 701 8471 181
Width: 795
Flags: W
HStem: -10.0664 59.627<275.779 524.337> 265.879 63.0601<350.134 498.784> 519.759 66.2545<275.68 494.772> 519.759 13.0098<307.392 348.086> 681.89 57.0439<279.309 520.781>
VStem: 30 63<233.373 492.923> 277.345 72.7393<142.619 294.199 351.644 532.768> 530.064 69.4201<358.231 485.797> 705.367 59.6328<233.373 492.923>
LayerCount: 2
Fore
SplineSet
350.08466797 142.618554687 m 1xdf80
 277.345410157 142.618554687 l 1
 281.047558594 532.768359376 l 1
 348.085644532 532.768359376 l 1
 350.08466797 142.618554687 l 1xdf80
334.900878906 351.643945313 m 1
 334.900878906 351.643945313 360.107651953 328.938574219 425.333691407 328.938574219 c 0
 493.976836367 328.938574219 530.063623047 363.685861004 530.063623047 419.808105469 c 0
 530.063623047 486.733713782 491.721226155 519.75859375 407.033496093 519.75859375 c 0
 307.391802091 519.75859375 218.679736328 476.1 218.679736328 476.1 c 1
 197.697900391 541.522851563 l 1
 197.697900391 541.522851563 263.176456197 586.013085938 417.233691406 586.013085938 c 0xef80
 529.669217354 586.013085938 599.483691406 524.678890363 599.483691406 417.527929687 c 0
 599.483691406 325.554682755 537.620897017 265.878515625 437.633691407 265.878515625 c 0
 363.79545809 265.878515625 319.337597657 294.198535156 319.337597657 294.198535156 c 1
 334.900878906 351.643945313 l 1
30 361.93359375 m 0
 30 592.322641811 172.722067272 738.93359375 397 738.93359375 c 0
 621.889353198 738.93359375 765 592.322641811 765 361.93359375 c 0
 765 134.599173678 621.889353198 -10.06640625 397 -10.06640625 c 0
 172.722067272 -10.06640625 30 134.599173678 30 361.93359375 c 0
93 361.93359375 m 0
 93 171.038543369 211.610052083 49.560546875 398 49.560546875 c 0
 585.835999059 49.560546875 705.3671875 171.038543369 705.3671875 361.93359375 c 0
 705.3671875 557.463841324 585.835999059 681.889648438 398 681.889648438 c 0
 211.610052083 681.889648438 93 557.463841324 93 361.93359375 c 0
EndSplineSet
EndChar

StartChar: lira
Encoding: 679 8356 182
Width: 576
Flags: W
HStem: 0 88.793<166.564 529.039> 234.25 80.25<183.116 418> 242.25 71.25<163.75 386.219> 374.25 80.25<201.809 428> 382.25 71.25<192.5 398.562>
VStem: 60.9297 105.635<88.793 227.921>
LayerCount: 2
Back
SplineSet
14 326 m 1
 430 327 l 1
 428 218 l 1
 12 226 l 1
 14 326 l 1
24 466 m 1
 440 467 l 1
 438 358 l 1
 22 366 l 1
 24 466 l 1
EndSplineSet
Fore
SplineSet
24 313.5 m 1xa4
 181.75 309.966796875 l 1
 420 314.5 l 1
 418 234.25 l 1xc4
 163.75 241.827148438 l 1
 22 242.25 l 1
 24 313.5 l 1xa4
34 453.5 m 1x8c
 202.5 450.5 l 1
 430 454.5 l 1
 428 374.25 l 1x94
 192.5 381.538085938 l 1
 32 382.25 l 1
 34 453.5 l 1x8c
166.564453125 88.79296875 m 1
 532.659179688 90.4306640622 l 1
 529.0390625 0 l 1
 60.9296875 0 l 1
 81.9187518606 452.125433501 172.996678415 643.005046291 459.430664062 747.6640625 c 1
 488.798828125 661.854492188 l 1
 273.57540061 583.892290642 179.717020167 420.095091737 166.564453125 88.79296875 c 1
EndSplineSet
EndChar

StartChar: Euro
Encoding: 684 8364 183
Width: 541
Flags: W
HStem: -33.0664 91.625<389.948 479.705> 245.5 88.375<318.77 418.816> 253.5 81.25<32 236.705> 391.125 88.375<351.149 444.478> 660.242 88.75<397.641 488.118>
VStem: 77 97.5<289.712 394.761>
LayerCount: 2
Fore
SplineSet
32 334.75 m 1xbc
 223 328.2578125 l 1
 433.83984375 333.875 l 1
 417.5234375 245.5 l 1xdc
 217 259.713867188 l 1
 30 253.5 l 1
 32 334.75 l 1xbc
35 478.5 m 1
 233 464.95703125 l 1
 460.793945312 479.5 l 1
 444.477539062 391.125 l 1
 225 399.213867188 l 1
 33 397.25 l 1
 35 478.5 l 1
478.75 -33.06640625 m 1
 229.578993599 -12.5798471102 77 120.543550932 77 361.93359375 c 0
 77 598.46956446 236.541493457 728.46176596 487.25 748.9921875 c 1
 498.25 660.2421875 l 1
 296.754306155 633.066954227 174.5 544.234958412 174.5 361.93359375 c 0
 174.5 176.537102051 281.666052247 83.3468806358 491.25 58.55859375 c 1
 478.75 -33.06640625 l 1
EndSplineSet
EndChar

StartChar: uni20B5
Encoding: 691 8373 184
Width: 461
Flags: W
HStem: 0 21G<253.32 335.32> 91.9014 48.0986<260.32 326.32> 504.608 21G<422.612 432.408> 575.25 44.207<258.32 324.32> 719 20G<249.32 331.32>
VStem: 42.25 94.7197<258.078 459.679> 253.32 82<0 60 640.75 739> 260.32 66<62.2222 140 575.25 679.455>
LayerCount: 2
Fore
SplineSet
335.3203125 0 m 1xfe
 253.3203125 0 l 1xfe
 260.3203125 140 l 1
 326.3203125 140 l 1xfd
 335.3203125 0 l 1xfe
249.3203125 739 m 1
 331.3203125 739 l 1
 324.3203125 575.25 l 1
 258.3203125 575.25 l 1
 249.3203125 739 l 1
42.25 357.576171875 m 0
 42.25 517.614257812 140.04941035 619.45703125 293.735351562 619.45703125 c 0
 406.329101562 619.45703125 454.184570312 569.0703125 454.184570312 569.0703125 c 1
 422.612304688 504.608398438 l 1
 422.612304688 504.608398438 373.766014687 539.4140625 297.811523438 539.4140625 c 0
 199.517878069 539.4140625 136.969726562 471.083424847 136.969726562 363.708007812 c 0
 136.969726562 247.41654381 193.05168572 173.412109375 302.73046875 173.412109375 c 0
 397.447869389 173.412109375 445.422851562 205.150390625 445.422851562 205.150390625 c 1
 471.774414062 132.869140625 l 1
 471.774414062 132.869140625 428.375976562 91.9013671875 293.735351562 91.9013671875 c 0
 140.04941035 91.9013671875 42.25 195.21875 42.25 357.576171875 c 0
EndSplineSet
EndChar

StartChar: uni20B2
Encoding: 688 8370 185
Width: 542
Flags: W
HStem: 0 21G<253.32 335.32> 91.9014 48.0986<260.32 326.32> 283.989 67.4453<466.166 530.564> 504.233 21G<418.862 428.601> 575.25 44.207<258.32 324.32> 719 20G<249.32 331.32>
VStem: 42.25 94.7197<258.078 459.679> 253.32 82<0 60 640.75 739> 260.32 66<62.2222 140 575.25 679.455> 386.182 81.8428<191.599 283.989> 387.312 143.252<283.989 351.435>
LayerCount: 2
Fore
SplineSet
249.3203125 739 m 1xfe
 331.3203125 739 l 1
 324.3203125 575.25 l 1
 258.3203125 575.25 l 1
 249.3203125 739 l 1xfe
335.3203125 0 m 1xff
 253.3203125 0 l 1xff
 260.3203125 140 l 1
 326.3203125 140 l 1xfe80
 335.3203125 0 l 1xff
42.25 357.576171875 m 0
 42.25 517.614257812 140.049410348 619.45703125 293.735351562 619.45703125 c 0
 403.697573869 619.45703125 450.434570312 569.0703125 450.434570312 569.0703125 c 1
 418.862304688 504.233398438 l 1
 418.862304688 504.233398438 371.483742579 539.4140625 297.811523438 539.4140625 c 0
 199.517878069 539.4140625 136.969726562 471.083424844 136.969726562 363.708007812 c 0
 136.969726562 247.416543811 193.051713552 173.412109375 302.73046875 173.412109375 c 0
 359.001525802 173.412109375 386.181640625 191.598632812 386.181640625 191.598632812 c 1xfe40
 387.3125 351.434570312 l 1
 530.564453125 351.434570312 l 1xfe20
 532.12109375 283.02734375 l 1
 466.166015625 283.989257812 l 1
 468.024414062 131.869140625 l 1xfe40
 468.024414062 131.869140625 405.961324757 91.9013671875 293.735351562 91.9013671875 c 0
 140.049410348 91.9013671875 42.25 195.21875 42.25 357.576171875 c 0
EndSplineSet
EndChar

StartChar: uni20AD
Encoding: 685 8365 186
Width: 697
Flags: W
HStem: 0 21G<157.58 263.909> 326.561 73.4072<93.4964 448.98> 642.584 88.4268<41.1201 161.901>
VStem: 157.58 106.329<0 642.584>
LayerCount: 2
Fore
SplineSet
43.625 408.75 m 1
 289.375 399.967773438 l 1
 632.125 409 l 1
 630.5 311.375 l 1
 293.75 326.560546875 l 1
 42 318.25 l 1
 43.625 408.75 l 1
258.479492188 731.010742188 m 1
 263.909179688 0 l 1
 157.580078125 0 l 1
 161.901367188 642.583984375 l 1
 37.5 640.580078125 l 1
 41.1201171875 731.010742188 l 1
 258.479492188 731.010742188 l 1
553 745.0078125 m 1
 634.5 676.0078125 l 1
 321 364 l 1
 659.5 49.25 l 1
 581.75 -27 l 1
 205.25 364 l 1
 553 745.0078125 l 1
EndSplineSet
EndChar

StartChar: uni20AE
Encoding: 686 8366 187
Width: 550
Flags: W
HStem: 0 21G<216.83 323.159> 640.5 30<221.151 319.104> 640.58 90.4307<37.3701 221.151 319.104 504.979>
VStem: 216.83 106.329<0 670.5>
LayerCount: 2
Fore
SplineSet
56.5048828125 182.71484375 m 1x90
 271.846679688 244.334960938 l 1
 482.01953125 321.35546875 l 1
 507.87109375 233.865234375 l 1
 287.66015625 181.768554688 l 1
 79.0556640625 105.806640625 l 1
 56.5048828125 182.71484375 l 1x90
42.20703125 343.859375 m 1
 257.548828125 405.48046875 l 1
 467.721679688 482.5 l 1
 493.573242188 395.009765625 l 1
 273.362304688 342.912109375 l 1
 64.7578125 266.950195312 l 1
 42.20703125 343.859375 l 1
319.103515625 670.5 m 1xd0
 323.159179688 0 l 1
 216.830078125 0 l 1
 221.151367188 672.583984375 l 1
 319.103515625 670.5 l 1xd0
272.103515625 640.5 m 1
 33.75 640.580078125 l 1
 37.3701171875 731.010742188 l 1
 504.979492188 731.010742188 l 1xb0
 510.86328125 636.5 l 1
 272.103515625 640.5 l 1
EndSplineSet
EndChar

StartChar: uni20B1
Encoding: 687 8369 188
Width: 722
Flags: W
HStem: 0 21G<152.771 254.003> 201.184 83.875<254.946 450.868> 299.625 72.75<22 207.28> 366.842 64.0713<178 213.45> 429.625 72.75<24 211.953> 492.375 20G<553.45 596.25 596.25 701.511> 644.492 94.5<177.961 440.387> 644.492 39.7578<158.94 250.67>
VStem: 152.771 101.232<0 233.184 366.842 430.913 497.375 684.25> 552 72.917<439.625 512.375>
LayerCount: 2
Fore
SplineSet
540.25 382.375 m 1xc0c0
 575.5 376.841796875 l 1
 695 383.375 l 1
 693 301.625 l 1
 553.75 311.202148438 l 1
 527 309.625 l 1
 540.25 382.375 l 1xc0c0
554 512.375 m 1xc4c0
 596.25 507.375 l 1
 702 513.375 l 1
 700 431.625 l 1
 586.25 440.913085938 l 1
 552 439.625 l 1
 554 512.375 l 1xc4c0
22 372.375 m 1xe0c0
 178 366.841796875 l 1xd0c0
 231.75 373.375 l 1
 229.75 291.625 l 1
 160 301.202148438 l 1
 20 299.625 l 1
 22 372.375 l 1xe0c0
24 502.375 m 1xc8c0
 195 497.375 l 1
 224.75 503.375 l 1
 222.75 421.625 l 1
 185 430.913085938 l 1xd0c0
 22 429.625 l 1
 24 502.375 l 1xc8c0
254.002929688 0 m 1
 152.770507812 0 l 1
 158.940429688 684.25 l 1
 250.669921875 684.25 l 1xc1c0
 254.002929688 0 l 1
224.196289062 312.001953125 m 1
 224.196289062 312.001953125 265.007355782 285.05859375 357.666992188 285.05859375 c 0
 472.467127044 285.05859375 531.166992188 352.09311909 531.166992188 457.43359375 c 0
 531.166992188 571.747572715 475.244042523 644.4921875 328.948120118 644.4921875 c 0
 144.931482377 644.4921875 34.01953125 604.677734375 34.01953125 604.677734375 c 1
 16.125 696.965820312 l 1
 16.125 696.965820312 105.185662347 738.9921875 331.073120118 738.9921875 c 0xc2c0
 513.309897087 738.9921875 624.916992188 630.275450543 624.916992188 459.43359375 c 0
 624.916992188 301.612972812 524.583457451 201.18359375 366.916992188 201.18359375 c 0
 259.770507812 201.18359375 195.2578125 233.18359375 195.2578125 233.18359375 c 1
 224.196289062 312.001953125 l 1
EndSplineSet
EndChar

StartChar: uni20B3
Encoding: 689 8371 189
Width: 768
Flags: W
HStem: 132.712 72<11.625 756> 272.712 72<51.625 716> 627.194 93.8057<118.819 290.633> 633.362 97.6377<208.447 290.633>
LayerCount: 2
Fore
SplineSet
290.6328125 633.362304688 m 1xd0
 118.819335938 627.194335938 l 1
 115.939453125 721 l 1xe0
 424.298828125 731 l 1
 690.450195312 7.7861328125 l 1
 595.051757812 -15 l 1
 374.818359375 610.6171875 l 1
 150.944335938 -15 l 1
 57.2734375 11.125 l 1
 290.6328125 633.362304688 l 1xd0
51.625 344.711914062 m 1
 717.625 344.961914062 l 1
 716 266.586914062 l 1
 50 272.711914062 l 1
 51.625 344.711914062 l 1
11.625 204.711914062 m 1
 757.625 204.961914062 l 1
 756 126.586914062 l 1
 10 132.711914062 l 1
 11.625 204.711914062 l 1
EndSplineSet
EndChar

StartChar: uni20B4
Encoding: 690 8372 190
Width: 598
Flags: W
HStem: 241.625 81.75<298.09 536> 249.625 72.75<32 431.142> 381.625 81.75<379.094 566> 389.625 72.75<42 233.677 318 495.069> 718.393 20G<167.479 169.646>
VStem: 91.375 102.715<158.605 248.708> 390.067 101.144<476.191 580.934>
LayerCount: 2
Fore
SplineSet
169.645507812 738.392578125 m 1x0e
 169.645507812 738.392578125 491.2109375 732.351635622 491.2109375 517.451416015 c 0
 491.2109375 447.411565084 453.213707279 389.318984554 328.559570312 338.280273438 c 0
 212.692002419 290.832298735 194.08984375 260.376246647 194.08984375 214.75 c 0
 194.08984375 84.8801694165 457.490234375 70.4326171875 457.490234375 70.4326171875 c 1
 448.893554688 -19.8779296875 l 1
 448.893554688 -19.8779296875 91.375 -14.6866377527 91.375 219.794921875 c 0
 91.375 301.874436078 129.286949968 346.863914265 233.676757812 395.275390625 c 0
 360.274903301 453.972555566 390.067382812 482.348957631 390.067382812 529.55859375 c 0
 390.067382812 637.712520534 160.419921875 653.217773438 160.419921875 653.217773438 c 1
 169.645507812 738.392578125 l 1x0e
32 322.375 m 1x4e
 228.5 316.841796875 l 1
 538 323.375 l 1
 536 241.625 l 1x8e
 210.5 251.202148438 l 1
 30 249.625 l 1
 32 322.375 l 1x4e
42 462.375 m 1x1e
 328 457.375 l 1
 568 463.375 l 1
 566 381.625 l 1x2e
 318 390.913085938 l 1
 40 389.625 l 1
 42 462.375 l 1x1e
EndSplineSet
EndChar

StartChar: uni20B8
Encoding: 692 8376 191
Width: 590
Flags: W
HStem: 0 21G<236.83 343.159> 456.75 28.334<241.151 339.104> 456.83 84.1807<37.3701 241.151 339.104 544.979> 636.83 94.1807<47.3701 534.979>
VStem: 236.83 106.329<0 483>
LayerCount: 2
Fore
SplineSet
272.103515625 456.75 m 1xd8
 33.75 456.830078125 l 1
 37.3701171875 541.010742188 l 1
 544.979492188 541.010742188 l 1xb8
 550.86328125 452.75 l 1
 272.103515625 456.75 l 1xd8
339.103515625 483 m 1
 343.159179688 0 l 1
 236.830078125 0 l 1
 241.151367188 485.083984375 l 1xd8
 339.103515625 483 l 1
43.75 636.830078125 m 1
 47.3701171875 731.010742188 l 1
 534.979492188 731.010742188 l 1
 540.86328125 632.75 l 1
 43.75 636.830078125 l 1
EndSplineSet
EndChar

StartChar: uni20B9
Encoding: 693 8377 192
Width: 646
Flags: W
HStem: 249.855 75.3283<241.107 362.403> 424.309 84.625<438.206 614> 430.059 79.75<129.625 612.829> 650.742 88.25<50.5272 326.631>
VStem: 428.042 97.125<388.045 561.175>
LayerCount: 2
Fore
SplineSet
129.625 509.80859375 m 1xb8
 446.875 504.80859375 l 1
 615.625 508.93359375 l 1
 614 424.30859375 l 1xd8
 437.25 431.346679688 l 1
 128 430.05859375 l 1
 129.625 509.80859375 l 1xb8
131.196289062 348.626953125 m 1
 131.196289062 348.626953125 174.186035041 325.18359375 271.791992188 325.18359375 c 0
 375.01078231 325.18359375 428.041992188 381.668809371 428.041992188 470.43359375 c 0
 428.041992188 580.623156484 354.465570784 650.7421875 203.916992188 650.7421875 c 0
 95.8794925365 650.7421875 35.51953125 623.677734375 35.51953125 623.677734375 c 1
 18 710.840820312 l 1
 18 710.840820312 69.4760257158 738.9921875 219.416992188 738.9921875 c 0
 410.014729564 738.9921875 525.166992188 650.858398438 525.166992188 480.93359375 c 0
 525.166992188 287.358279667 368.393088403 249.855341265 293.536967663 249.855341265 c 0
 259.555750947 249.855341265 240.490234375 257.165039062 240.490234375 257.165039062 c 1
 508.270507812 42.875 l 1
 443.020507812 -37 l 1
 102.5078125 276.68359375 l 1
 131.196289062 348.626953125 l 1
EndSplineSet
EndChar

StartChar: uni20BA
Encoding: 694 8378 193
Width: 643
Flags: W
HStem: -9.99805 89.877<247.637 417.59> 711.01 20G<145.621 241.782>
VStem: 140.348 105.635<84.293 731.01> 516.168 95.75<182.922 257.115>
LayerCount: 2
Fore
SplineSet
23.7978515625 302.71484375 m 1
 220.389648438 355.334960938 l 1
 433.1875 432.35546875 l 1
 460.4140625 344.865234375 l 1
 237.203125 292.018554688 l 1
 47.3486328125 225.806640625 l 1
 23.7978515625 302.71484375 l 1
9.5 463.859375 m 1
 206.091796875 516.48046875 l 1
 418.889648438 593.5 l 1
 446.116210938 506.009765625 l 1
 222.905273438 453.162109375 l 1
 33.05078125 386.950195312 l 1
 9.5 463.859375 l 1
245.982421875 84.29296875 m 1
 245.982421875 84.29296875 268.561354275 79.87890625 311.380859375 79.87890625 c 0
 412.799197057 79.87890625 503.090085585 121.50527399 516.16796875 271.25 c 1
 611.91796875 256 l 1
 588.935170369 105.546875 524.338667169 -9.998046875 299.91796875 -9.998046875 c 0
 203.197087604 -9.998046875 140.34765625 0 140.34765625 0 c 1
 145.76953125 731.009765625 l 1
 241.647460938 731.009765625 l 1
 245.982421875 84.29296875 l 1
EndSplineSet
EndChar

StartChar: breve
Encoding: 430 728 194
Width: 332
Flags: W
HStem: 623.5 66.125<96.5801 239.717>
VStem: 15 302
LayerCount: 2
Fore
SplineSet
168 623.5 m 0
 70.4837707597 623.5 15 704.75 15 704.75 c 1
 55.5 748 l 1
 55.5 748 98.1541770657 689.625 167 689.625 c 0
 233.408430233 689.625 279.375 742 279.375 742 c 1
 317 706.625 l 1
 317 706.625 273.160502959 623.5 168 623.5 c 0
EndSplineSet
EndChar

StartChar: dotaccent
Encoding: 431 729 195
Width: 240
Flags: W
HStem: 634.008 105<75.6518 164.348>
VStem: 67.5 105<642.16 730.856>
LayerCount: 2
Fore
SplineSet
67.5 686.5078125 m 0
 67.5 718.591352983 87.9164595171 739.0078125 120 739.0078125 c 0
 152.083540484 739.0078125 172.5 718.591352983 172.5 686.5078125 c 0
 172.5 654.424272017 152.083540484 634.0078125 120 634.0078125 c 0
 87.9164595171 634.0078125 67.5 654.424272017 67.5 686.5078125 c 0
EndSplineSet
EndChar

StartChar: ogonek
Encoding: 433 731 196
Width: 207
Flags: W
HStem: -248 57.5<115.579 191.98>
VStem: 33.75 66.75<-173.488 -63.1858>
LayerCount: 2
Fore
SplineSet
186.25 18 m 1
 186.25 18 100.5 -64.6948595771 100.5 -127.375 c 0
 100.5 -171.208621537 128.645454546 -189.639204547 197.25 -190.5 c 1
 191.25 -248 l 1
 87.3159898475 -242 33.75 -216.730463477 33.75 -136 c 0
 33.75 -47.52 127.125 22 127.125 22 c 1
 186.25 18 l 1
EndSplineSet
EndChar

StartChar: ring
Encoding: 432 730 197
Width: 307
Flags: W
HStem: 498.113 58.0527<109.287 199.514> 680.843 58.1494<108.879 199.514>
VStem: 31.875 65.2588<568.442 669.343> 212.059 63.666<567.457 668.485>
LayerCount: 2
Fore
SplineSet
97.1337890622 619.416015625 m 0
 97.1337890622 580.763850622 119.433990205 556.166015625 154.479492188 556.166015625 c 0
 189.666785058 556.166015625 212.05859375 580.326339723 212.05859375 618.291015625 c 0
 212.05859375 656.517528326 189.666785058 680.842773438 154.479492188 680.842773438 c 0
 119.433990205 680.842773438 97.1337890622 656.95502044 97.1337890622 619.416015625 c 0
31.875 619.512695312 m 0
 31.875 692.527906327 79.5544905368 738.9921875 154.479492188 738.9921875 c 0
 228.573831606 738.9921875 275.724609375 689.606300444 275.724609375 612 c 0
 275.724609375 542.402270226 228.573831606 498.11328125 154.479492188 498.11328125 c 0
 79.5544905366 498.11328125 31.875 545.323854793 31.875 619.512695312 c 0
EndSplineSet
EndChar

StartChar: hungarumlaut
Encoding: 435 733 198
Width: 416
Flags: W
HStem: 516.748 227.746
LayerCount: 2
Fore
SplineSet
343.6328125 744.494140625 m 1
 408.881835938 691.919921875 l 1
 244.118164062 516.748046875 l 1
 201.208984375 552.409179688 l 1
 343.6328125 744.494140625 l 1
153.6328125 744.494140625 m 1
 218.881835938 691.919921875 l 1
 54.1181640625 516.748046875 l 1
 11.208984375 552.409179688 l 1
 153.6328125 744.494140625 l 1
EndSplineSet
EndChar

StartChar: partialdiff
Encoding: 714 8706 199
Width: 615
Flags: W
HStem: -10.0664 86.2998<210.616 379.847> 421.009 75.9248<212.675 387.497> 671.768 81.7432<209.494 276.899>
VStem: 47.5 85.75<154.22 339.485> 465.5 102<182.337 419.457>
LayerCount: 2
Fore
SplineSet
133.25 247.858398438 m 0
 133.25 142.976257964 197.342056335 76.2333984375 291.650390625 76.2333984375 c 0
 396.91462969 76.2333984375 465.5 146.865135432 465.5 257.858398438 c 0
 465.5 357.561991258 399.288078863 421.008789062 301.025390625 421.008789062 c 0
 198.495544716 421.008789062 133.25 353.673137694 133.25 247.858398438 c 0
47.5 239.93359375 m 0
 47.5 403.100373145 140.722430269 496.93359375 279.5 496.93359375 c 0
 421.466156889 496.93359375 479.52734375 402.307617188 479.52734375 402.307617188 c 1
 454.451471695 539.537778578 400.183761355 639.895551785 190.521484375 671.767578125 c 1
 211.270507812 753.510742188 l 1
 457.269983545 732.027172961 567.5 570.795761438 567.5 332 c 0
 567.5 103.182430662 449.087962259 -10.06640625 282.375 -10.06640625 c 0
 149.77596147 -10.06640625 47.5 87.155085637 47.5 239.93359375 c 0
EndSplineSet
EndChar

StartChar: emptyset
Encoding: 715 8709 200
Width: 795
Flags: W
HStem: -10.0664 80.627<269.154 518.28> 660.89 78.0439<278.146 518.28>
VStem: 23.75 85.5<242.236 483.999> 692.867 78.3828<242.236 483.999>
LayerCount: 2
Fore
SplineSet
705.32421875 734.05859375 m 1
 436.705078125 345.424804688 l 1
 179.75390625 -75.375 l 1
 97.17578125 -22.625 l 1
 379.654296875 372.575195312 l 1
 629.345703125 788.30859375 l 1
 705.32421875 734.05859375 l 1
23.75 361.93359375 m 0
 23.75 592.322641811 168.902620189 738.93359375 397 738.93359375 c 0
 625.708805528 738.93359375 771.25 592.322641811 771.25 361.93359375 c 0
 771.25 134.599173678 625.708805528 -10.06640625 397 -10.06640625 c 0
 168.902620189 -10.06640625 23.75 134.599173678 23.75 361.93359375 c 0
109.25 361.93359375 m 0
 109.25 183.871904306 221.540664063 70.560546875 398 70.560546875 c 0
 578.197090016 70.560546875 692.8671875 183.871904306 692.8671875 361.93359375 c 0
 692.8671875 544.630406423 578.197090016 660.889648438 398 660.889648438 c 0
 221.540664063 660.889648438 109.25 544.630406423 109.25 361.93359375 c 0
EndSplineSet
EndChar

StartChar: Delta
Encoding: 716 8710 201
Width: 670
Flags: W
HStem: 0 92.0674<147.086 520.356> 627.194 93.8057<79.3193 251.133> 633.362 97.6377<168.947 251.133>
LayerCount: 2
Fore
SplineSet
251.1328125 633.362304688 m 1xa0
 79.3193359377 627.194335938 l 1
 76.439453125 721 l 1xc0
 384.798828125 731 l 1
 639.875 59.75 l 1
 622.875 0 l 1
 46 0 l 1
 29 55.75 l 1
 251.1328125 633.362304688 l 1xa0
520.356445312 93.3818359378 m 1
 335.318359375 609.4921875 l 1
 147.0859375 92.0673828122 l 1
 520.356445312 93.3818359378 l 1
EndSplineSet
EndChar

StartChar: notequal
Encoding: 726 8800 202
Width: 450
Flags: W
HStem: 206.375 78.25<146.2 411.5> 216.375 71.25<33.5 297.8> 382.375 71.25<35.5 415.5>
LayerCount: 2
Fore
SplineSet
273.276367188 594.734375 m 1x20
 347.624023438 569.072265625 l 1
 247.0859375 317.234375 l 1
 175.727539062 80.1787109375 l 1
 102.288085938 106.923828125 l 1
 199.328125 341.390625 l 1
 273.276367188 594.734375 l 1x20
EndSplineSet
Refer: 19 61 N 1 0 0 1 0 0 2
EndChar

StartChar: approxequal
Encoding: 725 8776 203
Width: 450
Flags: W
HStem: 491.155 20G<383.927 429.573>
LayerCount: 2
Fore
SplineSet
291.491210938 238.668945312 m 1
 419.150024414 311.155273438 l 1
 446.330078125 259 l 1
 284.950195312 156.959960938 l 1
 158.509765625 270.291015625 l 1
 37.1005859375 194.6796875 l 1
 3.669921875 249.959960938 l 1
 165.05078125 352 l 1
 291.491210938 238.668945312 l 1
291.491210938 438.668945312 m 1
 419.150024414 511.155273438 l 1
 446.330078125 459 l 1
 284.950195312 356.959960938 l 1
 158.509765625 470.291015625 l 1
 37.1005859375 394.6796875 l 1
 3.669921875 449.959960938 l 1
 165.05078125 552 l 1
 291.491210938 438.668945312 l 1
EndSplineSet
EndChar

StartChar: product
Encoding: 717 8719 204
Width: 853
Flags: W
HStem: 636.334 94.6768<41.1201 153.151 250.838 602.979 701.073 812.869>
VStem: 148.83 106.329<-173.994 636.334> 598.83 106.329<-173.994 634.878>
LayerCount: 2
Fore
SplineSet
148.830078125 -173.994140625 m 1
 153.151367188 636.333984375 l 1
 37.5 634.330078125 l 1
 41.1201171875 731.010742188 l 1
 812.869140625 731.010742188 l 1
 816.489257812 634.330078125 l 1
 701.073242188 636.330078125 l 1
 705.159179688 -173.994140625 l 1
 598.830078125 -173.994140625 l 1
 602.979492188 634.877929688 l 1
 250.837890625 636.333984375 l 1
 255.159179688 -173.994140625 l 1
 148.830078125 -173.994140625 l 1
EndSplineSet
EndChar

StartChar: summation
Encoding: 718 8721 205
Width: 670
Flags: W
HStem: -173.994 88.9805<172.893 626.539> 640.58 90.4307<33.6201 138.151 249.229 618.729>
LayerCount: 2
Fore
SplineSet
618.729492188 731.010742188 m 1
 624.61328125 636.5 l 1
 249.228515625 640.5 l 1
 430.125 301 l 1
 172.892578125 -85.013671875 l 1
 232.939453125 -85.201171875 l 1
 630.159179688 -83.5634765623 l 1
 626.5390625 -173.994140625 l 1
 64.1796875 -173.994140625 l 1
 54.87109375 -89.244140625 l 1
 320.625 301.25 l 1
 138.151367188 642.583984375 l 1
 30 640.580078125 l 1
 33.6201171875 731.010742188 l 1
 618.729492188 731.010742188 l 1
EndSplineSet
EndChar

StartChar: integral
Encoding: 724 8747 206
Width: 523
Flags: W
LayerCount: 2
Fore
SplineSet
420.51953125 797.84375 m 1
 487.7265625 729.874023438 l 1
 315.012695312 559.71484375 l 1
 262.63671875 10 l 1
 83.3525390622 -204 l 1
 9.4775390625 -137.875 l 1
 174.432617188 28.125 l 1
 228.109375 592.096679688 l 1
 420.51953125 797.84375 l 1
EndSplineSet
EndChar

StartChar: angleleft
Encoding: 729 9001 268
Width: 382
Flags: W
LayerCount: 2
Fore
SplineSet
115.88671875 300.836914062 m 1
 361 -164.994140625 l 1
 285.75 -198.994140625 l 1
 21 301.005859375 l 1
 285.75 791.001953125 l 1
 361 757.001953125 l 1
 115.88671875 300.836914062 l 1
EndSplineSet
EndChar

StartChar: angleright
Encoding: 730 9002 269
Width: 382
Flags: W
LayerCount: 2
Fore
SplineSet
266.11328125 291.170898438 m 1
 21 757.001953125 l 1
 96.25 791.001953125 l 1
 361 291.001953125 l 1
 96.25 -198.994140625 l 1
 21 -164.994140625 l 1
 266.11328125 291.170898438 l 1
EndSplineSet
EndChar

StartChar: dcroat
Encoding: 207 273 271
Width: 672
Flags: W
HStem: -10.0664 79<196.906 372.417> 0 72.1768<549.349 658.38> 428.684 78.25<196.906 370.268> 555.25 79.375<292 620.328> 735.002 20G<463.75 546.748>
VStem: 30 85.875<153.096 342.304> 459.146 50.3545<113.535 409.518> 463.875 82.7949<256.434 755.002>
LayerCount: 2
Fore
SplineSet
292 634.625 m 1x3c
 500.5 629.625 l 1
 648 634.5 l 1
 646 548.375 l 1
 494.25 556.538085938 l 1
 290 555.25 l 1
 292 634.625 l 1x3c
EndSplineSet
Refer: 5 100 S 1 0 0 1 0 0 2
EndChar

StartChar: Hbar
Encoding: 228 294 272
Width: 830
Flags: W
HStem: 0 21G<151.33 257.659 588.83 695.159> 261.25 89.5<309.551 615.25> 270.375 77.5<220.75 522.449> 430.809 73.25<138.825 810.5> 438.875 64.25<38.5 708.175> 642.584 88.4268<41.1201 155.651 478.62 593.151>
VStem: 151.33 106.329<0 270.375 347.875 642.584> 588.83 106.329<0 261.25 350.75 642.584>
LayerCount: 2
Fore
SplineSet
252.229492188 731.010742188 m 1x87
 257.659179688 0 l 1
 151.330078125 0 l 1
 155.651367188 642.583984375 l 1
 37.5 640.580078125 l 1
 41.1201171875 731.010742188 l 1
 252.229492188 731.010742188 l 1x87
689.729492188 731.010742188 m 1
 695.159179688 0 l 1
 588.830078125 0 l 1
 593.151367188 642.583984375 l 1
 475 640.580078125 l 1
 478.620117188 731.010742188 l 1
 689.729492188 731.010742188 l 1
220.75 347.875 m 1xa7
 619.25 350.75 l 1
 615.25 261.25 l 1xc7
 216.75 270.375 l 1
 220.75 347.875 l 1xa7
38.5 503.125 m 1x8f
 812.5 504.05859375 l 1
 810.5 430.80859375 l 1x97
 36.5 438.875 l 1
 38.5 503.125 l 1x8f
EndSplineSet
EndChar

StartChar: hbar
Encoding: 229 295 273
Width: 639
Flags: W
HStem: 0 21G<143.955 233.659> 428.934 78<297.355 450.773> 574 74<240.182 396> 582 65<22 336.867> 735.002 20G<148.162 228.373>
VStem: 143.955 89.7041<0 755.002> 500.25 86.5<17.9944 372.804>
LayerCount: 2
Fore
SplineSet
174.25 272.68359375 m 1xce
 194.963378906 410.025646345 260.291666667 506.93359375 395.5 506.93359375 c 0
 521.510648287 506.93359375 586.75 429.158203125 586.75 278.93359375 c 0
 586.75 134.376953125 568.909179688 -15 568.909179688 -15 c 1
 480.080078125 -3.75 l 1
 480.080078125 -3.75 500.25 140.703086767 500.25 259.43359375 c 0
 500.25 367.022122897 468.315667109 428.93359375 377.75 428.93359375 c 0
 285.23662421 428.93359375 235.791935048 374.588947717 221 235.68359375 c 1
 174.25 272.68359375 l 1xce
22 647 m 1xde
 195.5 642 l 1
 398 648 l 1
 396 574 l 1xee
 189.25 583.288085938 l 1
 20 582 l 1
 22 647 l 1xde
228.229492188 755.001953125 m 1
 233.659179688 0 l 1
 143.955078125 0 l 1
 148.276367188 755.001953125 l 1
 228.229492188 755.001953125 l 1
EndSplineSet
EndChar

StartChar: Tbar
Encoding: 292 358 275
Width: 590
Flags: W
HStem: 0 21G<236.83 343.159> 269.125 88.75<357.341 511.625> 278 77.875<78.875 431.79> 640.5 30<241.151 339.104> 640.58 90.4307<31.1201 241.151 339.104 551.229>
VStem: 236.83 106.329<0 670.5>
LayerCount: 2
Fore
SplineSet
78.875 355.875 m 1xa4
 293.875 351.875 l 1
 514.875 357.875 l 1
 511.625 269.125 l 1xc4
 287.625 279.288085938 l 1
 75.625 278 l 1
 78.875 355.875 l 1xa4
EndSplineSet
Refer: 61 84 N 1 0 0 1 0 0 2
EndChar

StartChar: tbar
Encoding: 293 359 276
Width: 426
Flags: W
HStem: 210.837 78.75<212.924 387> 217.712 70.875<3 352.657> 413.75 86.25<208.976 376.875> 422.375 74.625<20.5 337.899>
VStem: 130.83 88.2988<126.298 460.27>
LayerCount: 2
Fore
SplineSet
3 288.586914062 m 1x48
 194 284.336914062 l 1
 389 289.586914062 l 1
 387 210.836914062 l 1x88
 184 219 l 1
 1 217.711914062 l 1
 3 288.586914062 l 1x48
EndSplineSet
Refer: 7 116 N 1 0 0 1 0 0 2
EndChar

StartChar: .notdef
Encoding: 738 -1 362
Width: 795
Flags: W
HStem: -10.0664 59.627<275.779 524.337> 141.077 83.3998<337.346 412.534> 270.473 113.723<348.112 401.169> 535.802 58.5047<322.982 403.708> 681.89 57.0439<279.309 520.781>
VStem: 30 63<233.373 492.923> 333.24 83.4003<145.183 220.371> 344.598 59.6227<270.473 333.947> 456.855 67.1848<399.816 496.685> 705.367 59.6328<233.373 492.923>
LayerCount: 2
Fore
SplineSet
312.66015625 535.801928711 m 1xfdc0
 324.384277344 594.306640625 l 1
 461.303354201 574.644446786 524.03984375 530.745545379 524.03984375 446.183203125 c 0
 524.03984375 379.007108879 475.340428908 344.377444848 425.850952149 336.554980468 c 0
 413.732658428 334.274306842 404.221166993 333.946826172 404.221166993 333.946826172 c 1
 401.174780274 267.211914063 l 1
 401.174780274 267.211914063 393.630093175 270.472729492 376.140136719 270.472729492 c 0
 357.809457632 270.472729492 348.104980469 266.371777344 348.104980469 266.371777344 c 1
 344.598461914 385.291577148 l 1
 344.598461914 385.291577148 356.516241073 384.196020508 380.249609375 384.196020508 c 0
 423.425978201 384.196020508 456.855078124 402.430145697 456.855078124 449.536914063 c 0
 456.855078124 499.524286921 408.807123334 524.554111728 312.66015625 535.801928711 c 1xfdc0
333.239794921 182.776782227 m 0xfec0
 333.239794921 208.260369615 349.456354018 224.476928711 374.939941406 224.476928711 c 0
 400.423528795 224.476928711 416.640087891 208.260369615 416.640087891 182.776782227 c 0
 416.640087891 157.293508154 400.423528795 141.077148438 374.939941406 141.077148438 c 0
 349.456354018 141.077148438 333.239794921 157.293508154 333.239794921 182.776782227 c 0xfec0
30 361.93359375 m 0
 30 592.322641811 172.722067272 738.93359375 397 738.93359375 c 0
 621.889353198 738.93359375 765 592.322641811 765 361.93359375 c 0
 765 134.599173678 621.889353198 -10.06640625 397 -10.06640625 c 0
 172.722067272 -10.06640625 30 134.599173678 30 361.93359375 c 0
93 361.93359375 m 0
 93 171.038543369 211.610052083 49.560546875 398 49.560546875 c 0
 585.835999059 49.560546875 705.3671875 171.038543369 705.3671875 361.93359375 c 0
 705.3671875 557.463841324 585.835999059 681.889648438 398 681.889648438 c 0
 211.610052083 681.889648438 93 557.463841324 93 361.93359375 c 0
EndSplineSet
EndChar

StartChar: uni0326
Encoding: 452 806 363
Width: 0
Flags: W
HStem: -206.337 211.029
VStem: 0 163.046
LayerCount: 2
Fore
SplineSet
87.78125 4.6923828125 m 25
 163.045898438 -41.912109375 l 25
 42.90625 -206.336914062 l 25
 0 -178.25 l 25
 87.78125 4.6923828125 l 25
EndSplineSet
EndChar

StartChar: dcaron
Encoding: 205 271 403
Width: 672
Flags: W
HStem: -10.0664 79<196.906 372.417> 0 72.1768<549.349 658.38> 428.684 78.25<196.906 370.268> 735.002 20G<463.75 546.748>
VStem: 30 85.875<153.096 342.304> 459.146 50.3545<113.535 409.518> 463.875 82.7949<256.434 755.002> 635 54<484 516.362>
LayerCount: 2
Fore
SplineSet
738.25 741.8671875 m 1x39
 689 479 l 25
 635 484 l 1
 640 751 l 25
 738.25 741.8671875 l 1x39
EndSplineSet
Refer: 5 100 N 1 0 0 1 0 0 2
EndChar

StartChar: Lcaron
Encoding: 251 317 404
Width: 620
Flags: W
HStem: 0 88.793<256.564 589.039> 642.584 88.4258<34.8701 155.651>
VStem: 150.93 105.635<88.793 642.584> 465 60.5<484 512.046>
LayerCount: 2
Fore
SplineSet
580.75 737.2421875 m 1
 525.5 479.375 l 1
 465 484 l 1
 473.75 751 l 1
 580.75 737.2421875 l 1
EndSplineSet
Refer: 44 76 N 1 0 0 1 0 0 2
EndChar

StartChar: lcaron
Encoding: 252 318 405
Width: 387
Flags: W
HStem: 0 73.0225<246.634 366.189> 682.45 72.5518<40.9701 160.646>
VStem: 156.325 90.3088<73.0225 682.45> 359 60.5<484 512.046>
LayerCount: 2
Fore
SplineSet
474.75 737.2421875 m 1
 419.5 479.375 l 1
 359 484 l 1
 367.75 751 l 1
 474.75 737.2421875 l 1
EndSplineSet
Refer: 8 108 N 1 0 0 1 0 0 2
EndChar

StartChar: tcaron
Encoding: 291 357 409
Width: 426
Flags: W
HStem: 413.75 86.25<208.976 376.875> 422.375 74.625<20.5 337.899>
VStem: 130.83 88.2988<126.298 460.27> 323 51.625<550.625 580.724>
LayerCount: 2
Fore
SplineSet
418.375 738.7421875 m 1x30
 374.625 550.625 l 1
 323 549 l 1
 326 751 l 1
 418.375 738.7421875 l 1x30
EndSplineSet
Refer: 7 116 N 1 0 0 1 0 0 2
EndChar

StartChar: uni030F
Encoding: 448 783 435
Width: 0
Flags: W
HStem: 516.748 227.746
LayerCount: 2
Fore
SplineSet
78.9990234375 744.494140625 m 1
 217.672851562 552.409179688 l 1
 174.763671875 516.748046875 l 1
 10 691.919921875 l 1
 78.9990234375 744.494140625 l 1
268.999023438 744.494140625 m 1
 407.672851562 552.409179688 l 1
 364.763671875 516.748046875 l 1
 200 691.919921875 l 1
 268.999023438 744.494140625 l 1
EndSplineSet
EndChar

StartChar: uni031B
Encoding: 450 795 463
Width: 0
Flags: W
HStem: 424 326
VStem: 101 79.25<524.882 675.398>
LayerCount: 2
Fore
SplineSet
48 720.75 m 1
 127.75 750 l 1
 127.75 750 180.25 696.444114829 180.25 611 c 0
 180.25 477.463768116 60.5 424 60.5 424 c 1
 29 471.75 l 1
 29 471.75 101 514.211286296 101 600.239257812 c 0
 101 664.044181362 48 720.75 48 720.75 c 1
EndSplineSet
EndChar

StartChar: Uhorn
Encoding: 322 431 464
Width: 847
Flags: W
HStem: -10 95.75<334.762 523.364> 642.584 88.4268<41.1201 162.651 472.37 593.526> 661.375 69.6328<676 728.578>
VStem: 151.017 99.7676<171.224 554.359> 602.205 97.9365<173.942 540.85> 732.625 84.375<737.085 797.563>
LayerCount: 2
Fore
SplineSet
688.375 811.625 m 1xbc
 754 860.93359375 l 1
 754 860.93359375 817 823.456365297 817 760.25 c 0
 817 686.393973213 756 664.0234375 676 661.375 c 1
 649 731.0078125 l 1
 706.077380952 731.0078125 732.625 736.406838365 732.625 760.75 c 0
 732.625 792.375 688.375 811.625 688.375 811.625 c 1xbc
EndSplineSet
Refer: 53 85 N 1 0 0 1 0 0 2
EndChar

StartChar: uhorn
Encoding: 323 432 465
Width: 687
Flags: W
HStem: -9.93164 78<188.537 341.435> 0 71.0518<500.349 611.88> 439.253 57.7578<484.75 553.381> 477.002 20G<73.3408 159.17 416.56 497.796>
VStem: 52.5 86.5<123.207 485.009> 416.75 80.9199<198.068 497.002> 567 82.5<513.373 597.428>
LayerCount: 2
Fore
SplineSet
519.75 613.502929688 m 1x2e
 584 654.936523438 l 1
 584 654.936523438 649.5 612.240441454 649.5 543.75 c 0
 649.5 467.700919936 586.411512708 441.627863102 484.75 439.252929688 c 1
 449 497.010742188 l 1
 529.53968254 497.010742188 567 511.379331663 567 548.752929688 c 0
 567 597.311781662 519.75 613.502929688 519.75 613.502929688 c 1x2e
EndSplineSet
Refer: 27 117 N 1 0 0 1 0 0 2
EndChar

StartChar: uni01B7
Encoding: 324 439 466
Width: 644
Flags: W
HStem: -183.994 88.625<125.514 396.29> 270.117 79.2166<289.108 421.768> 634.258 96.75<55.5 443.723>
VStem: 505.167 95.5<-0.356509 189.427>
LayerCount: 2
Fore
SplineSet
287.25 343.75 m 1
 287.25 343.75 309.010598499 349.333740234 346.980102539 349.333740234 c 0
 470.525130969 349.333740234 600.666992188 284.736443199 600.666992188 93.056640625 c 0
 600.666992188 -88.4548276127 470.875449119 -183.994140625 266.916992188 -183.994140625 c 0
 83.4702596384 -183.994140625 5.5 -117.842773438 5.5 -117.842773438 c 1
 41.875 -34.177734375 l 1
 41.875 -34.177734375 119.803085291 -95.369140625 263.916992188 -95.369140625 c 0
 433.901763276 -95.369140625 505.166992188 -21.412309024 505.166992188 94.806640625 c 0
 505.166992188 211.655685032 441.969413412 270.1171875 308.791992188 270.1171875 c 0
 210.26628516 270.1171875 165.8828125 235.93359375 165.8828125 235.93359375 c 1
 130.25 308.25 l 1
 443.72265625 640.2578125 l 1
 49.125 634.2578125 l 1
 55.5 731.0078125 l 1
 562.766601562 731.0078125 l 1
 579.016601562 664.0078125 l 1
 287.25 343.75 l 1
EndSplineSet
EndChar

StartChar: uni0292
Encoding: 426 658 467
Width: 498
Flags: W
HStem: -183.994 78.625<74.0415 309.397> 145.242 69.0078<204.842 327.084> 477.011 20G<44.5095 424.142>
VStem: 376.542 86.625<-45.0226 98.4764>
LayerCount: 2
Back
SplineSet
20 338 m 5
 30 497 l 5
 399.016601562 497 l 5
 431.016601562 369 l 5
 257.168945312 164 l 5
 441.016601562 170 l 5
 431.016601562 0 l 5
 41 0 l 5
 12 128 l 5
 193.84765625 344 l 5
 20 338 l 5
EndSplineSet
Fore
SplineSet
240.5 208.5 m 1
 240.5 208.5 258.594599824 214.25 276.5 214.25 c 0
 375.805255087 214.25 463.166992188 147.275223338 463.166992188 28 c 0
 463.166992188 -115.80131334 365.069863381 -183.994140625 210.916992188 -183.994140625 c 0
 73.9605276569 -183.994140625 15.75 -140.217773438 15.75 -140.217773438 c 1
 38.5 -65.677734375 l 1
 38.5 -65.677734375 88.1176231972 -105.369140625 208.875 -105.369140625 c 0
 316.601691248 -105.369140625 376.541992188 -53.8965513978 376.541992188 27.056640625 c 0
 376.541992188 98.9177016797 330.148480223 145.2421875 239.416992188 145.2421875 c 0
 170.267496822 145.2421875 128.6328125 113.18359375 128.6328125 113.18359375 c 1
 98.75 172 l 1
 320.47265625 418.75 l 1
 320.47265625 418.75 40 416.875 40 416.5 c 1
 46 497.010742188 l 1
 424.141601562 497 l 1
 439.766601562 439.625 l 1
 240.5 208.5 l 1
EndSplineSet
EndChar

StartChar: infinity
Encoding: 723 8734 470
Width: 579
Flags: W
HStem: 228.5 63.9629<120.5 235.132 357.983 454.393> 438.134 69.0508<122.307 230.698 337.264 461.992>
VStem: 33.75 68.3193<310.535 418.865> 477.79 68.2441<315.286 422.408>
LayerCount: 2
Fore
SplineSet
477.790039062 369.654296875 m 0
 477.790039062 412.424695552 448.404214661 442.815429688 403.291992188 442.815429688 c 0
 334.680330287 442.815429688 302.854492188 372.869140625 302.854492188 372.869140625 c 1
 277.163085938 425.7109375 l 1
 277.163085938 425.7109375 318.399885993 507.184570312 413.956054688 507.184570312 c 0
 493.277949892 507.184570312 546.034179688 451.290599967 546.034179688 367.248046875 c 0
 546.034179688 280.759126939 492.795807422 228.5 404.686523438 228.5 c 0
 330.787004668 228.5 288.470181499 267.475367455 261.903320312 354.533203125 c 0
 242.666638764 417.262344992 218.974553846 438.133789062 178.420898438 438.133789062 c 0
 131.336002119 438.133789062 102.069335938 409.446563728 102.069335938 363.291015625 c 0
 102.069335938 319.24774922 130.318565756 292.462890625 176.771484375 292.462890625 c 0
 246.282303188 292.462890625 283.182617188 374.928710938 283.182617188 374.928710938 c 1
 306.377929688 318.021484375 l 1
 306.377929688 318.021484375 266.880405148 228.5 162.53515625 228.5 c 0
 83.6137037874 228.5 33.75 285.168628055 33.75 367.000976562 c 0
 33.75 452.693653452 88.7488584214 507.184570312 175.237304688 507.184570312 c 0
 248.828986832 507.184570312 294.16025726 459.427261313 317.254882812 388.341796875 c 0
 339.443702536 316.473189037 367.512433579 298.08984375 405.741210938 298.08984375 c 0
 450.420764393 298.08984375 477.790039062 325.274468953 477.790039062 369.654296875 c 0
EndSplineSet
EndChar

StartChar: radical
Encoding: 722 8730 471
Width: 659
Flags: W
HStem: 0 21G<264.205 387.357> 491 20G<16.9148 193.747>
LayerCount: 2
Fore
SplineSet
380.777832031 0 m 1
 271.004394531 0 l 1
 124.991943359 429.465454101 l 1
 22.5778808593 420.399047851 l 1
 16.9147949219 497 l 1
 187.137207031 511 l 1
 327.213867188 87.1646728515 l 1
 545.75 783 l 1
 629.25 755.375 l 1
 380.777832031 0 l 1
EndSplineSet
EndChar

StartChar: lessequal
Encoding: 727 8804 472
Width: 450
Flags: W
HStem: 104.25 75.5<84.5 410> 112.25 68.5<41 363.5>
LayerCount: 2
Fore
SplineSet
178.12109375 438.875 m 1x00
 415.349609375 312.25 l 1
 376.599609375 242 l 1
 34.650390625 432 l 1
 376.599609375 651 l 1
 415.349609375 583 l 1
 178.12109375 438.875 l 1x00
41 180.75 m 1x40
 412 179.75 l 1
 410 104.25 l 1x80
 38 112.25 l 1
 41 180.75 l 1x40
EndSplineSet
EndChar

StartChar: greaterequal
Encoding: 728 8805 473
Width: 450
Flags: W
HStem: 104.25 75.5<84.5 410> 112.25 68.5<41 363.5>
LayerCount: 2
Fore
SplineSet
271.87890625 454.125 m 1x00
 34.650390625 580.75 l 1
 73.400390625 651 l 1
 415.349609375 461 l 1
 73.400390625 242 l 1
 34.650390625 310 l 1
 271.87890625 454.125 l 1x00
41 180.75 m 1x40
 412 179.75 l 1
 410 104.25 l 1x80
 38 112.25 l 1
 41 180.75 l 1x40
EndSplineSet
EndChar

StartChar: three.ss01.superior
Encoding: 739 -1 507
Width: 390
Flags: W
HStem: 342 67.2788<53.425 255.81> 569.034 60.7775<105.831 247.798> 772.298 70.7025<63.1592 248.942>
VStem: 272.029 77.9169<652.925 748.492> 286.491 76.1469<438.856 540.118>
LayerCount: 2
Fore
SplineSet
40.49875 436.914375 m 1xe8
 40.49875 436.914375 91.72875 409.27875 163.26625 409.27875 c 0
 246.243125 409.27875 286.49125 440.58375 286.49125 490.0025 c 0xe8
 286.49125 538.594375 248.243125 569.03375 169.974375 569.03375 c 0
 118.61 569.03375 105.821875 564.72625 105.821875 564.72625 c 1
 105.514375 632.291875 l 1
 105.514375 632.291875 118.436875 629.81125 160.80125 629.81125 c 0
 237.64625 629.81125 272.02875 657.80875 272.02875 699.824375 c 0
 272.02875 745.03125 239.33875 772.2975 164.824375 772.2975 c 0
 94.46 772.2975 48.364375 743.163125 48.364375 743.163125 c 1
 29.054375 811.328125 l 1
 29.054375 811.328125 72.9975 843 175.480625 843 c 0
 283.57875 843 349.945625 793 349.945625 712 c 0xf0
 349.945625 625.6925 265.88875 602.173125 265.88875 602.173125 c 1
 265.88875 602.173125 362.638125 582.211875 362.638125 480.519375 c 0
 362.638125 395.519375 291.6175 342 180 342 c 0
 68.03625 342 20.57375 372 20.57375 372 c 1
 40.49875 436.914375 l 1xe8
EndSplineSet
EndChar

StartChar: five.ss02.superior
Encoding: 740 -1 508
Width: 408
Flags: W
HStem: 343 67.625<61.6933 263.528> 598.724 64.5088<116.766 271.751> 765.336 116.491<294.072 351.638> 766.336 70.6637<132.294 288.246>
VStem: 294.072 57.5656<837 881.827> 302.491 76.4544<446.265 567.723>
LayerCount: 2
Fore
SplineSet
351.638125 765.33625 m 1xe8
 132.294375 766.33625 l 1
 108.7775 635.65875 l 1
 108.7775 635.65875 137.19875 663.2325 214.444375 663.2325 c 0
 327.253125 663.2325 378.945625 599.175625 378.945625 508.73125 c 0
 378.945625 395.19125 303.65625 343 186.289375 343 c 0
 67.134375 343 16.57625 379 16.57625 379 c 1
 38.6175 441.89375 l 1
 38.6175 441.89375 96.713125 410.625 178.250625 410.625 c 0
 261.744375 410.625 302.49125 448.640625 302.49125 507.73125 c 0
 302.49125 563.630625 266.10875 598.72375 195.34375 598.72375 c 0
 127.11875 598.72375 89.235 558.899375 89.235 558.899375 c 1
 31.785625 597.059375 l 1
 74.478125 837 l 1
 288.245625 837 l 1xd4
 294.0725 881.826875 l 1
 351.638125 883 l 1
 351.638125 765.33625 l 1xe8
EndSplineSet
EndChar

